<svg width="230" height="68" viewBox="0 0 230 68" fill="none" xmlns="http://www.w3.org/2000/svg">
<g clip-path="url(#clip0_3040_10)">
<mask id="mask0_3040_10" style="mask-type:luminance" maskUnits="userSpaceOnUse" x="5" y="5" width="58" height="58">
<path d="M62.086 5.66663H5.64429V62.3333H62.086V5.66663Z" fill="white"/>
</mask>
<g mask="url(#mask0_3040_10)">
<path d="M60.5462 35.8325L35.6683 9.63708L28.1597 17.543L53.0376 43.7371C53.5306 44.2564 54.1158 44.6684 54.7599 44.9494C55.4042 45.2305 56.0947 45.3753 56.792 45.3753C57.4893 45.3753 58.1798 45.2305 58.8239 44.9494C59.468 44.6684 60.0533 44.2564 60.5462 43.7371C61.5418 42.6889 62.101 41.2672 62.101 39.7848C62.101 38.3024 61.5418 36.8807 60.5462 35.8325Z" fill="url(#paint0_linear_3040_10)"/>
<path d="M41.9543 35.9833L6.43361 -1.41675L-1.07495 6.48903L34.4457 43.8891C35.4415 44.9374 36.792 45.5263 38.2001 45.5263C39.6082 45.5263 40.9587 44.9374 41.9543 43.8891C42.95 42.8406 43.5093 41.4189 43.5093 39.9362C43.5093 38.4536 42.95 37.0317 41.9543 35.9833Z" fill="url(#paint1_linear_3040_10)"/>
<path d="M51.2717 52.7908L26.3936 26.5953L18.885 34.501L43.7642 60.6954C44.257 61.2147 44.8421 61.6265 45.4863 61.9076C46.1303 62.1887 46.8207 62.3333 47.5179 62.3333C48.2151 62.3333 48.9055 62.1887 49.5495 61.9076C50.1937 61.6265 50.7788 61.2147 51.2717 60.6954C51.7648 60.1764 52.1561 59.5603 52.4231 58.8822C52.6899 58.204 52.8274 57.4771 52.8274 56.743C52.8274 56.0089 52.6899 55.282 52.4231 54.6038C52.1561 53.9257 51.7648 53.3096 51.2717 52.7908Z" fill="url(#paint2_linear_3040_10)"/>
</g>
<path d="M89.5522 27.6633C87.4689 27.6633 85.4319 28.2835 83.7002 29.4456C81.9673 30.6077 80.6173 32.2596 79.8198 34.1922C79.0233 36.1248 78.8139 38.2514 79.2211 40.3028C79.6272 42.3544 80.6299 44.239 82.104 45.718C83.577 47.1972 85.4541 48.2046 87.4973 48.6126C89.5406 49.0207 91.6586 48.8113 93.584 48.0108C95.5085 47.2102 97.154 45.8546 98.3114 44.1154C99.4687 42.3761 100.086 40.3313 100.086 38.2396C100.086 35.4346 98.9774 32.7445 97.0014 30.761C95.0255 28.7775 92.3468 27.6633 89.5522 27.6633ZM89.5522 43.9247C88.4327 43.9247 87.3374 43.5912 86.4063 42.9664C85.4751 42.3418 84.7491 41.4539 84.3209 40.4152C83.8926 39.3763 83.78 38.2332 83.9989 37.1303C84.2177 36.0278 84.7565 35.0147 85.5488 34.2197C86.3399 33.4245 87.349 32.883 88.4475 32.6637C89.5458 32.4443 90.6843 32.5569 91.7195 32.9872C92.7538 33.4175 93.6387 34.1463 94.2606 35.0811C94.8824 36.016 95.2148 37.115 95.2148 38.2396C95.2148 39.7479 94.6182 41.1946 93.5567 42.2617C92.4951 43.329 91.0547 43.9292 89.5522 43.9311V43.9247Z" fill="#111133"/>
<path d="M203.568 36.7605C203.062 36.5408 202.527 36.3942 201.979 36.3252C199.653 36.0754 194.411 35.3648 194.289 35.3521C193.955 35.3409 193.636 35.2023 193.4 34.9646C193.163 34.7267 193.025 34.4076 193.015 34.0715C193.015 33.732 193.148 33.4064 193.388 33.1661C193.627 32.926 193.951 32.7912 194.289 32.7912C194.443 32.7912 204.072 32.7912 205.449 32.7912V28.2136C203.976 28.2136 196.694 28.2136 195.215 28.2136C194.21 28.2142 193.214 28.3874 192.269 28.7257C189.717 29.6734 188.442 31.3891 188.219 33.2905C188.151 34.1867 188.25 35.088 188.512 35.9473C188.758 36.9625 189.338 37.8648 190.158 38.5081C191.078 39.1905 192.167 39.6028 193.307 39.699C195.552 39.9742 201.081 40.6529 201.202 40.6848C201.471 40.7541 201.716 40.901 201.903 41.1074C202.145 41.3536 202.294 41.6738 202.331 42.0165C202.336 42.0719 202.336 42.1277 202.331 42.1829C202.343 42.5361 202.228 42.8816 202.005 43.1561C201.852 43.3208 201.666 43.4506 201.46 43.5367C201.253 43.6228 201.03 43.6634 200.807 43.6556H200.137C198.587 43.6556 191.344 43.6556 189.794 43.6556V48.2009C191.229 48.2009 197.178 48.2009 199.424 48.2009C200.043 48.2043 200.663 48.1657 201.278 48.0858C202.692 47.9396 204.04 47.4034 205.168 46.5364C206.699 45.2945 207.145 43.6427 207.145 41.7221C207.134 40.625 206.783 39.5587 206.142 38.67C205.501 37.7814 204.603 37.1141 203.568 36.7605Z" fill="#111133"/>
<path d="M219.471 27.6633C217.388 27.6621 215.351 28.2811 213.616 29.4427C211.884 30.604 210.533 32.2553 209.735 34.1878C208.936 36.1203 208.727 38.247 209.132 40.2989C209.539 42.351 210.542 44.2361 212.015 45.7159C213.488 47.1956 215.365 48.2036 217.408 48.6121C219.451 49.0207 221.571 48.8118 223.495 48.0115C225.42 47.2111 227.065 45.8555 228.224 44.1161C229.382 42.3767 230 40.3316 230 38.2396C230 35.4356 228.891 32.7465 226.916 30.7633C224.943 28.7799 222.265 27.665 219.471 27.6633ZM219.471 43.9247C218.352 43.9247 217.257 43.5912 216.326 42.9666C215.394 42.3418 214.669 41.4539 214.24 40.4152C213.811 39.3763 213.7 38.2332 213.918 37.1303C214.137 36.0278 214.676 35.0147 215.468 34.2197C216.261 33.4245 217.27 32.883 218.367 32.6637C219.467 32.4443 220.604 32.5569 221.638 32.9872C222.673 33.4176 223.557 34.1463 224.18 35.0811C224.802 36.016 225.133 37.1152 225.133 38.2396C225.133 39.7479 224.538 41.1946 223.475 42.2618C222.414 43.329 220.974 43.9294 219.471 43.9311V43.9247Z" fill="#111133"/>
<path d="M117.718 29.1614C116.406 28.5712 114.986 28.2637 113.548 28.2587C109.116 28.2267 102.657 28.2203 102.657 28.2203V48.2717H108.02V43.15C108.02 43.15 110.57 43.15 112.949 43.15C114.214 43.1595 115.473 42.9803 116.685 42.6186C118.994 41.908 120.608 40.4803 121.225 38.0795C121.608 36.5931 121.628 35.0361 121.283 33.5405C121.088 32.5746 120.661 31.6711 120.04 30.908C119.42 30.145 118.622 29.5455 117.718 29.1614ZM114.479 38.0667C114.144 38.1252 113.805 38.1553 113.466 38.1564C110.819 38.1564 108.039 38.1948 108.039 38.1948V33.2523C108.039 33.2523 109.403 33.2523 112.043 33.2523C113.114 33.2523 114.173 33.3164 114.288 33.3293C114.84 33.4119 115.345 33.6851 115.717 34.1019C116.091 34.5186 116.306 35.0526 116.329 35.6122C116.352 36.1717 116.179 36.7216 115.841 37.1673C115.504 37.6128 115.023 37.9265 114.479 38.054V38.0667Z" fill="#111133"/>
<path d="M142.99 38.1115C143.372 36.6251 143.392 35.0681 143.047 33.5725C142.857 32.6008 142.432 31.6907 141.811 30.9219C141.19 30.153 140.39 29.5486 139.482 29.1614C138.171 28.5705 136.75 28.2628 135.313 28.2587C130.881 28.2267 124.427 28.2203 124.427 28.2203V48.2717H129.783V43.1884C129.783 43.1884 131.996 43.1884 134.248 43.1884L137.296 48.2717H143.303C143.303 48.2717 140.949 44.6865 139.394 42.3048C140.284 41.9476 141.076 41.3799 141.703 40.65C142.328 39.92 142.771 39.0492 142.99 38.1115ZM136.25 38.0667C135.914 38.1245 135.576 38.1544 135.236 38.1564C132.583 38.1564 129.809 38.1948 129.809 38.1948V33.2523C129.809 33.2523 131.167 33.2523 133.808 33.2523C134.879 33.2523 135.938 33.3164 136.052 33.3293C136.604 33.411 137.11 33.6836 137.483 34.0998C137.857 34.516 138.073 35.0499 138.097 35.6094C138.121 36.1691 137.949 36.7193 137.611 37.1656C137.275 37.6117 136.793 37.9259 136.25 38.054V38.0667Z" fill="#111133"/>
<path d="M183.404 36.7605C182.901 36.5408 182.367 36.3942 181.823 36.3252C179.496 36.0754 174.247 35.3648 174.132 35.3521C173.798 35.3423 173.478 35.2043 173.242 34.9663C173.005 34.7282 172.867 34.4081 172.857 34.0715C172.857 33.732 172.992 33.4064 173.231 33.1661C173.469 32.926 173.795 32.7912 174.132 32.7912C174.286 32.7912 183.915 32.7912 185.292 32.7912V28.2136C183.819 28.2136 176.531 28.2136 175.089 28.2136C174.086 28.2136 173.088 28.3867 172.143 28.7257C169.593 29.6734 168.318 31.3891 168.095 33.2905C168.021 34.1867 168.121 35.0887 168.387 35.9473C168.631 36.9635 169.211 37.8665 170.032 38.5081C170.951 39.1894 172.038 39.6016 173.176 39.699C175.426 39.9742 180.949 40.6529 181.078 40.6848C181.346 40.7572 181.588 40.9036 181.779 41.1074C182.016 41.3552 182.167 41.6746 182.206 42.0166C182.209 42.072 182.209 42.1276 182.206 42.1829C182.218 42.5361 182.102 42.8816 181.881 43.1561C181.727 43.3201 181.54 43.4494 181.334 43.5356C181.128 43.6216 180.906 43.6625 180.681 43.6556H180.012C178.463 43.6556 171.219 43.6556 169.669 43.6556V48.2009C171.103 48.2009 177.048 48.2009 179.298 48.2009C179.919 48.2041 180.539 48.1657 181.154 48.0858C182.568 47.9383 183.914 47.4022 185.044 46.5364C186.574 45.2945 187.021 43.6427 187.021 41.7221C187.007 40.6201 186.651 39.5498 186.004 38.6604C185.355 37.771 184.447 37.1069 183.404 36.7605Z" fill="#111133"/>
<path d="M155.902 27.6633C153.819 27.6633 151.782 28.2835 150.05 29.4456C148.318 30.6077 146.967 32.2596 146.17 34.1922C145.373 36.1248 145.164 38.2514 145.572 40.3028C145.977 42.3544 146.98 44.239 148.454 45.718C149.928 47.1972 151.804 48.2046 153.847 48.6126C155.891 49.0207 158.009 48.8113 159.933 48.0108C161.858 47.2102 163.505 45.8546 164.662 44.1154C165.819 42.3761 166.437 40.3313 166.437 38.2396C166.437 35.4346 165.328 32.7445 163.351 30.761C161.375 28.7775 158.697 27.6633 155.902 27.6633ZM155.902 43.9247C154.783 43.9247 153.688 43.5912 152.757 42.9664C151.825 42.3418 151.1 41.4539 150.671 40.4152C150.242 39.3763 150.129 38.2332 150.349 37.1303C150.568 36.0278 151.106 35.0147 151.899 34.2197C152.69 33.4245 153.699 32.883 154.797 32.6637C155.896 32.4443 157.034 32.5569 158.069 32.9872C159.104 33.4175 159.988 34.1463 160.611 35.0811C161.233 36.016 161.564 37.115 161.564 38.2396C161.564 39.7479 160.968 41.1946 159.906 42.2617C158.845 43.329 157.405 43.9292 155.902 43.9311V43.9247Z" fill="#111133"/>
</g>
<defs>
<linearGradient id="paint0_linear_3040_10" x1="32.3984" y1="14.2255" x2="58.5123" y2="38.7811" gradientUnits="userSpaceOnUse">
<stop stop-color="#E8634E" stop-opacity="0"/>
<stop offset="1" stop-color="#E8463D"/>
</linearGradient>
<linearGradient id="paint1_linear_3040_10" x1="7.9875" y1="8.29881" x2="43.3825" y2="41.4709" gradientUnits="userSpaceOnUse">
<stop stop-color="#EE8156" stop-opacity="0"/>
<stop offset="1" stop-color="#FF7300"/>
</linearGradient>
<linearGradient id="paint2_linear_3040_10" x1="23.119" y1="31.1824" x2="49.2275" y2="55.7254" gradientUnits="userSpaceOnUse">
<stop stop-color="#EECD56" stop-opacity="0"/>
<stop offset="1" stop-color="#EEC834"/>
</linearGradient>
<clipPath id="clip0_3040_10">
<rect width="230" height="68" fill="white"/>
</clipPath>
</defs>
</svg>
