<svg  viewBox="0 0 196 76" fill="none" xmlns="http://www.w3.org/2000/svg">
<g clip-path="url(#clip0_3041_104)">
<path d="M1.53456 72.3818C1.53335 71.4495 1.88254 70.5505 2.513 69.8633L4.58655 67.7949C5.57317 66.7965 6.63349 65.7286 8.1953 64.1757C9.94953 62.4285 12.3301 60.0655 15.9327 56.4872L15.943 56.477L19.4535 52.9847L19.5251 52.9151C25.3548 47.1211 33.649 38.8659 45.8283 26.744L19.083 0L3.93562 15.1519C-0.586065 19.6734 0.0280173 22.6338 0.0280173 28.7101V70.2807C0.027969 71.4456 0.384727 72.5829 1.05034 73.5392C1.71596 74.4956 2.65854 75.2254 3.7514 75.6307C3.09836 75.3742 2.53771 74.9269 2.14234 74.3475C1.74697 73.7681 1.5352 73.0832 1.53456 72.3818Z" fill="#7700FF"/>
<path d="M3.75141 75.6307C3.79645 75.6491 3.84148 75.6696 3.88856 75.6859C3.93564 75.7023 3.97658 75.7125 4.03799 75.7269C4.58341 75.8975 5.15111 75.9863 5.72262 75.9908H35.4217L15.945 56.4729L15.9348 56.4831C12.3322 60.0614 9.95159 62.4162 8.19737 64.1716C6.63965 65.7245 5.57524 66.7924 4.58861 67.7908L2.51506 69.8592C1.88461 70.5464 1.53541 71.4452 1.53662 72.3777C1.53627 73.0795 1.74736 73.765 2.1424 74.3453C2.53744 74.9255 3.09811 75.3735 3.75141 75.6307Z" fill="#FF4F12"/>
<path d="M195.951 63.4044V53.0379C195.951 50.1081 194.248 48.1666 191.167 48.1666C189.343 48.1666 187.52 48.9727 186.443 50.7055C185.814 49.122 184.498 48.1666 182.316 48.1666C181.455 48.1649 180.608 48.3837 179.856 48.8018C179.103 49.2202 178.47 49.8242 178.018 50.5562V48.5839H174.243V63.4044H178.01V55.1001C178.01 52.7085 179.356 51.4543 180.822 51.4543C182.46 51.4543 183.213 52.4998 183.213 54.292V63.4044H186.981V55.1595C186.981 52.7044 188.177 51.4543 189.847 51.4543C191.517 51.4543 192.18 52.4998 192.18 54.2327V63.4044H195.951ZM164.262 60.3008C162.05 60.3008 159.986 58.7152 159.986 56.0044C159.986 53.2936 162.05 51.708 164.262 51.708C166.475 51.708 168.538 53.2936 168.538 56.0044C168.538 58.7152 166.475 60.3008 164.262 60.3008ZM172.366 56.0044C172.366 50.8037 168.33 48.1748 164.262 48.1748C160.195 48.1748 156.158 50.8037 156.158 56.0044C156.158 61.2051 160.195 63.8341 164.262 63.8341C168.33 63.8341 172.366 61.2051 172.366 56.0044ZM154.873 59.8589L151.764 58.1567C150.867 59.4108 149.909 60.309 148.057 60.309C145.783 60.309 144.108 58.6723 144.108 56.0126C144.108 53.3529 145.844 51.7162 148.057 51.7162C149.401 51.7162 150.568 52.3443 151.493 53.7498L154.724 51.8963C153.647 49.5946 151.315 48.1911 148.085 48.1911C143.869 48.1911 140.28 51.2989 140.28 56.0208C140.28 60.7427 143.691 63.8504 148.085 63.8504C151.256 63.8504 153.379 62.4183 154.873 59.8753V59.8589ZM131.071 51.0349C133.165 51.0349 134.569 52.1704 134.93 54.024H127.065C127.604 52.3504 129.098 51.0349 131.071 51.0349ZM127.006 56.8923H138.428V55.5768C138.428 51.2436 135.437 48.1666 131.192 48.1666C126.893 48.1666 123.387 51.3029 123.387 55.9962C123.387 60.6895 126.885 63.8259 131.012 63.8259C134.271 63.8259 136.334 62.5983 137.83 60.0614L134.84 58.5659C133.912 59.732 133.075 60.5995 131.071 60.5995C128.858 60.5995 127.243 59.1674 127.006 56.8923ZM117.297 63.4392H121.066V42.5117H117.297V63.4392ZM107.812 51.0656C109.906 51.0656 111.31 52.2011 111.67 54.0547H103.808C104.346 52.3811 105.841 51.0656 107.814 51.0656H107.812ZM103.747 56.9169H115.168V55.6014C115.168 51.2682 112.178 48.1911 107.933 48.1911C103.634 48.1911 100.128 51.3295 100.128 56.0208C100.128 60.712 103.626 63.8504 107.752 63.8504C111.011 63.8504 113.074 62.6229 114.571 60.086L111.586 58.5904C110.659 59.7566 109.822 60.6241 107.818 60.6241C105.605 60.6241 103.99 59.1919 103.753 56.9169H103.747ZM89.4794 48.6085V51.6569H91.772V59.1285C91.772 62.7743 93.956 63.8504 96.527 63.8504C97.3806 63.8486 98.2286 63.7103 99.0386 63.4413L98.6906 60.3356C98.2831 60.4579 97.8593 60.5179 97.4338 60.5136C96.2977 60.5136 95.5506 59.9469 95.5506 58.4227V51.6712H98.7786V48.6228H95.5404V44.6047H91.772V48.6085H89.4794ZM80.0635 52.375C80.0635 51.5669 80.96 51.1188 82.1861 51.1188C83.619 51.1188 84.6097 51.7469 85.3261 52.823L87.7825 51.1188C86.7365 49.2959 85.1215 48.1911 82.1309 48.1911C79.2304 48.1911 76.7188 49.7153 76.7188 52.4875C76.7188 55.1779 78.8721 56.5527 81.7727 57.1194C83.8953 57.5388 84.882 58.1076 84.882 59.0323C84.882 60.1699 83.836 60.6691 82.5505 60.6691C80.8147 60.6691 79.7687 59.6461 79.0502 58.4861L76.031 60.399C77.0545 62.2526 78.9909 63.8361 82.4891 63.8361C86.1736 63.8361 88.3515 61.6859 88.3515 58.9055C88.3515 56.4238 86.9187 55.051 83.4389 54.3329C81.1054 53.8542 80.0594 53.31 80.0594 52.3607L80.0635 52.375ZM66.8607 60.3356C64.648 60.3356 62.5846 58.75 62.5846 56.0392C62.5846 53.3284 64.648 51.7428 66.8607 51.7428C69.0734 51.7428 71.1368 53.3284 71.1368 56.0392C71.1368 58.75 69.0734 60.3356 66.8607 60.3356ZM74.9645 56.0392C74.9645 50.8385 70.928 48.2095 66.8607 48.2095C62.7934 48.2095 58.7589 50.8385 58.7589 56.0392C58.7589 61.2399 62.7955 63.8688 66.8607 63.8688C70.9259 63.8688 74.9645 61.2399 74.9645 56.0392ZM45.6319 51.4973V45.9795H50.6244C53.0459 45.9795 54.1226 47.0557 54.1226 48.7292C54.1226 50.4027 53.0459 51.4789 50.6244 51.4789L45.6319 51.4973ZM48.9807 54.9631L53.8237 63.4515H58.3393L53.2854 54.5866C56.1266 53.5637 58.0711 51.6569 58.0711 48.4305C58.0711 44.8134 55.23 42.5117 50.6244 42.5117H41.6833V63.4331H45.6319V54.9446L48.9807 54.9631Z" fill="#101828"/>
</g>
<defs>
<clipPath id="clip0_3041_104">
<rect width="196" height="76" fill="white"/>
</clipPath>
</defs>
</svg>
