<svg viewBox="0 0 100 100" fill="none" xmlns="http://www.w3.org/2000/svg">
  <path d="M49.9566 99.7474L21.0973 91.7358L14.666 19.6028H85.3336L78.8957 91.7247L49.9566 99.7474Z" fill="#809AAD" />
  <path d="M73.3842 87.1321L78.8856 25.5005H50V93.615L73.3842 87.1321Z" fill="#809AAD" />
  <path
    d="M29.4098 52.2538L30.2026 61.1006H50.0001V52.2538H29.4098ZM27.8164 34.3477L28.6206 43.1945H50.0001V34.3477H27.8164ZM50.0001 75.2299L49.9613 75.2402L40.1087 72.5798L39.4787 65.5241H30.5978L31.8372 79.415L49.9593 84.4454L50.0001 84.4344V75.2299Z"
    fill="white" />
  <path
    d="M31.2979 0H42.0125V4.48089H35.7787V8.96177H42.0131V13.4424H31.2979V0ZM44.1557 0H54.8707V3.8964H48.6366V4.67562H54.8707V13.6374H44.156V9.54571H50.3901V8.76648H44.1555V0H44.1557ZM57.0139 0H67.7289V3.8964H61.4948V4.67562H67.7289V13.6374H57.0139V9.54571H63.248V8.76648H57.0142V0H57.0139Z"
    fill="#809AAD" />
  <path
    d="M70.5343 52.2538L72.1312 34.3477H49.97V43.1945H62.4359L61.6309 52.2538H49.97V61.1006H60.8639L59.8368 72.5743L49.9697 75.2374V84.4413L68.1063 79.415L68.2393 77.9202L70.3185 54.6294L70.5343 52.2538Z"
    fill="white" />
</svg>