<svg viewBox="0 0 100 100" fill="none" xmlns="http://www.w3.org/2000/svg">
  <mask id="mask0_498_107" style="mask-type:alpha" maskUnits="userSpaceOnUse" x="0" y="0">
    <path
      d="M50 0C77.6364 0 100 22.3636 100 50C100 77.6364 77.6364 100 50 100C22.3636 100 0 77.6364 0 50C0 22.3636 22.3636 0 50 0Z"
      fill="white" />
  </mask>
  <g mask="url(#mask0_498_107)">
    <g filter="url(#filter0_d_498_107)">
      <path
        d="M50 1.17188C76.9886 1.17188 98.8281 23.0114 98.8281 50C98.8281 76.9886 76.9886 98.8281 50 98.8281C23.0114 98.8281 1.17188 76.9886 1.17188 50C1.17188 23.0114 23.0114 1.17188 50 1.17188Z"
        fill="#809AAD" />
    </g>
    <path
      d="M50 1.17188C76.9886 1.17188 98.8281 23.0114 98.8281 50C98.8281 76.9886 76.9886 98.8281 50 98.8281C23.0114 98.8281 1.17188 76.9886 1.17188 50C1.17188 23.0114 23.0114 1.17188 50 1.17188Z"
      fill="white" />
    <path
      d="M49.9996 2.88513C76.0413 2.88513 97.1145 23.9583 97.1145 50C97.1145 76.0417 76.0413 97.1148 49.9996 97.1148C23.958 97.1148 2.88477 76.0417 2.88477 50C2.88477 23.9583 23.958 2.88513 49.9996 2.88513Z"
      fill="#809AAD" />
    <path
      d="M75.0134 70.7306C73.3001 76.0417 70.7302 79.9822 67.1323 82.8948C63.5345 85.8073 58.7373 87.3493 52.7409 87.8632L51.5416 79.9822C55.4821 79.4682 58.3947 78.6116 60.2793 77.241C60.9646 76.727 62.3352 75.1851 62.3352 75.1851L48.1151 29.6121H59.9366L68.1603 63.7062L76.898 29.6121H88.3769L75.0134 70.7306ZM33.7236 28.0702C36.4649 28.0702 39.0348 28.4128 41.0907 29.2695C43.3179 30.1261 45.3739 31.3254 47.4298 33.0387L42.6326 39.5491C41.262 38.5211 39.8914 37.8358 38.6921 37.3218C37.4928 36.8079 35.9509 36.6365 34.5803 36.6365C28.7552 36.6365 25.8426 41.091 25.8426 50.1713C25.8426 54.7972 26.5279 58.0524 28.0698 59.937C29.6118 61.9929 31.6677 62.8495 34.5803 62.8495C35.9509 62.8495 37.3215 62.6782 38.5208 62.1642C39.7201 61.6502 41.0907 60.9649 42.804 59.937L47.6011 66.79C43.6606 70.0452 39.2061 71.5872 34.0663 71.5872C29.9544 71.5872 26.5279 70.7306 23.444 69.0173C20.5315 67.304 18.1329 64.7341 16.591 61.4789C15.049 58.2237 14.1924 54.4545 14.1924 50C14.1924 45.7168 15.049 41.7763 16.591 38.5211C18.1329 35.0946 20.5315 32.5247 23.444 30.6401C26.3566 29.0982 29.7831 28.0702 33.7236 28.0702Z"
      fill="white" />
  </g>
  <defs>
    <filter id="filter0_d_498_107" x="-2.82812" y="-2.82812" width="105.656" height="105.656"
      filterUnits="userSpaceOnUse" color-interpolation-filters="sRGB">
      <feFlood flood-opacity="0" result="BackgroundImageFix" />
      <feColorMatrix in="SourceAlpha" type="matrix" values="0 0 0 0 0 0 0 0 0 0 0 0 0 0 0 0 0 0 127 0"
        result="hardAlpha" />
      <feOffset />
      <feGaussianBlur stdDeviation="2" />
      <feColorMatrix type="matrix" values="0 0 0 0 0 0 0 0 0 0 0 0 0 0 0 0 0 0 0.3 0" />
      <feBlend mode="normal" in2="BackgroundImageFix" result="effect1_dropShadow_498_107" />
      <feBlend mode="normal" in="SourceGraphic" in2="effect1_dropShadow_498_107" result="shape" />
    </filter>
  </defs>
</svg>