<svg viewBox="0 0 100 100" fill="none" xmlns="http://www.w3.org/2000/svg">
  <path
    d="M56.8471 40.8469H64.6877V48.8657H68.6564C70.5104 48.8574 72.3509 48.5493 74.1064 47.9532C75.0291 47.6477 75.9172 47.2465 76.7564 46.7563C75.6823 45.2702 75.0448 43.5135 74.9158 41.6844C74.5867 39.0153 75.2739 36.3201 76.8408 34.1344L77.6658 33.1813L78.6471 33.9719C81.2503 35.8809 83.014 38.7231 83.5689 41.9032C86.5961 40.9722 89.8686 41.2766 92.6721 42.7501L93.7502 43.375L93.1846 44.4813C92.0377 46.4159 90.3415 47.9658 88.3116 48.934C86.2817 49.9022 84.0098 50.245 81.7846 49.9188C74.9939 66.8344 60.2221 74.8438 42.2783 74.8438C37.8098 75.1097 33.3524 74.1645 29.3763 72.108C25.4003 70.0515 22.053 66.9599 19.6877 63.1594L19.6096 63.025L18.9033 61.5907C17.306 57.9669 16.6823 53.9888 17.0939 50.0501L17.2033 48.8625H23.9002V40.8469H31.7439V33.0032H47.4314V25.1594H56.8439V40.8469H56.8471Z"
    fill="#3A4E55" />
  <path
    d="M82.2623 43.8156C82.3161 42.0934 81.939 40.3851 81.1652 38.8456C80.3913 37.3061 79.2453 35.9843 77.8311 35C76.6063 36.7981 76.0286 38.959 76.1927 41.1284C76.3568 43.2978 77.2529 45.3472 78.7342 46.9406C75.8221 49.0987 72.2802 50.2375 68.6561 50.1813H18.3842C17.9527 54.193 18.6758 58.2446 20.4686 61.8594L21.0405 62.9062C21.4022 63.5203 21.7976 64.1139 22.2248 64.6844C24.2915 64.8177 26.1967 64.8646 27.9405 64.825C30.766 64.8424 33.578 64.4326 36.2811 63.6094C36.4323 63.5572 36.5981 63.5672 36.742 63.6372C36.8859 63.7072 36.9961 63.8316 37.0483 63.9828C37.1005 64.1341 37.0905 64.2999 37.0204 64.4438C36.9504 64.5876 36.8261 64.6978 36.6748 64.75C36.3936 64.8469 36.0998 64.9406 35.7967 65.025C33.9157 65.551 31.9819 65.8655 30.0311 65.9625C30.1686 65.9625 29.8873 65.9844 29.8873 65.9844L29.6311 66.0063C28.7217 66.0563 27.7561 66.0688 26.7405 66.0688C25.6436 66.0688 24.553 66.0469 23.3561 65.9875L23.3248 66.0094C25.7623 68.5446 28.7143 70.5284 31.9824 71.8275C35.2506 73.1265 38.759 73.7107 42.2717 73.5406C59.6467 73.5406 74.3842 65.8375 80.9123 48.5406C85.5436 49.0156 89.9936 47.8344 92.0155 43.8844C90.5055 43.1186 88.8384 42.7138 87.1454 42.7019C85.4524 42.69 83.7798 43.0712 82.2592 43.8156"
    fill="#00AADA" />
  <path
    d="M82.2627 43.8156C82.3165 42.0934 81.9394 40.3851 81.1655 38.8456C80.3917 37.3061 79.2457 35.9843 77.8314 35C76.6066 36.7981 76.029 38.959 76.1931 41.1284C76.3571 43.2978 77.2533 45.3472 78.7345 46.9406C75.8224 49.0987 72.2806 50.2375 68.6564 50.1813H21.3627C21.1048 52.9823 21.5753 55.8025 22.7283 58.3682C23.8814 60.934 25.6781 63.1581 27.9439 64.825C30.7695 64.8424 33.5815 64.4326 36.2845 63.6094C36.3594 63.5835 36.4387 63.5727 36.5178 63.5775C36.5969 63.5822 36.6742 63.6025 36.7455 63.6372C36.8167 63.6719 36.8804 63.7203 36.933 63.7796C36.9855 63.8389 37.0259 63.9079 37.0517 63.9828C37.0776 64.0577 37.0884 64.137 37.0837 64.2161C37.0789 64.2951 37.0586 64.3725 37.0239 64.4438C36.9892 64.515 36.9409 64.5787 36.8816 64.6313C36.8223 64.6838 36.7532 64.7241 36.6783 64.75C36.397 64.8469 36.1033 64.9406 35.8002 65.025C33.8688 65.5662 31.8841 65.8953 29.8814 66.0063L29.822 65.9375C35.7345 68.9719 44.3096 68.9594 54.1408 65.1844C65.3585 60.6522 75.172 53.2231 82.5783 43.6563L82.2658 43.8063"
    fill="#27B9EC" />
  <path
    d="M18.4785 55.4126C18.7747 57.6562 19.4477 59.8337 20.4691 61.8532L21.041 62.9C21.4028 63.5141 21.7982 64.1077 22.2254 64.6782C24.2921 64.8115 26.1973 64.8584 27.941 64.8188C30.7666 64.8362 33.5786 64.4264 36.2816 63.6032C36.3565 63.5773 36.4358 63.5665 36.5149 63.5712C36.594 63.576 36.6713 63.5963 36.7426 63.631C36.8138 63.6657 36.8775 63.714 36.9301 63.7733C36.9826 63.8326 37.023 63.9017 37.0488 63.9766C37.0747 64.0515 37.0855 64.1308 37.0808 64.2098C37.076 64.2889 37.0557 64.3663 37.021 64.4375C36.9863 64.5088 36.938 64.5725 36.8787 64.625C36.8194 64.6776 36.7503 64.7179 36.6754 64.7438C36.3941 64.8407 36.1004 64.9344 35.7973 65.0188C33.8681 65.5521 31.8867 65.8737 29.8879 65.9782H29.5754C28.666 66.0282 27.7004 66.0594 26.6941 66.0594C25.5973 66.0594 24.4785 66.0375 23.2566 65.9782C25.7016 68.5153 28.6606 70.5005 31.9352 71.801C35.2099 73.1015 38.7247 73.6872 42.2441 73.5188C57.1191 73.5188 70.0566 67.8719 77.5566 55.3938L18.4785 55.4126Z"
    fill="#088CB9" />
  <path
    d="M21.8125 55.4125C22.5704 59.219 24.765 62.5875 27.9406 64.8188C30.7662 64.8362 33.5782 64.4264 36.2812 63.6032C36.4325 63.551 36.5983 63.561 36.7422 63.631C36.8861 63.701 36.9962 63.8254 37.0484 63.9766C37.1007 64.1279 37.0906 64.2937 37.0206 64.4375C36.9506 64.5814 36.8263 64.6916 36.675 64.7438C36.3938 64.8407 36.1 64.9344 35.7969 65.0188C33.8579 65.5509 31.8673 65.8725 29.8594 65.9782C35.7719 69.0125 44.3219 68.9688 54.15 65.1907C60.2151 62.8022 65.8811 59.5039 70.9531 55.4094L21.8125 55.4125Z"
    fill="#039CC7" />
  <path
    d="M30.9031 42.7219H31.4406V48.3875H30.9031V42.7219ZM29.8719 42.7219H30.4313V48.3875H29.8719V42.7219ZM28.8406 42.7219H29.4V48.3875H28.8438V42.7219H28.8406ZM27.8094 42.7219H28.3688V48.3875H27.8125V42.7219H27.8094ZM26.7781 42.7219H27.3375V48.3875H26.7813V42.7219H26.7781ZM25.7688 42.7219H26.3063V48.3875H25.775V42.7219H25.7688ZM25.2031 42.1562H32V48.9563H25.2063V42.1562H25.2031Z"
    fill="#00ACD3" />
  <path
    d="M38.7498 34.8781H39.2873V40.5437H38.7498V34.8781ZM37.7186 34.8781H38.2779V40.5437H37.7186V34.8781ZM36.6873 34.8781H37.2467V40.5437H36.6873V34.8781ZM35.6561 34.8781H36.2154V40.5437H35.6561V34.8781ZM34.6248 34.8781H35.1811V40.5437H34.6248V34.8781ZM33.6154 34.8781H34.1529V40.5437H33.6154V34.8781ZM33.0498 34.3124H39.8498V41.1124H33.0529V34.3093L33.0498 34.3124Z"
    fill="#00ACD3" />
  <path
    d="M38.7498 42.7219H39.2873V48.3875H38.7498V42.7219ZM37.7186 42.7219H38.2779V48.3875H37.7186V42.7219ZM36.6873 42.7219H37.2467V48.3875H36.6873V42.7219ZM35.6561 42.7219H36.2154V48.3875H35.6561V42.7219ZM34.6248 42.7219H35.1811V48.3875H34.6248V42.7219ZM33.6154 42.7219H34.1529V48.3875H33.6154V42.7219ZM33.0498 42.1562H39.8498V48.9563H33.0529V42.1562H33.0498Z"
    fill="#26C2EE" />
  <path
    d="M46.5906 42.7219H47.1281V48.3875H46.5906V42.7219ZM45.5594 42.7219H46.1188V48.3875H45.5625V42.7219H45.5594ZM44.5281 42.7219H45.0875V48.3875H44.5313V42.7219H44.5281ZM43.4969 42.7219H44.0625V48.3875H43.5031V42.7219H43.4969ZM42.4656 42.7219H43.025V48.3875H42.4656V42.7219ZM41.4562 42.7219H41.9937V48.3875H41.4562V42.7219ZM40.8906 42.1562H47.6906V48.9563H40.8969V42.1562H40.8906Z"
    fill="#00ACD3" />
  <path
    d="M46.5906 34.8781H47.1281V40.5437H46.5906V34.8781ZM45.5594 34.8781H46.1188V40.5437H45.5625V34.8781H45.5594ZM44.5281 34.8781H45.0875V40.5437H44.5313V34.8781H44.5281ZM43.4969 34.8781H44.0625V40.5437H43.5031V34.8781H43.4969ZM42.4656 34.8781H43.025V40.5437H42.4656V34.8781ZM41.4562 34.8781H41.9937V40.5437H41.4562V34.8781ZM40.8906 34.3124H47.6906V41.1124H40.8969V34.3093L40.8906 34.3124Z"
    fill="#26C2EE" />
  <path
    d="M54.4375 42.7219H54.975V48.3875H54.4375V42.7219ZM53.4062 42.7219H53.9656V48.3875H53.4062V42.7219ZM52.375 42.7219H52.9344V48.3875H52.375V42.7219ZM51.3437 42.7219H51.9031V48.3875H51.3437V42.7219ZM50.3125 42.7219H50.8719V48.3875H50.3125V42.7219ZM49.3031 42.7219H49.8406V48.3875H49.3031V42.7219ZM48.75 42.1562H55.55V48.9563H48.75V42.1562Z"
    fill="#26C2EE" />
  <path
    d="M54.4373 34.8781H54.9748V40.5437H54.4373V34.8781ZM53.4061 34.8781H53.9654V40.5437H53.4061V34.8781ZM52.3748 34.8781H52.9342V40.5437H52.3748V34.8781ZM51.3436 34.8781H51.9029V40.5437H51.3436V34.8781ZM50.3123 34.8781H50.8717V40.5437H50.3123V34.8781ZM49.3029 34.8781H49.8404V40.5437H49.3029V34.8781ZM48.7373 34.3124H55.5373V41.1124H48.7498V34.3093L48.7373 34.3124Z"
    fill="#00ACD3" />
  <path
    d="M54.4375 27.0312H54.975V32.6968H54.4375V27.0312ZM53.4062 27.0312H53.9656V32.6968H53.4062V27.0312ZM52.375 27.0312H52.9344V32.6968H52.375V27.0312ZM51.3437 27.0312H51.9031V32.6968H51.3437V27.0312ZM50.3125 27.0312H50.8719V32.6968H50.3125V27.0312ZM49.3031 27.0312H49.8406V32.6968H49.3031V27.0312ZM48.75 26.4656H55.55V33.2656H48.75V26.4656Z"
    fill="#26C2EE" />
  <path
    d="M62.2811 42.7219H62.8123V48.3875H62.2811V42.7219ZM61.2498 42.7219H61.8061V48.3875H61.2498V42.7219ZM60.2186 42.7219H60.7779V48.3875H60.2186V42.7219ZM59.1873 42.7219H59.7467V48.3875H59.1873V42.7219ZM58.1561 42.7219H58.7154V48.3875H58.1561V42.7219ZM57.1467 42.7219H57.6842V48.3875H57.1467V42.7219ZM56.5811 42.1562H63.3811V48.9563H56.5842V42.1562H56.5811Z"
    fill="#00ACD3" />
  <path
    d="M39.4248 59.9781C39.7956 59.9781 40.1582 60.0881 40.4665 60.2941C40.7748 60.5002 41.0152 60.793 41.1571 61.1356C41.299 61.4782 41.3361 61.8552 41.2638 62.2189C41.1914 62.5827 41.0129 62.9168 40.7506 63.179C40.4884 63.4412 40.1543 63.6198 39.7906 63.6921C39.4269 63.7645 39.0499 63.7273 38.7073 63.5854C38.3647 63.4435 38.0718 63.2032 37.8658 62.8948C37.6598 62.5865 37.5498 62.224 37.5498 61.8531C37.5498 61.3559 37.7474 60.879 38.099 60.5273C38.4506 60.1757 38.9275 59.9781 39.4248 59.9781Z"
    fill="#D5EEF2" />
  <path
    d="M39.4251 60.5094C39.5918 60.5092 39.7571 60.5399 39.9126 60.6C39.8397 60.6423 39.7776 60.7009 39.731 60.7711C39.6845 60.8414 39.6549 60.9215 39.6444 61.0051C39.6339 61.0887 39.6429 61.1736 39.6707 61.2532C39.6984 61.3327 39.7442 61.4048 39.8044 61.4638C39.8646 61.5227 39.9376 61.567 40.0178 61.5931C40.0979 61.6191 40.183 61.6264 40.2663 61.6141C40.3497 61.6019 40.4292 61.5706 40.4984 61.5226C40.5677 61.4746 40.6249 61.4113 40.6657 61.3375C40.7762 61.6034 40.7983 61.8978 40.7289 62.1773C40.6594 62.4567 40.502 62.7065 40.2799 62.8897C40.0578 63.0729 39.7826 63.18 39.4951 63.195C39.2075 63.2101 38.9227 63.1324 38.6827 62.9733C38.4426 62.8143 38.26 62.5824 38.1617 62.3117C38.0635 62.041 38.0547 61.7459 38.1368 61.4699C38.219 61.1939 38.3876 60.9516 38.6178 60.7787C38.848 60.6057 39.1278 60.5114 39.4157 60.5094"
    fill="#3A4E55" />
  <path
    d="M6.2502 56.0906H93.5002C91.6002 55.6094 87.4908 54.9594 88.1658 52.4688C84.7127 56.4656 76.3814 55.2812 74.2783 53.3031C71.9377 56.7 58.3064 55.4094 57.3564 52.7625C54.4221 56.2 45.3252 56.2 42.3908 52.7625C41.4533 55.4094 27.8096 56.7 25.4689 53.3031C23.3658 55.275 15.0377 56.4656 11.5814 52.4688C12.2596 54.9687 8.14395 55.6094 6.24707 56.0906"
    fill="#3A4E55" />
  <path
    d="M44.4098 73.4937C40.5724 71.8582 37.4957 68.8318 35.7973 65.0219C33.7679 65.5601 31.6857 65.8745 29.5879 65.9594C28.6796 66.0094 27.7243 66.0354 26.7223 66.0375C25.5681 66.0375 24.3514 66.0031 23.0723 65.9344C25.5404 68.5044 28.533 70.5129 31.8466 71.8233C35.1601 73.1336 38.717 73.715 42.2754 73.5281C42.9921 73.5281 43.7035 73.5146 44.4098 73.4875"
    fill="#C0DBE1" />
  <path
    d="M37.5223 68.0406C36.8411 67.0989 36.2628 66.0868 35.7973 65.0219C33.7679 65.5601 31.6857 65.8745 29.5879 65.9594C32.0585 67.1981 34.7615 67.905 37.5223 68.0343"
    fill="#D5EEF2" />
</svg>