<svg viewBox="0 0 100 100" fill="none" xmlns="http://www.w3.org/2000/svg">
  <path d="M85.3335 19.6027L78.8955 91.7245L49.9565 99.7473L21.0972 91.7358L14.666 19.6027H85.3335Z" fill="#809AAD" />
  <path d="M50 93.6151L73.3841 87.1321L78.8858 25.5007H50V93.6151Z" fill="#809AAD" />
  <path
    d="M37.4849 43.1945H50.0001V34.3476H27.8164L28.0282 36.7211L30.2026 61.1005H50.0001V52.2538H38.2934L37.4849 43.1945Z"
    fill="white" />
  <path
    d="M39.4785 65.524H30.5977L31.8371 79.4148L49.9592 84.4456L49.9999 84.4343V75.2299L49.9611 75.2403L40.1083 72.5798L39.4785 65.524Z"
    fill="white" />
  <path d="M21.2412 0H25.737V4.44187H29.8497V0H34.3457V13.4511H29.8499V8.94687H25.7372V13.4511H21.2414V0H21.2412Z"
    fill="#809AAD" />
  <path d="M40.2578 4.46058H36.2998V0H48.7137V4.46058H44.754V13.4511H40.2579V4.46058H40.2578Z" fill="#809AAD" />
  <path
    d="M50.6836 0H55.3715L58.2552 4.72631L61.136 0H65.8257V13.4511H61.3484V6.78399L58.2552 11.5666H58.1779L55.0826 6.78399V13.4511H50.6836V0Z"
    fill="#809AAD" />
  <path d="M68.0635 0H72.5607V9.00492H78.8831V13.4511H68.0635V0Z" fill="#809AAD" />
  <path
    d="M49.9688 61.1005H60.8626L59.8358 72.5742L49.9688 75.2374V84.4414L68.1052 79.4149L68.2383 77.9202L70.3172 54.6294L70.5331 52.2538H49.9688V61.1005Z"
    fill="white" />
  <path d="M49.9688 43.1729V43.1945H71.3381L71.5155 41.206L71.9186 36.7211L72.1302 34.3476H49.9688V43.1729Z"
    fill="white" />
</svg>