<svg viewBox="0 0 100 100" fill="none" xmlns="http://www.w3.org/2000/svg">
  <path
    d="M84.6532 49.3312C84.6532 47.1714 83.7952 45.1 82.2679 43.5727C80.7407 42.0455 78.6693 41.1875 76.5094 41.1875C76.2235 41.1872 75.9376 41.2018 75.6532 41.2312L86.8407 8.23749H39.3001L50.4719 41.2031C50.3094 41.2031 50.1438 41.1875 49.9782 41.1875C48.0335 41.1853 46.1521 41.879 44.6745 43.1433C43.1968 44.4076 42.2203 46.159 41.9217 48.0807C41.6231 50.0023 42.022 51.9674 43.0463 53.6206C44.0706 55.2737 45.6526 56.5057 47.5063 57.0937C45.774 60.0764 43.617 62.7913 41.1032 65.1531C37.8309 68.2813 33.9432 70.6939 29.6876 72.2375C27.3032 71.1075 25.4384 69.1122 24.472 66.657C23.5056 64.2018 23.51 61.4708 24.4844 59.0187C24.7251 58.4562 24.9688 57.8875 25.2001 57.3187C27.0158 56.8911 28.6299 55.8533 29.7724 54.3787C30.915 52.9041 31.5169 51.082 31.4776 49.217C31.4382 47.3519 30.76 45.5569 29.5562 44.1318C28.3525 42.7066 26.6961 41.7378 24.8639 41.3872C23.0317 41.0365 21.1347 41.3252 19.4898 42.2052C17.8449 43.0851 16.5517 44.5028 15.8265 46.2215C15.1013 47.9402 14.9878 49.8558 15.5052 51.6481C16.0225 53.4404 17.1392 55.0008 18.6688 56.0687C16.0693 60.7822 14.0854 65.8097 12.7657 71.0281C11.6594 77.7 12.7657 84.7781 18.5313 88.7812C31.9688 98.0969 46.5594 83.0062 61.9407 79.2156C67.5157 77.8406 73.6344 78.0625 78.5438 75.2187C80.3175 74.2086 81.847 72.8203 83.0238 71.1525C84.2007 69.4848 84.9959 67.5784 85.3532 65.5687C85.6798 63.6538 85.6183 61.6927 85.1722 59.802C84.7261 57.9112 83.9045 56.1295 82.7563 54.5625C83.9814 53.0984 84.6519 51.2497 84.6501 49.3406L84.6532 49.3312ZM58.1251 49.375V49.3469C58.1274 47.9454 57.7672 46.5672 57.0794 45.3461C56.3917 44.125 55.3997 43.1026 54.2001 42.3781L63.0876 24.375L71.9938 42.5437C70.8765 43.2862 69.9604 44.2938 69.3273 45.4765C68.6942 46.6593 68.3639 47.9804 68.3657 49.3219C68.3657 49.3812 68.3657 49.4406 68.3657 49.5L58.1251 49.375Z"
    fill="#809AAD" />
  <path
    d="M86.6436 49.3312C86.6405 46.9699 85.8139 44.6837 84.3063 42.8663C82.7986 41.0489 80.7044 39.8142 78.3843 39.375L89.6155 6.25H36.528L47.778 39.4406C45.814 39.8796 44.0253 40.8938 42.6401 42.3537C41.2549 43.8136 40.3361 45.653 40.0008 47.6374C39.6655 49.6217 39.9289 51.6609 40.7575 53.4949C41.5861 55.3289 42.9423 56.8744 44.653 57.9344C43.2398 60.0339 41.5962 61.9688 39.753 63.7031C36.8998 66.4329 33.5469 68.5868 29.878 70.0469C28.1562 69.0474 26.851 67.4623 26.2005 65.5807C25.55 63.6991 25.5974 61.6464 26.3343 59.7969L26.4593 59.5062L26.6905 58.9594C28.7733 58.2373 30.564 56.8562 31.7916 55.0252C33.0191 53.1942 33.6166 51.0131 33.4935 48.8122C33.3705 46.6112 32.5336 44.5103 31.1096 42.8276C29.6856 41.1448 27.752 39.972 25.6018 39.4865C23.4515 39.0011 21.2016 39.2296 19.1928 40.1374C17.184 41.0451 15.5257 42.5828 14.469 44.5174C13.4124 46.452 13.0149 48.6783 13.3368 50.8591C13.6587 53.0398 14.6825 55.0563 16.253 56.6031C15.9155 57.325 15.5593 58.0563 15.1936 58.8094C13.1675 62.5348 11.6937 66.5349 10.8186 70.6844C9.36551 79.4344 11.7093 86.4437 17.4155 90.3969C20.4788 92.5874 24.1527 93.7603 27.9186 93.75C34.5811 93.75 41.3218 90.4031 47.9186 87.1281C52.5278 84.6214 57.3906 82.6122 62.4249 81.1344C64.228 80.6906 66.0843 80.4219 68.0499 80.1375C72.0544 79.8175 75.9593 78.7267 79.5499 76.925C81.5747 75.7684 83.3205 74.1807 84.6636 72.2744C86.0066 70.3681 86.9141 68.1898 87.3218 65.8938C87.9857 61.993 87.2189 57.9836 85.1624 54.6031C86.1352 53.0158 86.649 51.1899 86.6468 49.3281L86.6436 49.3312ZM82.6655 49.3312C82.6655 50.5488 82.3045 51.7391 81.628 52.7515C80.9515 53.7639 79.9901 54.5529 78.8652 55.0189C77.7402 55.4848 76.5024 55.6068 75.3082 55.3692C74.114 55.1317 73.0171 54.5453 72.1561 53.6844C71.2952 52.8234 70.7088 51.7265 70.4713 50.5323C70.2338 49.3381 70.3557 48.1003 70.8216 46.9754C71.2876 45.8504 72.0766 44.889 73.089 44.2125C74.1014 43.5361 75.2917 43.175 76.5093 43.175C78.1415 43.1767 79.7064 43.8258 80.8606 44.9799C82.0147 46.1341 82.6638 47.699 82.6655 49.3312ZM84.0624 10.2281L74.1436 39.4781C73.7189 39.5809 73.3013 39.7114 72.8936 39.8688L63.0968 19.8687L53.2686 39.75C52.8407 39.6017 52.4033 39.4827 51.9593 39.3937L42.0749 10.2281H84.0624ZM49.978 43.175C51.1956 43.175 52.3858 43.5361 53.3982 44.2125C54.4106 44.889 55.1997 45.8504 55.6656 46.9754C56.1316 48.1003 56.2535 49.3381 56.016 50.5323C55.7784 51.7265 55.1921 52.8234 54.3311 53.6844C53.4702 54.5453 52.3732 55.1317 51.179 55.3692C49.9848 55.6068 48.747 55.4848 47.6221 55.0189C46.4972 54.5529 45.5357 53.7639 44.8593 52.7515C44.1828 51.7391 43.8218 50.5488 43.8218 49.3312C43.8234 47.699 44.4725 46.1341 45.6267 44.9799C46.7809 43.8258 48.3458 43.1767 49.978 43.175ZM23.3468 43.2344C24.5649 43.235 25.7554 43.597 26.7678 44.2745C27.7801 44.952 28.5686 45.9146 29.0336 47.0405C29.4987 48.1664 29.6192 49.4049 29.38 50.5993C29.1409 51.7937 28.5528 52.8904 27.6901 53.7504C26.8274 54.6104 25.729 55.1952 24.5339 55.4307C23.3388 55.6662 22.1006 55.5419 20.9762 55.0735C19.8517 54.605 18.8915 53.8135 18.2171 52.7992C17.5426 51.7848 17.1843 50.5931 17.1874 49.375C17.189 47.7428 17.8382 46.1779 18.9923 45.0237C20.1465 43.8695 21.7114 43.2204 23.3436 43.2188L23.3468 43.2344ZM83.3999 65.2156C83.091 66.9382 82.4071 68.5718 81.3967 70.0007C80.3863 71.4297 79.0741 72.6189 77.553 73.4844C74.397 75.0167 70.9797 75.9381 67.4811 76.2C65.5061 76.4844 63.4655 76.7781 61.4686 77.2719C56.1528 78.8112 51.0189 80.9203 46.1561 83.5625C36.2686 88.4719 27.7186 92.7125 19.6811 87.1344C13.7843 83.0469 14.0561 75.4844 14.7436 71.3406C15.5527 67.5697 16.902 63.9353 18.7499 60.55C19.0374 59.9594 19.3186 59.3781 19.5936 58.8031C20.4331 59.1387 21.3139 59.3594 22.2124 59.4594C21.417 62.2687 21.6393 65.2686 22.8399 67.93C24.0405 70.5914 26.1424 72.7433 28.7749 74.0062L29.5405 74.4L30.3499 74.1125C34.8645 72.483 38.9891 69.9284 42.4593 66.6125C44.7515 64.4562 46.765 62.0217 48.453 59.3656C50.6128 59.6941 52.8209 59.3155 54.7478 58.2862C56.6747 57.257 58.2172 55.6323 59.1451 53.6545C60.073 51.6768 60.3366 49.452 59.8965 47.3122C59.4563 45.1724 58.3361 43.2322 56.703 41.7812L63.0718 28.9031L69.5061 42.0281C67.6754 43.7925 66.5755 46.181 66.4249 48.7191C66.2744 51.2572 67.0843 53.759 68.6936 55.7273C70.303 57.6957 72.594 58.9866 75.1114 59.3434C77.6287 59.7001 80.1882 59.0968 82.2811 57.6531C83.4416 59.9954 83.83 62.6451 83.3905 65.2219L83.3999 65.2156Z"
    fill="white" />
</svg>