<svg viewBox="0 0 100 100" fill="none" xmlns="http://www.w3.org/2000/svg">
  <path d="M0 0H100V100H0V0Z" fill="#BECFD5" />
  <path
    d="M26.2934 83.5672L33.9457 78.936C35.4223 81.5536 36.7652 83.7684 39.9867 83.7684C43.0746 83.7684 45.0219 82.5606 45.0219 77.8622V45.9098H54.4191V77.995C54.4191 87.7282 48.7137 92.1586 40.3895 92.1586C32.8719 92.1586 28.5082 88.2653 26.293 83.5664L26.2934 83.5672ZM59.5234 82.5602L67.175 78.1301C69.1895 81.4196 71.8074 83.836 76.4387 83.836C80.3328 83.836 82.8156 81.8891 82.8156 79.2039C82.8156 75.9821 80.2648 74.8407 75.9688 72.9618L73.6199 71.954C66.8398 69.0684 62.3426 65.4434 62.3426 57.7911C62.3426 50.7426 67.7125 45.3723 76.1035 45.3723C82.0777 45.3723 86.3738 47.4536 89.4613 52.8907L82.1441 57.5899C80.5328 54.7036 78.7883 53.5625 76.1031 53.5625C73.3508 53.5625 71.6055 55.3079 71.6055 57.5899C71.6055 60.409 73.3508 61.5508 77.3781 63.2961L79.7273 64.3028C87.7156 67.7266 92.2129 71.2168 92.2129 79.07C92.2129 87.5286 85.5676 92.1598 76.6398 92.1598C67.9137 92.1598 62.275 87.9981 59.523 82.5606"
    fill="#809AAD" />
</svg>