<svg viewBox="0 0 100 100" fill="none" xmlns="http://www.w3.org/2000/svg">
  <g clip-path="url(#clip0_503_224)">
    <path
      d="M100 92.3412V7.65883C100 4.18488 97.6869 1.25301 94.5171 0.315308L90.9175 2.46914L50.9705 45.0617L49.7181 48.9763L48.9863 52.7337L61.4432 99.2885L63.3706 100H92.3418C96.5715 100 100 96.5711 100 92.3412Z"
      fill="#EA6618" />
    <path
      d="M0 7.65885V92.3413C0 94.96 1.31508 97.2706 3.31997 98.6517L5.77632 97.4755L48.0599 52.2046L49.7176 48.9763L49.7795 45.8554L38.2716 2.07234L36.529 0.00012207H7.65873C3.42897 0.00012207 0 3.42909 0 7.65885Z"
      fill="#D65813" />
    <path
      d="M49.7178 48.9762L94.5169 0.315405C93.827 0.111304 93.0974 6.10352e-05 92.3415 6.10352e-05H36.5293L49.7178 48.9762Z"
      fill="#E05E11" />
    <path d="M7.65907 100H63.3704L49.7178 48.9762L3.32031 98.6517C4.55378 99.5014 6.04796 100 7.65907 100Z"
      fill="#DE5C16" />
    <path
      d="M37.0769 37.9021H42.6337C44.8476 46.2562 47.3674 53.5869 50.1786 60.2012C53.363 52.7595 55.6972 45.4239 57.6729 37.9021H62.9236C60.572 47.2483 56.7253 56.6677 52.3253 66.3903H47.6809C43.4544 57.1768 39.8563 47.7041 37.0769 37.9021ZM18.7488 23.4276H31.1045V76.4109H18.6943V72.3267H26.3002V27.403H18.7488V23.4276ZM81.3147 27.403H73.7632V72.3267H81.369V76.411H68.959V23.4277H81.3147V27.403Z"
      fill="white" />
  </g>
  <defs>
    <clipPath id="clip0_503_224">
      <rect fill="white" />
    </clipPath>
  </defs>
</svg>