<svg viewBox="0 0 100 100" fill="none" xmlns="http://www.w3.org/2000/svg">
  <path
    d="M50 100C77.6142 100 100 77.6142 100 50C100 22.3858 77.6142 0 50 0C22.3858 0 0 22.3858 0 50C0 77.6142 22.3858 100 50 100Z"
    fill="#809AAD" />
  <path
    d="M63.3653 43.8906C60.2071 29.9521 52.7433 25.3691 51.9395 23.6182C51.0606 22.3828 50.17 20.1855 50.17 20.1855C50.1554 20.1484 50.1319 20.083 50.1046 20.0195C50.0138 21.2549 49.9669 21.7314 48.7989 22.9775C46.9903 24.3916 37.711 32.1777 36.9562 48.0137C36.2521 62.7832 47.6251 71.584 49.1632 72.7061L49.338 72.8301V72.8193C49.3478 72.8936 49.8263 76.335 50.1622 79.9814H51.3673C51.65 77.4039 52.0738 74.8437 52.6368 72.3125L52.7345 72.249C53.4225 71.7557 54.0784 71.2192 54.6983 70.6426L54.7686 70.5791C58.0382 67.5586 63.9161 60.5723 63.8585 49.4336C63.8463 47.5755 63.6814 45.7216 63.3653 43.8906ZM50.0343 64.3672C50.0343 64.3672 50.0343 43.6523 50.7179 43.6562C51.2511 43.6562 51.9415 70.376 51.9415 70.376C50.9923 70.2617 50.0343 65.9785 50.0343 64.3672Z"
    fill="white" />
</svg>