<svg viewBox="0 0 100 100" fill="none" xmlns="http://www.w3.org/2000/svg">
  <path
    d="M58.8811 0.195312C58.158 0.195312 57.4866 0.350268 56.8668 0.556864C58.1839 1.43492 58.907 2.59706 59.2685 3.91414C59.2944 4.09491 59.346 4.22404 59.3719 4.40481C59.3978 4.55976 59.4235 4.71471 59.4235 4.86967C59.5268 7.14228 58.8295 7.42635 58.3388 8.76926C57.5899 10.4996 57.7965 12.359 58.7004 13.8568C58.7779 14.0376 58.8811 14.2442 59.0103 14.425C58.0289 7.89121 63.478 6.90985 64.4852 4.86967C64.5627 3.08773 63.0906 1.89977 61.9285 1.07337C60.818 0.401914 59.8108 0.195312 58.8811 0.195312ZM67.0935 1.66735C66.9902 2.26132 67.0677 2.10637 67.0419 2.41628C67.0161 2.62287 67.0161 2.88113 66.9903 3.08773C66.9387 3.29433 66.887 3.50093 66.8095 3.70754C66.7579 3.91414 66.6804 4.12074 66.603 4.32733C66.4996 4.53395 66.4222 4.71471 66.3189 4.92132C66.2414 5.02466 66.1898 5.12791 66.1123 5.23122C66.0607 5.3087 66.0089 5.38617 65.9573 5.46365C65.8282 5.64443 65.6991 5.8252 65.5699 5.98015C65.415 6.1351 65.2859 6.31587 65.1051 6.44501C65.1051 6.47086 65.1051 6.47086 65.1051 6.47086C64.9501 6.59999 64.7952 6.75494 64.6144 6.88406C64.0721 7.29726 63.4523 7.60716 62.8841 7.99454C62.7034 8.12367 62.5226 8.22698 62.3676 8.38192C62.1869 8.51105 62.0319 8.64017 61.877 8.79512C61.6962 8.95007 61.567 9.10503 61.4121 9.28581C61.283 9.44076 61.128 9.62153 61.0247 9.80231C60.8956 9.98308 60.7665 10.1639 60.6632 10.3446C60.5598 10.5512 60.4824 10.732 60.3791 10.9386C60.3016 11.1452 60.2241 11.326 60.1725 11.5326C60.095 11.765 60.0434 11.9716 59.9917 12.1782C59.9659 12.2816 59.9659 12.4106 59.9401 12.5139C59.9142 12.6173 59.9142 12.7205 59.8885 12.8239C59.8885 13.0304 59.8626 13.2629 59.8626 13.4695C59.8626 13.6244 59.8626 13.7794 59.8885 13.9343C59.8885 14.1409 59.9143 14.3475 59.966 14.58C59.9918 14.7866 60.0434 14.9932 60.0951 15.1998C60.1726 15.4064 60.2242 15.613 60.3017 15.8196C60.3533 15.9487 60.4308 16.0778 60.4825 16.1811L54.5427 13.8827C53.5355 13.5986 52.5542 13.3404 51.547 13.1079C51.0046 12.9788 50.4623 12.8497 49.92 12.7205C48.3705 12.4106 46.7952 12.1782 45.2198 12.0233C45.1682 12.0233 45.1423 11.9974 45.0907 11.9974C43.5412 11.8425 42.0175 11.765 40.468 11.765C39.3317 11.765 38.1954 11.8166 37.0849 11.8941C35.5095 11.9975 33.9342 12.204 32.3589 12.4623C31.9715 12.5139 31.5841 12.5914 31.1967 12.6689C30.3962 12.8238 29.6214 13.0046 28.8725 13.1854C28.4851 13.2887 28.0977 13.392 27.7103 13.4953C27.323 13.6502 26.9614 13.831 26.5999 13.986C26.3158 14.1151 26.0317 14.2442 25.7476 14.3733C25.696 14.3992 25.6443 14.3992 25.6185 14.4249C25.3603 14.5541 25.1278 14.6574 24.8954 14.7865C24.8179 14.8124 24.7663 14.8381 24.7146 14.864C24.4306 14.9931 24.1465 15.148 23.9141 15.2772C23.7333 15.3546 23.5525 15.4579 23.3976 15.5354C23.3201 15.587 23.2168 15.6388 23.1651 15.6645C22.9327 15.7937 22.7003 15.9228 22.4937 16.0519C22.2612 16.181 22.0546 16.3102 21.8739 16.4393C21.6931 16.5684 21.5123 16.6717 21.3574 16.8008C21.3315 16.8267 21.3057 16.8267 21.2799 16.8525C21.1249 16.9558 20.9442 17.0849 20.7892 17.214C20.7892 17.214 20.7633 17.2399 20.7376 17.2656C20.6085 17.369 20.4793 17.4722 20.3502 17.5755C20.2986 17.6014 20.2469 17.653 20.1953 17.6789C20.0661 17.7822 19.937 17.9113 19.8079 18.0146C19.782 18.0662 19.7304 18.0921 19.7046 18.1179C19.5496 18.2729 19.3947 18.402 19.2397 18.557C19.2138 18.557 19.2138 18.5828 19.1881 18.6086C19.0331 18.7377 18.8782 18.8926 18.7232 19.0476C18.6974 19.0735 18.6974 19.0992 18.6716 19.0992C18.5425 19.2283 18.4134 19.3575 18.2842 19.5124C18.2326 19.564 18.1551 19.6158 18.1035 19.6674C17.9744 19.8223 17.8194 19.9773 17.6644 20.1322C17.6386 20.1838 17.587 20.2097 17.5611 20.2613C17.3545 20.468 17.1737 20.6745 16.9671 20.8811C16.9413 20.907 16.9155 20.9328 16.8897 20.9586C16.4764 21.3977 16.0374 21.8367 15.5726 22.2241C15.1077 22.6373 14.617 23.0246 14.1264 23.3604C13.6099 23.7219 13.1192 24.0318 12.5768 24.3417C12.0603 24.6258 11.518 24.884 10.9499 25.1165C10.4075 25.3489 9.83938 25.5555 9.27123 25.7363C8.18657 25.9687 7.07609 26.4077 6.12056 26.4852C5.91396 26.4852 5.68153 26.5368 5.47493 26.5627C5.2425 26.6143 5.0359 26.666 4.82931 26.7176C4.62271 26.7951 4.4161 26.8726 4.2095 26.9501C4.0029 27.0275 3.7963 27.1308 3.5897 27.2341C3.40892 27.3633 3.20232 27.4666 3.02154 27.5957C2.84077 27.7248 2.65999 27.8798 2.50504 28.0347C2.32427 28.1638 2.14349 28.3446 1.98853 28.4996C1.83358 28.6803 1.67863 28.8353 1.54951 29.0161C1.42038 29.2227 1.26543 29.4034 1.16213 29.61C1.033 29.7908 0.903881 29.9974 0.800576 30.204C0.697234 30.4365 0.593977 30.643 0.516501 30.8755C0.439025 31.0821 0.361549 31.3145 0.284073 31.5469C0.232463 31.7535 0.180732 31.9601 0.154951 32.1667C0.154951 32.1926 0.129086 32.2183 0.129086 32.2442C0.0774755 32.4766 0.0774755 32.7865 0.0516096 32.9415C0.0257447 33.1223 0 33.2772 0 33.458C0 33.5613 0 33.6904 0.0258649 33.7937C0.0517298 33.9745 0.0774744 34.1295 0.129207 34.2844C0.180817 34.4393 0.232549 34.5943 0.309976 34.7493C0.309976 34.7751 0.309976 34.7751 0.309976 34.7751C0.387452 34.9301 0.490757 35.085 0.594051 35.24C0.697393 35.3949 0.800662 35.5499 0.929784 35.7048C1.05891 35.834 1.21386 35.9889 1.36881 36.118C1.52376 36.273 1.67872 36.4021 1.85948 36.5312C2.47929 37.0736 2.63424 37.2543 3.43482 37.6675C3.56394 37.745 3.69308 37.7967 3.84803 37.8741C3.8739 37.8741 3.89964 37.9 3.92551 37.9C3.92551 37.9516 3.92551 37.9775 3.95138 38.0291C3.97724 38.2357 4.02885 38.4423 4.0805 38.6489C4.13211 38.8814 4.20963 39.088 4.28711 39.2687C4.36459 39.4237 4.41623 39.5786 4.49371 39.7336C4.51958 39.7852 4.54532 39.8369 4.57119 39.8627C4.67453 40.0693 4.77778 40.2501 4.88108 40.4309C5.01021 40.6116 5.13933 40.7924 5.26846 40.9732C5.39758 41.1282 5.55253 41.3089 5.70748 41.4639C5.86244 41.6188 6.01739 41.748 6.19817 41.9029C6.19817 41.9029 6.22404 41.9288 6.24978 41.9288C6.40473 42.0579 6.55968 42.1871 6.71464 42.2903C6.89541 42.4195 7.07619 42.5228 7.28278 42.6261C7.46357 42.7294 7.67017 42.8327 7.87676 42.9102C8.03172 42.9876 8.21249 43.0393 8.39327 43.0909C8.41914 43.1168 8.44488 43.1168 8.49661 43.1426C8.59995 43.1684 8.72902 43.1942 8.83233 43.22C8.75486 44.6146 8.72899 45.9317 8.93567 46.3965C9.16809 46.913 10.3044 45.3377 11.4407 43.5299C11.2858 45.3119 11.1825 47.4037 11.4407 48.0235C11.7248 48.6691 13.2743 46.6548 14.6172 44.4338C32.9272 40.1985 49.6361 52.8528 51.3922 70.7238C51.0565 67.9347 47.6217 66.3852 46.0464 66.7726C45.2717 68.6836 43.9546 71.137 41.8369 72.6607C42.0177 70.9562 41.9403 69.2001 41.5787 67.4957C41.0105 69.8716 39.9 72.0925 38.3763 74.0036C35.923 74.1844 33.4696 72.9964 32.1783 71.2145C32.075 71.137 32.0492 70.9821 31.9717 70.8788C31.8942 70.698 31.8167 70.5172 31.7651 70.3364C31.6876 70.1556 31.636 69.9749 31.6101 69.7941C31.5843 69.6133 31.5843 69.4325 31.5843 69.226C31.5843 69.0968 31.5843 68.9677 31.5843 68.8386C31.6101 68.6578 31.6618 68.477 31.7134 68.2962C31.765 68.1155 31.8167 67.9347 31.8942 67.7539C31.9975 67.5731 32.075 67.3924 32.2041 67.2116C32.6431 65.972 32.6431 64.9648 31.8425 64.3708C31.6876 64.2675 31.5326 64.19 31.3518 64.1126C31.2485 64.0867 31.1194 64.0351 31.0161 64.0092C30.9387 63.9834 30.887 63.9576 30.8095 63.9317C30.6287 63.8801 30.448 63.8284 30.2672 63.8026C30.0864 63.751 29.9056 63.7251 29.7249 63.7251C29.5441 63.6992 29.3375 63.6735 29.1567 63.6735C29.0276 63.6735 28.8985 63.6994 28.7693 63.6994C28.5627 63.6994 28.382 63.7253 28.2012 63.7769C28.0204 63.8028 27.8396 63.8285 27.6589 63.8802C27.4781 63.9318 27.2973 63.9835 27.1165 64.061C26.9358 64.1385 26.7808 64.2159 26.6 64.2934C26.4451 64.3709 26.2901 64.4742 26.1093 64.5517C20.0921 68.4771 23.6818 77.6708 27.788 80.3308C26.2385 80.6149 24.6631 80.9506 24.2241 81.2864C24.1982 81.3122 24.1725 81.338 24.1725 81.338C25.283 82.0094 26.4451 82.5776 27.6589 83.0682C29.3117 83.6106 31.0678 84.1013 31.8426 84.3079V84.3337C33.9861 84.7728 36.1554 84.9277 38.3505 84.7986C49.7911 83.998 59.1656 75.2949 60.8701 63.8286C60.9217 64.061 60.9734 64.2676 61.025 64.5C61.1025 64.9649 61.2058 65.4555 61.2574 65.9462C61.2574 65.9462 61.2574 65.9462 61.2574 65.9721C61.309 66.2045 61.3349 66.437 61.3608 66.6436C61.3608 66.6952 61.3608 66.721 61.3608 66.7469C61.3867 66.9793 61.4124 67.2118 61.4124 67.4184C61.4382 67.7024 61.464 67.9865 61.464 68.2706C61.464 68.3997 61.464 68.5288 61.464 68.6838C61.464 68.8129 61.4898 68.9679 61.4898 69.097C61.4898 69.252 61.464 69.4069 61.464 69.5618C61.464 69.691 61.464 69.8201 61.464 69.9234C61.464 70.1042 61.4381 70.2591 61.4381 70.4399C61.4381 70.5432 61.4381 70.6465 61.4122 70.7756C61.4122 70.9564 61.3864 71.1372 61.3864 71.3438C61.3605 71.4212 61.3605 71.4987 61.3605 71.5762C61.3346 71.7828 61.3089 71.9636 61.283 72.1702C61.283 72.2477 61.283 72.3251 61.2571 72.4026C61.2312 72.6609 61.1797 72.8933 61.1538 73.1515V73.1774V73.2033C61.1022 73.4357 61.0505 73.694 60.9988 73.9264C60.9988 73.9522 60.9988 73.978 60.9988 74.0039C60.9472 74.2363 60.8955 74.4687 60.8439 74.7011C60.8439 74.727 60.818 74.7786 60.818 74.8045C60.7664 75.0369 60.7147 75.2693 60.6373 75.5018C60.6373 75.5276 60.6373 75.5534 60.6373 75.5792C60.5598 75.8375 60.4823 76.0699 60.4307 76.3023C60.4048 76.3282 60.4048 76.354 60.4048 76.354C60.3273 76.6122 60.2499 76.8705 60.1724 77.1287C60.069 77.387 59.9916 77.6194 59.8883 77.8776C59.785 78.1359 59.7075 78.3941 59.6042 78.6266C59.5009 78.8848 59.3976 79.1173 59.2943 79.3755H59.2684C59.1651 79.6079 59.0618 79.8662 58.9327 80.0986C58.9068 80.1761 58.8811 80.2277 58.8552 80.2794C58.8294 80.3053 58.8294 80.331 58.8036 80.3569C57.125 83.7399 54.6458 86.7098 51.5468 89.0341C51.3402 89.1632 51.1335 89.3182 50.927 89.4731C50.8753 89.5247 50.7978 89.5506 50.7462 89.6022C50.5654 89.7314 50.3846 89.8605 50.178 89.9896L50.2555 90.1446H50.2814C50.6429 90.093 51.0045 90.0413 51.366 89.9896H51.3919C52.0633 89.8863 52.7348 89.7572 53.4062 89.6281C53.587 89.6022 53.7936 89.5506 53.9744 89.4989C54.1035 89.4731 54.2068 89.4473 54.3359 89.4215C54.5167 89.3956 54.6975 89.344 54.8783 89.3181C55.0332 89.2665 55.1882 89.2407 55.3431 89.189C57.9256 88.5692 60.4307 87.717 62.8324 86.7098C58.7262 92.3138 53.2255 96.8333 46.795 99.8031C49.7649 99.5965 52.7348 99.1059 55.6014 98.2795C66.0089 95.2063 74.7636 88.2076 80.0061 78.7815C78.9473 84.7471 76.5714 90.4286 73.0592 95.387C75.5642 93.7342 77.8626 91.8232 79.9545 89.6539C85.7393 83.6108 89.5356 75.9407 90.8269 67.7025C91.7049 71.7829 91.9632 75.9924 91.5758 80.1502C110.222 54.1443 93.1253 27.1828 85.9718 20.0809C85.9459 20.0293 85.9201 20.0034 85.9201 19.9518C85.8942 19.9776 85.8942 19.9776 85.8942 20.0034C85.8942 19.9775 85.8942 19.9775 85.8684 19.9518C85.8684 20.2617 85.8425 20.5716 85.8168 20.8815C85.7393 21.4755 85.6618 22.0436 85.5585 22.6118C85.4294 23.1799 85.2744 23.7481 85.1195 24.3162C84.9387 24.8585 84.7321 25.4267 84.4997 25.969C84.2673 26.4855 84.009 27.0279 83.7249 27.5444C83.4409 28.0351 83.131 28.5516 82.7952 29.0164C82.4595 29.5071 82.098 29.9719 81.7364 30.411C81.349 30.8758 80.9358 31.289 80.5226 31.7022C80.2644 31.9346 80.0319 32.1412 79.7737 32.3478C79.5671 32.5286 79.3863 32.6836 79.1797 32.8643C78.7149 33.2259 78.25 33.5616 77.7335 33.8715C77.2428 34.1814 76.7263 34.4913 76.2098 34.7496C75.6675 35.0078 75.1252 35.2403 74.5828 35.4727C74.0405 35.6793 73.4724 35.8601 72.9042 36.015C72.336 36.17 71.7421 36.2991 71.1739 36.4024C70.5799 36.5057 69.986 36.5573 69.4178 36.609C69.0046 36.6349 68.5914 36.6606 68.1782 36.6606C67.5842 36.6606 66.9902 36.609 66.4221 36.5573C65.8281 36.5057 65.2341 36.4281 64.666 36.299C64.072 36.1957 63.5038 36.0408 62.9357 35.86H62.9098C63.478 35.8084 64.0461 35.7566 64.6143 35.6534C65.2083 35.55 65.7764 35.421 66.3446 35.266C66.9127 35.1111 67.4809 34.9303 68.0232 34.7237C68.5914 34.5171 69.1337 34.2588 69.6502 34.0006C70.1925 33.7423 70.6832 33.4582 71.1997 33.1483C71.6904 32.8126 72.1811 32.4769 72.6459 32.1153C73.1108 31.7538 73.5498 31.3664 73.963 30.9532C74.402 30.5658 74.7894 30.1268 75.1768 29.6878C75.5641 29.2229 75.9257 28.7581 76.2614 28.2932C76.313 28.2157 76.3648 28.1124 76.4164 28.035C76.6746 27.6218 76.9329 27.2086 77.1653 26.7954C77.4494 26.2788 77.7076 25.7623 77.9401 25.22C78.1725 24.6777 78.3791 24.1354 78.5599 23.5672C78.7406 23.0249 78.8698 22.4567 78.9989 21.8886C79.1022 21.2946 79.2055 20.7264 79.2572 20.1583C79.3088 19.5643 79.3605 18.9703 79.3605 18.4022C79.3605 17.989 79.3346 17.5758 79.3089 17.1626C79.2573 16.5686 79.1798 16.0004 79.1023 15.4323C78.9989 14.8383 78.8699 14.2702 78.7149 13.702C78.5341 13.1597 78.3533 12.5915 78.1468 12.0492C77.9401 11.5069 77.6819 10.9645 77.4236 10.448C77.1396 9.93153 76.8555 9.41503 76.5456 8.92436C76.2099 8.43369 75.8741 7.96883 75.5126 7.50397C75.1252 7.06494 74.7378 6.62592 74.3246 6.18689C74.118 5.98029 73.8856 5.74786 73.6532 5.54127C72.491 4.63738 71.2773 3.78515 70.0635 3.0104C69.8827 2.90706 69.7278 2.82962 69.547 2.75214C68.6947 2.20982 67.8942 1.92573 67.0936 1.66749L67.0935 1.66735Z"
    fill="#809AAD" />
</svg>