<svg viewBox="0 0 100 100" fill="none" xmlns="http://www.w3.org/2000/svg">
  <path
    d="M49.9996 99.8145C48.6242 99.8145 47.3404 99.4477 46.1483 98.8058L33.9523 91.5615C32.1183 90.5528 33.0353 90.1861 33.5855 90.0027C36.0614 89.1774 36.5199 88.994 39.0875 87.5268C39.3625 87.3434 39.7293 87.4351 40.0044 87.6185L49.3577 93.2121C49.7245 93.3955 50.183 93.3955 50.4581 93.2121L87.0461 72.0296C87.4129 71.8462 87.5963 71.4794 87.5963 71.0209V28.7477C87.5963 28.2892 87.4129 27.9224 87.0461 27.739L50.4581 6.64818C50.0913 6.46479 49.6328 6.46479 49.3577 6.64818L12.7698 27.739C12.403 27.9224 12.2196 28.3809 12.2196 28.7477V71.0209C12.2196 71.3877 12.403 71.8462 12.7698 72.0296L22.765 77.8067C28.1753 80.5576 31.5681 77.3482 31.5681 74.1387V32.4156C31.5681 31.8654 32.0266 31.3152 32.6685 31.3152H37.3452C37.8954 31.3152 38.4456 31.7737 38.4456 32.4156V74.1387C38.4456 81.3829 34.5025 85.6011 27.6251 85.6011C25.516 85.6011 23.8654 85.6011 19.1887 83.3086L9.56035 77.8067C7.17617 76.4312 5.70898 73.8636 5.70898 71.1126V28.8394C5.70898 26.0884 7.17617 23.5208 9.56035 22.1453L46.1483 0.96284C48.4408 -0.320947 51.5585 -0.320947 53.851 0.96284L90.4389 22.1453C92.8231 23.5208 94.2903 26.0884 94.2903 28.8394V71.1126C94.2903 73.8636 92.8231 76.4312 90.4389 77.8067L53.851 98.9892C52.6589 99.5394 51.2834 99.8145 49.9996 99.8145ZM61.2786 70.7458C45.2313 70.7458 41.9301 63.4099 41.9301 57.1744C41.9301 56.6242 42.3886 56.074 43.0305 56.074H47.7989C48.3491 56.074 48.8076 56.4408 48.8076 56.991C49.5411 61.851 51.6502 64.2352 61.3703 64.2352C69.0731 64.2352 72.3742 62.4929 72.3742 58.3665C72.3742 55.9823 71.4572 54.24 59.4446 53.0479C49.4494 52.0392 43.2139 49.8385 43.2139 41.8606C43.2139 34.433 49.4494 30.0315 59.9031 30.0315C71.6406 30.0315 77.4177 34.0662 78.1513 42.8693C78.1513 43.1444 78.0596 43.4195 77.8762 43.6946C77.6928 43.878 77.4177 44.0614 77.1426 44.0614H72.3742C71.9157 44.0614 71.4572 43.6946 71.3655 43.2361C70.2651 38.1927 67.4225 36.5421 59.9031 36.5421C51.4668 36.5421 50.4581 39.4765 50.4581 41.6772C50.4581 44.3365 51.6502 45.1618 63.0209 46.629C74.2999 48.0962 79.6184 50.2052 79.6184 58.0914C79.5267 66.1609 72.9244 70.7458 61.2786 70.7458Z"
    fill="#809AAD" />
</svg>