<svg viewBox="0 0 114 114" fill="none" xmlns="http://www.w3.org/2000/svg">
<g clip-path="url(#clip0_3046_119)">
<path d="M57 114C88.4802 114 114 88.4802 114 57C114 25.5198 88.4802 0 57 0C25.5198 0 0 25.5198 0 57C0 88.4802 25.5198 114 57 114Z" fill="#809AAD"/>
<path d="M91.0206 36.6237C85.0065 40.0347 77.5561 43.2662 69.2978 45.9591C61.0395 48.652 53.1403 50.2678 46.2285 51.0756C46.6773 54.7559 47.4852 58.6158 48.7419 62.4756C55.2947 82.6725 71.0931 95.6882 84.0191 91.5591C96.945 87.3402 102.241 67.5922 95.6884 47.3953C94.4317 43.5355 92.8159 39.9449 91.0206 36.6237ZM52.9608 60.052C58.7954 56.8205 66.1561 58.8851 69.4773 64.7197C63.5529 68.041 56.1923 65.8867 52.9608 60.052ZM80.9671 82.1339C73.5167 84.5575 65.5277 80.8772 62.386 73.9654C66.7844 76.4788 72.7986 77.1071 78.8128 75.2221C84.7372 73.337 89.2254 69.2977 91.3797 64.63C92.8159 72.1701 88.4175 79.7103 80.9671 82.1339ZM80.1592 61.3087C79.3513 54.6662 84.1088 48.652 90.7513 47.8441C91.5592 54.4866 86.8017 60.5008 80.1592 61.3087Z" fill="#324A5E"/>
<path d="M72.3497 34.8283C64.7198 34.3795 55.8332 33.0331 46.5875 30.6094C37.3418 28.1858 28.9938 25.0441 22.082 21.6331C20.2867 25.3134 18.7607 29.3527 17.5938 33.7512C11.6694 56.4614 18.6709 78.0047 33.2127 81.7748C47.7544 85.5449 64.3607 70.285 70.2851 47.5748C71.452 43.1764 72.1702 38.9575 72.3497 34.8283ZM22.9796 34.0205C30.3402 34.4693 35.9954 40.8425 35.5465 48.2031C28.1859 47.7543 22.5308 41.3811 22.9796 34.0205ZM35.9954 71.1827C27.6473 69.0283 22.3513 60.9496 23.5182 52.5118C26.1213 57.5386 31.4174 61.6677 38.0599 63.3732C44.7024 65.0787 51.345 64.0016 56.1024 60.9496C52.9607 68.9386 44.3434 73.4268 35.9954 71.1827ZM47.6646 51.3449C50.8961 44.7023 58.8851 41.9197 65.5276 45.1512C62.2961 51.7937 54.3072 54.5764 47.6646 51.3449Z" fill="white"/>
</g>
</svg>
