<svg viewBox="0 0 103 103" fill="none" xmlns="http://www.w3.org/2000/svg">
<g clip-path="url(#clip0_3046_105)">
<path d="M49.8976 0.0343495C48.889 0.0686829 47.8805 0.172541 46.8706 0.311162C45.8982 0.416737 44.9252 0.589691 43.9866 0.730887C42.8412 0.869508 41.6945 0.939033 40.546 1.07937C39.468 1.21928 38.3556 1.42828 37.2788 1.60295C36.8955 1.67205 36.5118 1.81067 36.1286 1.87934C35.296 2.05358 34.4265 2.12396 33.5914 2.40292C32.0983 2.85784 30.6018 3.38142 29.1418 3.93633C27.7847 4.49425 26.4633 5.08564 25.1776 5.78175C23.8562 6.51133 22.6034 7.38039 21.352 8.21813C20.1679 9.01895 18.9881 9.85411 17.8384 10.7592C16.7286 11.6313 15.684 12.6051 14.6746 13.5806C14.1197 14.1355 13.666 14.7981 13.1437 15.4247C12.2755 16.4354 11.4069 17.4087 10.5717 18.4542C9.87949 19.3263 9.2499 20.2301 8.58898 21.1365C7.40877 22.7355 6.40109 24.4432 5.46293 26.15C5.07969 26.8465 4.73335 27.5431 4.38573 28.2379C3.86386 29.2816 3.30723 30.2927 2.82098 31.3725C2.4725 32.1043 2.1944 32.9047 1.98582 33.705C1.50087 35.4123 1.01333 37.1538 0.560991 38.8585C0.143841 40.3915 0.0386955 41.9931 0.00564966 43.56C-0.0299712 44.9526 0.109079 46.311 0.2477 47.7036C0.28332 48.0525 0.0764622 48.4697 0.491466 48.7473C0.352416 49.1306 0.457133 49.3417 0.663133 49.4078C0.4228 49.7911 0.768708 50.037 0.630945 50.3859C0.595325 50.455 0.73695 50.5936 0.803041 50.6979C0.803041 50.8035 0.769995 50.9421 0.803041 51.0464C0.840379 51.3597 0.978141 51.673 0.978141 52.0215C0.978141 52.2648 1.18629 52.5442 1.25667 52.7884C1.29057 52.8914 1.25667 53.0652 1.18672 53.1351C0.978141 53.3785 1.01247 53.5871 1.32534 53.7274C1.5013 54.1789 1.43134 54.3874 1.39658 54.5986C1.46525 54.911 1.36096 55.0157 1.39658 55.0857C1.67425 55.6436 1.77897 56.2689 1.81201 56.8951C1.81201 57.035 1.88197 57.1753 1.95192 57.3487C1.98625 57.3487 1.95192 58.0105 1.95192 58.0105C2.12359 57.9075 2.26607 57.8719 2.43902 57.8019C2.5446 58.2538 2.64717 58.674 2.78622 59.0568C2.96046 59.3345 2.96132 59.4718 2.89222 59.5061C3.03127 60.1327 3.09994 60.725 3.34156 61.3172C3.34156 60.6563 3.27504 59.9954 3.1699 59.3675C3.65571 59.5422 4.07329 59.716 4.35182 59.716C4.38744 59.6104 4.4222 59.4726 4.45825 59.4027C4.24968 59.1954 4.07544 58.8825 3.86643 58.6735C3.93596 58.9512 3.86643 59.0564 3.86643 59.1619C3.72781 59.0907 3.55271 59.0207 3.37933 58.9508C3.51838 58.7791 3.65786 58.6031 3.86643 58.3954C3.86643 58.0809 3.69477 57.8015 3.20595 57.8375C3.41495 57.768 3.62352 57.665 3.86643 57.5938C4.24968 57.3865 3.83167 57.0036 3.83167 56.5165C3.866 55.9256 3.51924 55.3333 3.41452 54.7055C3.24028 53.7317 3.27547 52.2691 3.17161 51.294C2.96261 51.1193 2.7888 51.5717 2.75446 51.6073C2.86047 52.4425 2.96304 53.2772 3.0317 54.1136C2.82442 53.4171 2.68408 52.651 2.51112 51.8146C2.4755 52.0588 2.4416 52.1622 2.4416 52.303C2.26993 52.4747 2.40727 52.6867 2.51112 52.9296C2.26822 52.824 1.98926 52.8609 1.98926 52.8609V53.836C1.64292 53.4871 1.53949 53.2085 1.36396 52.9626C1.2953 52.6849 1.25753 52.4077 1.19187 52.13C1.25753 51.9545 1.19187 51.8511 1.19187 51.7481C1.15124 51.4694 1.11619 51.19 1.08672 50.9099C1.12105 50.8756 1.05196 50.3546 1.05196 50.3546C1.32963 50.3889 1.50559 50.4202 1.67854 50.4202C1.33092 49.9709 1.57254 49.6915 1.71373 49.413C1.78326 49.2731 2.02702 49.2409 2.09698 49.098C2.37465 48.5757 2.82742 48.1602 2.82742 47.4972C2.82742 47.1839 2.93471 46.8363 2.96733 46.5217C3.03685 45.9294 3.10509 45.338 3.13814 44.7462C3.20938 43.9797 3.13857 43.2128 3.3141 42.4819C3.59434 41.2665 3.94154 40.0464 4.32307 38.8272C4.60074 37.9551 4.91617 37.1234 5.26208 36.2509C5.78395 34.8926 6.27062 33.5342 6.93154 32.2476C7.8697 30.3661 8.94777 28.555 9.9915 26.7105C10.6524 25.5612 11.3477 24.4814 12.0794 23.3677C12.7734 22.2884 13.4673 21.1742 14.2694 20.1631C15.3831 18.7361 16.6007 17.4122 17.9564 16.2285C19.3478 14.9758 20.6687 13.6879 22.1627 12.5385C24.1055 11.0372 26.1755 9.7081 28.3491 8.56618C30.1237 7.62802 31.9657 6.89329 33.809 6.19718C34.9917 5.74527 36.278 5.53627 37.4964 5.15302C38.8864 4.69982 40.2774 4.49339 41.7374 4.45777C42.6755 4.42344 43.5798 4.31743 44.518 4.21272C45.3777 4.14793 46.2362 4.06723 47.093 3.97067C47.0244 4.0562 46.9656 4.14903 46.9174 4.24748C46.5372 4.8054 46.1196 5.36331 45.7368 5.91951C45.4235 6.37271 45.0759 6.85982 44.7626 7.31173C44.2051 8.0456 43.6141 8.77605 43.0931 9.54211C42.294 10.6923 41.5623 11.8755 40.7271 13.0239C39.8945 14.1376 38.9899 15.1835 38.1204 16.2616C36.9732 17.7602 35.8947 19.2915 34.748 20.7884C33.7042 22.2154 32.5953 23.5759 31.5854 25.0028C30.6816 26.2543 29.8804 27.5796 29.0109 28.8653C27.7251 30.7811 26.4389 32.6609 25.1531 34.5771C24.1439 36.0352 23.1239 37.4859 22.0931 38.9289C22.0232 39.0344 21.9189 39.0658 21.8159 39.1357C21.5382 39.5876 21.5382 39.8323 21.4322 40.0413C21.155 40.5627 20.8777 41.0859 20.5636 41.5747C20.3889 41.8523 20.1452 42.0948 19.9366 42.3738C19.9022 41.9562 20.4911 41.7468 20.2134 41.2236C20.0417 41.5034 19.8658 41.7463 19.6932 42.0253L19.2761 42.8579C19.4126 42.9617 19.6465 43.033 19.422 43.233C19.3988 43.1514 19.2817 43.0965 19.1937 43.03C18.9005 43.4376 18.622 43.8546 18.3611 44.2836C18.5697 44.4565 18.6727 44.3883 18.8117 44.1437C18.937 43.8922 19.1177 43.696 19.2804 43.4819C19.2227 43.5893 19.1631 43.6956 19.1014 43.8008C19.252 43.7119 19.3825 43.5928 19.4847 43.451C19.4847 43.8342 19.2757 44.1467 19.1014 44.4595C18.9624 44.7376 18.6152 44.9479 18.3718 45.1552C18.4062 45.1895 18.6499 45.2956 18.6856 45.3303C18.9988 45.2247 19.1031 45.0522 19.1392 45.1552C19.2448 45.0166 19.3469 44.9123 19.3812 44.808C19.5186 44.4591 19.7276 44.1814 20.0752 44.0411C20.2151 43.9716 20.319 43.8673 20.4237 43.7643C21.4674 42.6836 22.5442 41.6399 23.4824 40.4897C24.9437 38.713 26.2651 36.8697 27.6581 35.0595C28.2474 34.293 28.9444 33.5274 29.5692 32.7952C29.6722 33.596 29.6036 34.3612 29.5692 35.0943C29.4636 36.3818 29.3954 37.6701 29.2924 38.9915C29.2568 39.5134 29.2916 40.0353 29.2559 40.5588C29.2559 40.6975 29.1508 40.8022 29.1508 40.9421C29.1508 41.2897 29.2559 41.6734 29.2559 42.0223C29.1504 43.3107 29.0104 44.5625 28.9062 45.8505C28.8705 46.1281 29.0092 46.4084 29.0778 46.6526C28.9062 48.5315 29.289 50.5181 28.9748 52.503C29.2177 52.1197 29.2881 51.8755 29.2881 51.6326C29.3212 51.4236 29.2881 51.215 29.2881 50.9717V50.6237C29.3212 49.9958 29.4589 49.3357 29.3903 48.7079C29.3207 48.0117 29.3199 47.3508 29.4598 46.6886C29.5297 46.411 29.4267 46.062 29.6014 45.7136V46.2354C29.5671 48.2173 29.637 50.2035 29.3594 52.188C29.3237 52.3626 29.4641 52.6772 29.0808 52.6412C28.7663 53.2677 29.1495 53.721 28.8036 54.0686C28.7323 54.1381 28.8701 54.4518 28.9062 54.6608C28.7658 55.0793 28.7658 55.0793 28.9748 55.114C29.0092 55.8801 29.0804 56.5745 29.1134 57.3066C29.6684 55.9852 29.3911 54.6239 29.637 53.2656C29.6709 53.8231 29.707 54.3819 29.6714 54.9711C29.6714 55.8788 29.6357 56.747 29.6018 57.6521C29.6018 57.8268 29.5662 58.001 29.5323 58.1757C29.4263 58.6645 29.3946 59.1508 29.2203 59.6027C29.0813 59.9516 29.1516 60.4752 29.1516 60.8915V62.2167C29.2903 62.809 29.1156 63.1214 29.2203 63.469C29.1143 63.8192 29.0808 63.9244 29.1139 64.0287L29.2203 64.5505C29.9164 64.481 29.6031 65.0037 29.8808 65.281C29.6718 65.5612 29.7422 65.6642 29.7422 65.8059C29.7422 66.1191 29.7087 66.3981 29.6735 66.7114C29.6735 67.5118 29.6383 68.3122 29.6383 69.0787C29.6383 69.1843 29.6731 69.2864 29.6731 69.3907C29.6731 69.4619 29.6387 70.3675 29.6387 70.3675C29.7078 70.4705 29.6379 70.5752 29.5319 70.6795C29.4988 70.6795 29.3946 66.2578 29.3946 66.2578H28.8727C28.804 68.3452 28.9791 70.225 28.5959 72.1768C28.1783 72.2112 28.0401 72.2798 27.5856 72.2798C26.5075 72.2798 25.4299 72.2794 24.3518 72.3142C23.0648 72.3142 21.8146 72.3485 20.5263 72.3485C19.9027 72.3485 19.2426 72.4202 18.6165 72.4202C17.7809 72.4202 16.9118 72.3137 16.0792 72.3137C14.7909 72.3137 13.539 72.4193 12.2523 72.4537C11.3142 72.488 10.3765 72.488 9.4383 72.5232C8.81043 72.5575 8.18256 72.5906 7.55855 72.6618C7.28131 72.6961 7.03755 72.7991 6.68992 72.9038C6.58435 72.9038 6.34187 72.8695 6.13458 72.9038C5.78438 72.9734 5.47452 73.1824 5.12432 73.2536C4.60245 73.3592 4.4634 73.4957 4.53207 74.0188V74.3673C4.49817 74.436 5.2977 74.2609 5.2977 74.2609C5.22646 74.2609 5.19213 74.4699 5.08655 74.6441C5.36637 74.5385 5.54018 74.4694 5.71485 74.4008C6.23672 74.6454 6.6882 74.5063 7.10407 74.6119C8.46023 74.9583 9.85073 75.1012 11.2404 75.2372C12.1459 75.3067 13.015 75.3428 13.9184 75.3758C15.2046 75.4454 16.4908 75.5157 17.7766 75.5157C18.8546 75.5157 19.8984 75.4106 20.9739 75.4106C22.4674 75.4106 23.9656 75.4793 25.46 75.5157C25.7732 75.5157 26.1213 75.4814 26.4689 75.4814H29.0057C31.2679 75.4128 33.5274 75.3754 35.7883 75.3097C37.0766 75.2711 38.3968 75.2038 39.6825 75.1681L43.6467 75.0617C45.1767 75.0274 46.7067 75.0274 48.2028 74.996C49.3495 74.996 50.4619 74.9574 51.6117 74.9231C52.8957 74.8887 54.2171 74.7849 55.5042 74.7158C56.2007 74.6814 56.8968 74.6098 57.5921 74.5407C58.4272 74.472 59.2963 74.369 60.1289 74.3334C61.3816 74.2622 62.6683 74.2287 63.921 74.1583C65.4853 74.0553 67.0505 73.9154 68.6491 73.8798C70.1105 73.8111 71.6052 73.8454 73.0666 73.8111C74.3541 73.7768 75.6398 73.7055 76.9608 73.6712L79.1551 73.5648C79.1551 73.5648 80.6143 73.5304 81.3447 73.4596C82.5962 73.3909 83.8468 73.2519 85.0991 73.2176C85.8973 73.1832 86.6982 73.2184 87.4977 73.1832C88.7835 73.1489 90.1049 73.0768 91.392 73.0768C91.8769 73.0768 92.3984 73.1489 93.0249 73.1832C92.7473 73.4279 92.573 73.5656 92.364 73.7403C92.5031 73.7746 92.6413 73.8463 92.7812 73.9154C92.5726 74.054 92.3992 74.0875 92.2276 74.0875C92.1559 74.2634 92.0859 74.3321 92.016 74.681H92.6413C92.3984 74.681 92.1907 74.9943 91.9473 75.2029C91.6701 75.1317 91.4242 75.2029 91.2855 75.5861C91.5289 75.7235 91.495 75.8282 91.4606 75.9694C91.0431 76.1067 90.7306 76.2466 90.9062 76.6981C90.7645 76.7672 90.5911 76.8372 90.4169 76.9414C90.2448 77.2191 89.9307 77.2891 89.9993 77.6719C90.1397 77.7062 90.277 77.7792 90.383 77.8105C90.2083 77.88 90.0354 77.9839 89.8611 78.0526C89.2358 78.4358 89.5135 78.6105 89.6526 78.7847C89.547 78.8542 89.4448 78.9238 89.3406 78.9598C89.4092 79.2731 89.5122 79.3431 89.5474 79.3431C89.4239 79.4377 89.3023 79.5347 89.1826 79.634C89.1937 79.5951 89.208 79.5572 89.2255 79.5207H89.0861C89.0861 79.5847 89.0989 79.6396 89.1084 79.6941C89.0766 79.7199 89.0586 79.7327 89.0255 79.7598C88.92 80.0731 88.7809 80.2113 88.6423 80.4198C88.5037 80.6288 88.4333 80.9091 88.2591 81.1168C87.5295 81.9193 87.0072 82.8609 86.069 83.4858C85.7201 83.7304 85.4081 84.0433 85.0948 84.3574C84.4687 84.9484 83.9129 85.6106 83.2524 86.1685C82.3842 86.899 81.4825 87.559 80.5418 88.2212C79.3959 89.0216 78.2492 89.8237 77.1007 90.5902C76.4746 91.0065 75.7789 91.3194 75.118 91.7026C74.4571 92.0859 73.8309 92.4344 73.1704 92.8163C72.7528 93.094 72.37 93.4768 71.9181 93.688C70.7709 94.1772 69.5534 94.5935 68.3723 95.0467C67.2226 95.5359 66.3896 95.951 65.5205 96.2642C64.721 96.5419 63.8858 96.7531 63.0519 96.9247C62.7747 96.996 62.4597 96.9252 62.1464 96.9633C61.5546 97.0689 60.9645 97.2097 60.3722 97.2784C58.8423 97.4869 57.3127 97.626 55.7844 97.835C54.8789 97.9406 54.0081 98.1127 53.1043 98.2182C52.4794 98.2526 51.8194 98.1839 51.1932 98.1839C50.7413 98.1839 50.2555 98.2903 49.8023 98.2225C49.0727 98.117 48.3414 97.9457 47.611 97.8054C47.4393 97.771 47.1942 97.699 47.0569 97.771C46.7792 97.911 46.5325 97.7024 46.2535 97.771C46.0818 97.8054 45.9076 97.6659 45.7329 97.6659C45.593 97.6316 45.4192 97.7045 45.2445 97.6659C44.8617 97.5629 44.5149 97.423 44.0944 97.4573C43.6811 97.4917 43.2618 97.2835 42.8129 97.1805C42.185 97.0406 41.5975 96.9037 40.9683 96.7621C40.7267 96.6925 40.519 96.5874 40.2744 96.4488C39.3692 96.4488 38.7779 96.4145 38.2217 96.2042C37.7354 96.0325 37.2839 95.7883 36.7625 95.8582C36.6252 95.8926 36.52 95.8239 36.3788 95.8239C36.2732 95.684 36.1711 95.4055 36.0681 95.4055C35.3728 95.4398 34.9557 94.851 34.3639 94.675C34.0519 94.5695 33.8081 94.2214 33.4948 94.1171C32.7283 93.8038 32.1056 93.1438 31.2365 93.0395C30.9589 93.0051 30.6803 92.8635 30.3662 92.7605C30.4718 92.8979 30.5387 93.0039 30.6443 93.1077C29.6362 92.6185 28.6972 92.0636 27.7577 91.5404C27.6204 91.5061 27.5165 91.3687 27.4122 91.2971L26.4728 90.6649C25.9509 90.7705 25.7428 90.5602 25.6016 90.4915C24.663 89.831 23.5862 89.4117 22.6811 88.6809C22.2979 88.3663 21.8485 88.1573 21.5713 87.7745C21.082 87.1822 20.4911 86.7659 19.8306 86.4183C19.31 86.1406 18.8237 85.826 18.3375 85.5128C18.0929 85.3385 17.8491 85.1295 17.8491 84.7463C17.8491 84.5016 17.7465 84.2579 17.4337 84.3978C17.2946 84.1892 17.156 83.9459 16.9818 83.8759C16.5642 83.7042 16.2857 83.3867 15.9728 83.109C15.6595 82.8313 15.4183 82.4489 15.0351 82.3099C14.339 82.0322 13.9205 81.4404 13.5042 80.9529C12.5292 79.8031 11.6601 78.5482 10.7563 77.3328C10.6863 77.2273 10.5473 77.1569 10.443 77.053C10.5816 77.4363 10.7563 77.7491 10.9297 78.0968C10.5833 77.9581 10.3408 77.7131 10.1323 77.4702C10.0966 77.5045 12.5292 81.5095 12.5292 81.5095C12.7403 81.8228 12.9124 82.1369 13.121 82.4498C12.5991 82.4841 12.2515 82.2052 12.0772 81.8919C11.7652 81.3365 11.4176 80.9893 10.7224 81.0606C10.6537 80.8147 10.5833 80.5357 10.5507 80.2937C10.3865 80.296 10.2224 80.2831 10.0606 80.255C10.5498 81.0215 10.9661 81.6829 11.418 82.4489C11.2421 82.3434 11.1408 82.2747 11.0683 82.2404C11.6931 82.9013 12.1455 83.7373 12.9446 84.1562C13.1193 84.9557 14.0231 85.339 14.2321 86.1054C14.0604 86.0711 13.9167 86.0351 13.742 85.999C13.4647 85.6514 13.1515 85.3046 12.8394 84.9218C12.9003 85.1491 13.0064 85.3618 13.1515 85.5471C13.569 86.069 13.9527 86.5908 14.439 87.044C14.6132 87.2213 14.8561 87.2908 14.8561 87.6041C15.1333 87.7427 15.2398 87.7758 15.3428 87.7758C15.414 87.9878 15.3106 88.3006 15.7265 88.2307C16.0037 88.7525 16.2805 88.7521 16.6638 88.5791C17.117 89.0323 17.3607 89.0684 17.6723 88.7903C17.6723 88.962 17.7075 89.1371 17.7075 89.2774C17.8461 89.2079 17.8139 89.1036 17.8139 88.9289C17.9856 89.0675 18.0907 89.1371 18.1594 89.2057C18.507 89.6946 18.8207 90.146 19.307 90.5293C19.9679 91.0872 20.5584 91.6795 21.182 92.2013C22.4004 93.2124 23.7596 94.0476 25.114 94.8128C26.7844 95.7535 28.3843 96.7634 30.0872 97.6668C32.1378 98.7483 34.3287 99.4808 36.5882 100.003C37.4234 100.177 38.2234 100.349 39.0594 100.556C39.786 100.768 40.5173 101.082 41.2481 101.255C42.3605 101.499 43.5077 101.708 44.6201 101.916C44.8621 101.95 45.1093 101.988 45.387 102.022C45.6973 102.091 46.0797 101.952 46.1496 102.056C46.3239 102.334 46.4629 102.194 46.6715 102.159C46.9149 102.09 47.193 102.09 47.4706 102.09C48.4444 102.125 49.3821 102.332 50.3559 102.264C50.5671 102.264 50.8795 102.088 51.0542 102.435C51.3662 102.297 51.5408 102.297 51.6795 102.264C51.7168 102.576 51.6786 102.576 51.6121 102.61C51.5408 102.645 51.4374 102.679 51.2988 102.784C52.5502 103.027 53.7322 103.061 54.7733 102.784C56.5835 102.922 58.1483 102.714 59.6444 102.191C59.783 102.366 59.8877 102.609 60.0963 102.261C60.1649 102.156 60.3383 102.121 60.4782 102.086C60.7902 102.017 61.1735 101.877 61.4507 101.98C61.7653 102.085 61.8709 101.808 62.1125 101.808C62.5314 101.808 62.9133 101.773 63.2966 101.703C63.5051 101.668 63.7137 101.564 63.9566 101.494C63.7186 101.376 63.456 101.315 63.1901 101.318C63.5808 101.125 63.9754 100.94 64.3738 100.763C64.3043 100.866 64.2343 101.004 64.097 101.004H64.5811C64.4751 101.004 64.3369 101.317 64.1639 101.526C65.4141 101.213 66.5608 100.934 67.6745 100.654C67.2917 99.9246 68.0912 100.169 68.3702 99.7504C68.0226 99.8559 67.6749 99.9585 67.3264 100.027C68.5088 99.4366 69.7255 98.9148 70.907 98.3929C70.7353 98.6015 70.5233 98.7071 70.213 98.8826C70.4216 98.9169 70.5606 98.9169 70.6649 98.9482C71.2198 99.1238 71.0825 98.6023 71.2555 98.2878C71.9164 98.2878 72.1932 98.1848 72.5065 98.0792C72.8541 97.9736 73.2017 97.8698 73.5502 97.7307C74.1051 97.4874 74.627 97.1758 75.1832 96.8981C75.2892 96.8595 75.4617 96.8981 75.6016 96.8981C75.9849 96.6522 76.1214 96.4441 76.2256 96.4784C76.7149 96.5479 77.0582 96.3737 77.1981 95.9243C77.2393 95.8943 77.2599 95.881 77.2977 95.8531C77.4372 96.16 77.7161 96.1939 78.1681 95.8831C77.8891 95.8831 77.6106 95.8488 77.3677 95.814C77.3419 95.814 77.3329 95.8312 77.3183 95.8398C77.4921 95.711 77.6522 95.5883 77.7904 95.5038C78.5539 95.0862 79.2822 94.669 80.0487 94.2514C80.3259 94.2514 80.4667 94.2519 80.5353 94.2171C80.9903 94.0055 81.4065 93.7648 81.8228 93.5201C81.7173 93.4858 81.4756 93.3485 81.4756 93.3485C81.7001 93.3067 81.921 93.248 82.1366 93.173C82.9687 92.1953 84.1185 91.534 84.9862 90.7675C85.3699 90.7331 85.3699 90.6293 85.3699 90.5606C85.5072 90.3859 85.6476 90.1774 85.8192 90.037C86.5857 89.3409 87.4179 88.7491 88.114 88.0182C89.1225 87.0063 90.0955 85.9604 90.9993 84.881C91.8319 83.906 92.6705 82.9326 93.3657 81.8528C94.3395 80.3559 95.1729 78.8229 96.0424 77.2547C96.669 76.1423 97.2256 75.0286 97.8535 73.915C97.9187 73.8094 98.0595 73.6699 98.1638 73.6699C99.102 73.5643 100.044 73.4982 100.947 73.3931C101.156 73.3588 101.399 73.2201 101.607 73.1141C101.502 72.9399 101.434 72.7322 101.33 72.5575C101.19 72.3459 100.982 72.1743 100.842 71.9627C100.705 71.791 100.599 71.5799 100.495 71.3721C100.389 71.2005 100.286 71.0593 100.182 70.8825C99.9702 70.4992 99.7629 70.1164 99.5869 69.7014C99.5526 69.5958 99.4813 69.4237 99.5182 69.3182C100.144 67.9611 100.388 66.4998 100.979 65.1415C101.57 63.7489 101.745 62.1815 102.023 60.6846C102.266 59.2576 102.405 57.8298 102.576 56.4028C102.682 55.3934 102.822 54.4179 102.855 53.4085C103.067 51.8069 102.994 50.3086 102.96 48.8104C102.926 47.4886 102.854 46.1307 102.788 44.8067L102.785 44.8024C102.716 43.4446 102.682 42.0867 102.542 40.7296C102.299 38.8838 102.055 37.0028 101.638 35.1925C101.325 33.6956 100.805 32.2678 100.282 30.8408C99.6212 29.1692 98.9608 27.4632 98.1256 25.8625C96.7699 23.2853 94.997 20.9867 93.3623 18.5842C92.2816 17.0517 90.8911 15.7985 89.8474 14.2312C89.2569 13.3261 88.3869 12.5617 87.5175 11.8665C86.1261 10.7498 84.6665 9.73952 83.2065 8.76575C82.0936 7.99925 80.9817 7.26838 79.7976 6.60661C78.8594 6.08217 77.8513 5.66459 76.8776 5.21139C75.7647 4.68952 74.6862 4.06122 73.4352 3.81788C73.1206 3.75222 72.843 3.64622 72.5297 3.54107C71.7306 3.2634 70.9658 2.95011 70.165 2.70548C68.9496 2.32224 67.7668 1.87118 66.514 1.5566C65.3012 1.24331 64.0489 1.0356 62.7962 0.860066C61.4061 0.655354 59.9813 0.583254 58.5886 0.447208C57.6848 0.341633 56.7814 0.238204 55.9119 0.20387C54.5905 0.134775 53.2352 0.134775 51.9142 0.100441C51.2533 0.0661078 50.558 -0.00170048 49.8976 0.0343495ZM52.8764 4.06852C53.3296 4.13976 53.7489 4.20928 54.1652 4.24447L55.8347 4.35005C57.0861 4.45176 58.3375 4.52257 59.5877 4.69424C60.6314 4.83544 61.676 5.04444 62.7541 5.21782C65.0506 5.60064 67.3093 6.22765 69.5002 6.9581C70.7873 7.37567 72.037 7.93359 73.2923 8.45589C76.1068 9.6052 78.7852 10.9974 81.4276 12.4587C82.2602 12.9119 82.7494 13.6424 83.3726 14.3041C84.2781 15.2453 85.1828 16.1852 86.0506 17.159C87.0578 18.3087 87.996 19.4928 88.9715 20.6768C89.8392 21.7206 90.7426 22.7647 91.6147 23.8115C91.8919 24.1248 92.1031 24.5076 92.3434 24.8552C92.8983 25.6916 93.5254 26.4925 94.0116 27.3963C94.3579 28.0594 94.5674 28.8263 94.8107 29.5567C95.1566 30.6365 95.506 31.6802 95.8544 32.7596C96.0961 33.5604 96.3025 34.3986 96.4767 35.2307C96.6171 35.7899 96.584 36.3805 96.7557 36.9354C96.9668 37.6701 96.7557 38.4688 96.9668 39.2022C96.9999 39.2718 97.0334 39.3756 97.0703 39.4456C97.2093 39.5829 97.3128 39.7237 97.1033 39.9323C97.0703 39.9666 97.0703 40.1039 97.1033 40.2091C97.1746 40.1404 97.2098 40.07 97.2797 39.9657C97.2797 40.0353 97.3123 40.073 97.3123 40.1056C97.3123 40.243 97.2767 40.3825 97.3123 40.5211C97.3123 40.5902 97.381 40.6932 97.4157 40.7644C97.4857 40.6932 97.5544 40.6588 97.693 40.5533C98.0063 41.7386 98.0428 42.9214 98.0428 44.1398C98.0428 45.2891 98.2492 46.4389 97.7642 47.5525C97.8672 47.1693 97.6248 46.82 97.7299 46.4723L97.7436 46.4809C97.708 46.4809 97.5012 46.2689 97.4668 46.2346C97.4312 46.3401 97.4668 46.4427 97.3969 46.583C97.3613 46.48 97.1188 46.5157 97.1188 46.4122C97.0832 46.8985 97.3265 47.3856 97.2904 47.8731C97.3964 47.8036 97.8132 47.7676 97.9174 47.6646C97.9531 47.6989 98.023 47.7337 98.0574 47.7337C97.3613 48.2572 97.5359 48.7778 97.8492 49.3722C97.9179 49.5095 98.1264 49.7872 97.9179 50.0662C97.8492 50.1357 97.9535 50.3438 97.9874 50.5198H98.09V50.5872L97.7767 50.6923C97.7076 50.5867 97.2909 50.3812 97.2909 50.2039V51.9824C97.6385 52.088 97.6389 52.5734 97.7775 52.8176C97.8385 52.733 97.8862 52.6396 97.9192 52.5407L97.9535 52.5751C97.9183 52.7841 97.884 52.9918 97.814 53.2021C97.7454 53.5141 97.675 53.793 97.6419 54.1059C97.6419 54.1402 97.7089 54.2115 97.7089 54.2445C97.3286 55.1166 97.5372 56.0891 97.3982 56.9929C97.2926 57.6538 97.3982 58.3547 97.3286 59.0499C97.2574 59.6422 97.1162 60.267 96.9789 60.8593C96.9432 60.9649 96.8737 60.9992 96.7016 61.0691C96.7707 60.6516 96.7364 60.3717 96.6673 59.9889C96.6295 59.9889 96.178 59.7456 96.1424 59.7456C96.1424 60.2344 96.4201 60.8962 96.5257 61.4511C96.4201 61.4168 96.0034 61.1726 95.9703 61.1726C95.8991 61.5902 95.8982 62.1481 95.8639 62.6C95.8283 62.9489 95.5175 63.2609 95.4819 63.6437C95.4819 63.8553 95.7248 63.9931 95.6905 64.342H95.9673C95.9673 63.6467 96.2823 63.0201 96.2823 62.288H96.3845C96.4201 62.3575 96.5252 62.4287 96.4909 62.4631C96.4214 62.8463 96.2789 63.2635 96.3158 63.6467C96.3158 63.8557 96.4883 64.0639 96.4222 64.3072C96.351 64.5188 96.3167 64.7261 96.281 65.0389C96.2454 64.8647 96.2115 64.7965 96.2115 64.6922C96.1772 64.6922 95.8639 64.6578 95.8278 64.6578C95.7939 64.8668 96.0725 65.0754 96.0364 65.2501C96.0025 65.2844 95.9678 65.2844 95.8978 65.3192L94.7506 63.6471C93.8371 62.319 92.9326 60.9845 92.0374 59.6439C91.8029 59.3117 91.5929 58.9629 91.4091 58.6001C90.3319 56.7526 89.1496 54.9771 87.8282 53.2716C86.8213 51.9841 86.0179 50.5889 85.0802 49.2344C84.2133 47.9461 83.3438 46.6916 82.4747 45.402C82.1615 44.9857 81.7795 44.6029 81.5005 44.1497C80.5984 42.7223 79.7967 41.2597 78.8955 39.8323C78.129 38.6478 77.296 37.498 76.4956 36.3496C76.2179 35.9663 75.9403 35.547 75.66 35.1295C75.6261 35.0638 75.5913 34.9947 75.5913 34.89C75.5214 34.1239 75.4519 33.357 75.4175 32.6261C75.4175 31.9296 75.4875 31.2339 75.4875 30.5017V29.8717C75.4875 29.6971 75.5201 29.5584 75.5201 29.3833C75.5531 29.349 75.5888 29.2791 75.6231 29.2447C74.6154 29.2447 73.5717 29.2061 72.5631 29.2447C71.9022 29.2791 71.5555 28.9988 71.104 28.5113C69.7821 27.0143 68.8079 25.3088 67.6612 23.7076C66.5831 22.1746 65.4703 20.6764 64.3575 19.1795C63.4524 17.9611 62.5468 16.7779 61.6443 15.5595C60.6349 14.1668 59.6628 12.7742 58.6191 11.3811C57.3663 9.7112 56.0793 8.03788 54.7935 6.36756C54.1991 5.60107 53.5373 4.87063 52.8764 4.06852ZM49.6499 5.89591C49.7242 5.90878 49.7946 5.97101 49.8641 6.05813C50.8022 7.2422 51.7395 8.46061 52.6777 9.64468C53.3755 10.5167 54.0712 11.3493 54.7321 12.2557C55.5317 13.3707 56.296 14.4848 57.0968 15.5989C58.0007 16.8864 58.9045 18.1757 59.7735 19.4971C61.0954 21.4485 62.3464 23.3982 63.6678 25.3475C64.642 26.7744 65.6149 28.1684 66.5531 29.5958H64.7776C63.1442 29.5614 61.4739 29.4237 59.8409 29.4923C57.6157 29.5979 55.3561 29.8413 53.1313 30.0159C50.3143 30.2597 47.4633 30.2923 44.6488 30.2923C43.6382 30.2923 42.6305 30.4339 41.6232 30.5035C40.4053 30.5726 39.222 30.6425 38.0054 30.6756C36.5779 30.7468 35.1909 30.7811 33.7639 30.8172C32.9631 30.8515 32.1296 30.8172 31.2606 30.8172V30.8086C32.3704 29.2756 33.5201 27.7439 34.6325 26.1779C34.9802 25.7221 35.2578 25.2346 35.605 24.7831C35.711 24.6428 35.8505 24.5728 36.0235 24.4329L35.9887 24.3672C36.1273 24.1913 36.2655 24.0501 36.3359 23.9123C36.5127 23.6351 36.6183 23.3205 36.7565 23.0072C36.7908 22.9415 36.8955 22.8716 36.8955 22.8716C37.3843 23.1149 37.3839 22.5939 37.556 22.4184C37.8678 22.0677 38.1692 21.7079 38.4598 21.3395C38.6684 21.0618 38.8774 20.8172 39.0521 20.5043C39.0856 20.3987 38.9813 20.2271 38.9452 20.0859H38.8431C38.9487 20.0172 39.0521 19.9138 39.1564 19.8425C39.1907 19.8425 39.1907 19.8417 39.2255 19.8082C39.4255 19.5006 39.634 19.1987 39.8508 18.9027C40.2671 18.3477 40.719 17.7894 41.2052 17.3032C41.1366 17.4748 41.067 17.6499 40.9971 17.789C41.0327 17.789 41.0327 17.8233 41.0666 17.8233C41.4842 17.2654 41.9365 16.7435 42.3541 16.1847C42.3185 16.1504 42.2837 16.1161 42.2477 16.1161C42.076 16.2903 41.9365 16.465 41.7618 16.6397C41.7279 16.6053 41.6923 16.5697 41.6558 16.5697C42.0056 16.1165 42.3532 15.6642 42.6996 15.1423C42.7691 15.2479 42.8391 15.3856 42.9764 15.6646C43.118 15.317 43.2571 15.0736 43.3601 14.829C43.2571 14.9346 43.1189 15.038 43.0142 15.144L42.9082 15.038L43.5347 14.1007C44.1957 13.1596 44.8557 12.1841 45.5162 11.2433C45.7608 10.8957 46.0715 10.618 46.2831 10.2691C46.944 8.94814 47.9882 7.90097 48.7864 6.683C48.9607 6.43966 49.2027 6.23109 49.4117 6.02208C49.4976 5.91694 49.5761 5.88303 49.6499 5.89591ZM39.8452 19.4606C39.6375 19.5992 39.4619 19.7039 39.2547 19.8438C39.219 19.8782 39.1826 19.8799 39.2165 19.8799C39.2521 20.0515 39.2521 20.1932 39.2864 20.4352C39.531 20.085 39.7031 19.8073 39.9147 19.5297L39.8452 19.4606ZM69.1908 33.802C69.5028 33.802 69.677 33.908 69.8517 34.1853C70.1632 34.7072 70.4765 35.229 70.8237 35.7526C70.8594 35.8213 70.9302 35.9238 70.9302 36.0294C70.9302 36.7955 70.9293 37.5967 70.9632 38.3632C70.9963 39.164 71.0705 39.9301 71.1018 40.7309C71.1018 41.5318 71.0314 42.3669 71.0671 43.2021C71.1027 44.3874 71.1366 45.6063 71.1366 46.8221L71.1422 46.8247V47.1397C71.1083 47.1397 71.0735 47.174 71.004 47.174C70.8649 46.6852 70.7263 46.1629 70.5516 45.6754C70.2044 44.6647 69.8208 43.6536 69.1946 42.7497C68.4968 41.7755 67.8728 40.767 67.1754 39.7563C67.0037 39.5121 66.7574 39.3035 66.5488 39.0962C65.8179 38.2937 65.0883 37.4577 64.1498 36.8671C62.7674 36 61.3129 35.2536 59.8023 34.6363C59.3851 34.4647 59.0028 34.2527 58.5865 34.0098H59.419L65.3647 33.9042C66.6518 33.8699 67.905 33.8711 69.1908 33.802ZM43.0802 34.7102C43.3322 34.7059 43.5841 34.7136 43.8442 34.7445C43.2892 35.0247 42.7309 35.3037 42.2447 35.6513C41.6181 36.0689 41.0297 36.6255 40.4018 37.0783C39.7744 37.5302 39.2182 38.0886 38.6976 38.6808C38.0367 39.4799 37.3062 40.1756 36.6097 40.9421C36.1209 41.4996 35.5668 42.0223 35.1505 42.6141C34.5596 43.3806 34.0373 44.2119 33.4811 45.084C33.6553 41.7751 33.8647 38.5044 33.7244 35.1616C35.3587 35.0921 36.9251 34.9895 38.5268 34.9196C39.7757 34.8496 41.0632 34.8127 42.3133 34.7441C42.5743 34.7269 42.8283 34.7102 43.0802 34.7102ZM51.8035 36.4899C52.8434 36.5242 53.8867 36.5242 54.9295 36.5933C55.381 36.6277 55.799 36.7315 56.217 36.8702C56.7372 37.0461 57.2934 37.2886 57.7809 37.5311C58.3719 37.8478 58.9277 38.1941 59.4856 38.5774C60.4937 39.2383 61.4327 39.9696 62.4408 40.5614C63.4146 41.1537 64.1789 41.9541 64.8055 42.8605C65.572 43.939 66.4394 44.9145 66.787 46.2371L67.3076 48.5362C67.4131 48.9538 67.6569 49.3709 67.5522 49.8572C67.3762 50.7292 67.2376 51.6352 67.099 52.506C67.0303 52.8562 66.9612 53.2064 66.9968 53.5497C67.0625 54.6334 66.6462 55.5707 66.2299 56.5453C66.09 56.8586 65.881 57.1736 65.7081 57.5208C65.742 57.5551 65.9505 57.6607 65.9849 57.6607L66.2982 57.0354C66.3342 57.0354 66.3342 57.0345 66.3681 57.0697C66.1939 57.556 66.0557 58.0796 65.8797 58.5671C65.4647 59.6465 65.0471 60.7597 64.5253 61.8034C64.2476 62.3957 63.7592 62.8832 63.4129 63.442C63.0665 63.9283 62.788 64.451 62.4404 64.9042C62.1271 65.2874 61.8155 65.6707 61.3966 65.9483C60.4585 66.6444 59.4843 67.3414 58.4762 67.8989C57.8513 68.2822 57.12 68.4899 56.4248 68.6641L56.4342 68.6598C55.3205 68.9375 54.1751 69.2529 53.0258 69.392C52.0533 69.5319 51.0434 69.4971 50.0353 69.4971C49.1289 69.4971 48.2594 69.4628 47.3556 69.392C46.3471 69.289 45.339 69.1834 44.3652 68.7302C43.5292 68.3469 42.6609 68.0002 41.8288 67.5813C40.9906 67.1637 40.1572 66.6766 39.5293 65.9106C39.08 65.3514 38.4525 64.9007 37.8963 64.4132C37.998 64.8323 38.2603 65.1945 38.6268 65.4218C38.4525 65.6312 38.2088 65.5278 37.8599 64.9686C37.7569 65.0381 37.653 65.0741 37.5831 65.1085C37.6886 64.8638 37.7921 64.6205 37.8963 64.4132C37.7577 64.1355 37.5831 63.8201 37.4444 63.5399C37.165 63.0838 36.8981 62.6201 36.644 62.1494C36.5745 62.0434 36.5745 61.9399 36.5054 61.8361C36.3312 61.6266 36.1574 61.4176 36.017 61.209C35.7398 60.7928 35.4973 60.3404 35.1497 59.9216C35.1497 60.0271 35.1844 60.1297 35.1844 60.27C35.1488 60.27 35.1149 60.3044 35.1149 60.3044L34.3832 58.5289C34.3489 58.5289 34.3489 58.528 34.3145 58.5632L34.9381 60.8623C34.9042 60.8623 34.8703 60.8966 34.8334 60.8966C34.7317 60.7593 34.6274 60.6194 34.5561 60.4473C34.4875 60.167 34.2772 60.1666 34.1055 60.2713C33.9999 60.3404 33.93 60.585 33.9656 60.6893C34.2102 61.2816 34.4892 61.873 34.7677 62.4652C34.833 62.6684 34.914 62.8663 35.0098 63.057C35.0454 63.1266 35.1497 63.1944 35.1497 63.2991C35.2896 63.5768 35.3947 63.8549 35.5681 64.1008C35.8814 64.5184 36.229 64.9355 36.5419 65.3531C36.8526 65.7707 37.1294 66.2256 37.408 66.6419C37.4423 66.7114 37.547 66.7114 37.58 66.747C37.756 67.2689 38.3465 67.6513 38.7641 67.4423C38.8697 68.2431 39.7375 68.5216 40.0847 69.2881C39.7438 69.1488 39.4078 68.9976 39.0774 68.8349C39.0418 68.8692 39.0418 68.9036 39.0062 68.9735C39.4237 69.1821 39.8418 69.3907 40.222 69.634C40.5722 69.8456 40.9194 70.0542 41.2323 70.2958C41.6498 70.679 42.1378 70.8902 42.7258 71.0275C42.6936 70.9215 42.6597 70.8863 42.6597 70.8863C43.6322 71.3395 44.6416 71.8266 45.405 72.2073C41.7885 72.2785 37.929 72.3485 33.9296 72.4185C33.9296 71.7575 33.8948 71.1297 33.8948 70.4679C33.8948 70.1902 33.9643 69.946 33.9278 69.6675C33.8223 68.0684 33.8218 66.4642 33.6145 64.8973C33.4073 63.227 33.4068 61.5897 33.4429 59.9155C33.4759 59.0134 33.4068 58.074 33.3712 57.1676C33.3712 55.9492 33.3721 54.7634 33.4094 53.5476C33.4094 53.3729 33.4789 53.2334 33.5493 53.0579H33.6557C33.6888 53.1291 33.6553 53.2334 33.7214 53.269C33.827 53.3746 34.0012 53.5467 34.0712 53.5124C34.2785 53.3725 34.5918 53.2356 34.6617 53.024C34.8334 52.6077 34.9051 52.1541 34.9051 51.7365C34.9051 51.4245 35.0445 51.2163 35.1819 51.006C35.2531 50.9005 35.2883 50.7979 35.3583 50.6593C35.2196 50.5537 35.0806 50.4846 34.9063 50.346C35.0467 49.9627 35.0115 49.5095 35.5329 49.3022C35.602 49.2679 35.6029 49.0902 35.6398 48.9872C35.6728 48.7057 35.7042 48.3928 35.7419 48.1156C35.8106 48.2212 35.8479 48.2538 35.9136 48.3229C35.9509 48.2538 35.9853 48.2165 35.9853 48.2165C35.9853 48.0791 35.9509 47.8002 35.9853 47.8002C36.4028 47.7311 36.2282 47.2787 36.4372 47.0702C36.4702 47.0315 36.4024 46.9285 36.4024 46.859C36.4024 46.7899 36.4016 46.6869 36.4355 46.6869C36.9204 46.5813 36.8518 46.0595 37.1646 45.8153C37.2702 45.7457 37.3041 45.6427 37.4431 45.4668C37.7204 45.953 37.2337 46.1981 37.1994 46.5453C37.7891 46.1977 37.9629 45.3625 37.6152 45.1183C37.7593 45.0079 37.8881 44.8791 37.9985 44.7351C38.3817 44.3175 38.7972 43.9351 39.1461 43.5175C39.3907 43.2055 39.5298 42.8218 39.7727 42.509C39.913 42.3343 40.1898 42.1957 40.3984 42.0901C41.025 41.7438 41.6146 41.3614 41.9979 40.7691C42.0674 40.6996 42.1717 40.6292 42.2747 40.5593C42.3807 40.4897 42.5888 40.4906 42.6232 40.3859C42.6588 40.3172 42.5545 40.1417 42.4846 40.0374C42.6219 39.9679 42.7627 39.8293 43.0403 39.6889C42.9343 39.8979 42.9017 40.037 42.8318 40.1773L43.0026 40.3494C43.3167 40.1065 43.803 39.8293 44.1163 39.6207C44.1163 39.5863 43.9429 39.4486 43.9429 39.4486C43.7352 39.5542 43.4219 39.7267 43.1103 39.867C43.176 39.7614 43.176 39.6911 43.215 39.6567C43.7 39.3434 44.1862 39.031 44.7085 38.7855C45.9239 38.2302 47.1419 37.6727 48.359 37.1508C48.5676 37.0452 48.8487 37.1165 49.0907 37.1165C49.1937 37.1165 49.2624 37.1161 49.3675 37.0822C49.9225 36.9075 50.4808 36.7337 51.037 36.5938C51.2865 36.5255 51.5448 36.49 51.8035 36.4899ZM50.4503 37.0079C50.0684 37.1834 49.7559 37.3212 49.4426 37.4611C49.4426 37.4954 49.2684 37.7744 49.3014 37.7744C49.4757 37.7401 49.8581 37.4615 50.0667 37.4259C50.1709 37.4259 50.3108 37.4603 50.4164 37.4972C50.4164 37.3573 50.4169 37.2165 50.4503 37.0079ZM75.5909 42.9351C75.9385 43.387 76.3205 43.8068 76.5638 44.2561C77.3647 45.72 78.4067 46.9745 79.3805 48.2971C80.2156 49.4469 80.9804 50.6996 81.7469 51.8837C82.685 53.3107 83.588 54.7368 84.527 56.1642C85.2223 57.2448 85.9553 58.3246 86.6819 59.3701C87.3428 60.3078 88.0397 61.2142 88.735 62.121C89.3242 62.9214 89.9508 63.7227 90.5414 64.5235C91.2375 65.4986 91.9327 66.4719 92.6288 67.4131C92.9752 67.8993 93.3584 68.386 93.7386 68.874C93.9502 69.1516 94.2618 69.3641 94.4704 69.5357C94.4224 69.5368 94.3749 69.5249 94.333 69.5014C94.439 69.64 94.5056 69.7447 94.5768 69.8147C94.9601 70.0237 94.994 70.2323 94.7854 70.5464L94.788 70.5378C94.7541 70.6074 94.6824 70.6778 94.6493 70.749C94.6137 70.6778 94.6137 70.5739 94.5798 70.4327C94.3712 70.9915 93.9189 70.7125 93.6056 70.7125C91.7297 70.7468 89.8161 70.7468 87.9376 70.7468C86.13 70.7468 84.288 70.7473 82.4803 70.7812C81.8881 70.7812 81.2615 70.9202 80.6692 70.9563C79.2453 71.0254 77.8191 71.0619 76.3935 71.0949C76.2875 71.0949 76.1857 70.9228 76.0115 70.7829C75.9772 70.8524 75.9042 70.9576 75.8012 71.0962C75.7639 71.0275 75.6965 70.9584 75.6265 70.8541C75.5982 70.949 75.5627 71.0416 75.5201 71.131H75.4193C75.3497 70.6447 75.2107 70.1924 75.2107 69.7035C75.2107 68.6598 75.3162 67.6174 75.3493 66.5706C75.3849 66.0844 75.3493 65.6316 75.3493 65.1771C75.4896 65.2827 75.5939 65.3539 75.733 65.4557C75.7945 65.3363 75.864 65.2214 75.9411 65.1115C75.9411 65.1115 75.8716 65.0771 75.8012 65.0063C75.8669 64.972 75.9398 64.9007 75.9398 64.8664C75.9737 64.7608 76.045 64.6561 76.045 64.5875C76.045 64.3428 75.9742 64.1347 75.9398 63.9274C75.9737 63.9274 76.0081 63.9278 76.045 63.8931L76.2518 64.9368H76.3583C76.2184 64.6952 76.6703 64.484 76.2887 64.2064C76.2544 64.172 76.3218 63.9622 76.3218 63.8579C76.2158 63.6506 76.1501 63.4416 76.0445 63.1626C76.0789 63.1283 76.1836 63.0931 76.2879 63.0575C76.1493 62.9884 76.0441 62.9197 75.9398 62.8854C76.2875 62.5708 76.2874 62.3961 75.9742 62.0485C76.0458 62.0142 76.1145 62.0142 76.1145 61.9828C76.1145 61.6683 76.1145 61.3558 76.0458 61.0451C75.9759 60.6936 76.1518 60.2786 75.6287 60.067C75.66 60.166 75.7066 60.2594 75.7669 60.3439C75.7669 60.3439 75.6617 60.3782 75.5587 60.4503C75.1068 60.0314 75.3858 59.4718 75.2798 58.8469C75.5231 58.9164 75.6973 58.9868 75.8707 59.0581C75.8008 58.8122 75.6278 58.5345 75.5235 58.2212H75.3819V55.9221C75.3819 55.9565 75.6257 55.9565 75.7656 55.9934C75.7656 55.9591 75.7982 55.923 75.7982 55.887C75.6926 55.7483 75.5549 55.6093 75.4162 55.435L75.4858 55.3655C75.2085 55.0192 75.3476 54.5338 75.3476 54.4278V51.9901C75.6965 52.3395 75.1755 52.7905 75.6961 52.9991V52.6523H75.6596C75.6252 52.1305 75.6252 51.6086 75.5909 51.0854H75.5218C75.4862 51.1567 75.4862 51.1902 75.4506 51.2605H75.3819L75.5909 42.9351ZM17.0028 45.7827C16.5882 46.2702 16.205 46.7586 15.8222 47.2435H15.8179C15.8865 47.2779 15.99 47.5234 16.0616 47.5933C16.4436 47.0714 16.9655 46.4101 17.3491 45.9213C17.3131 45.8869 17.0358 45.817 17.0028 45.7827ZM14.6733 47.4899C14.4643 47.8019 13.9446 48.3607 13.7355 48.6735C13.7699 48.7079 14.1518 48.5345 14.1862 48.5714C14.3947 48.2581 14.6033 47.9087 14.8119 47.5946C14.7437 47.5603 14.7089 47.5238 14.6733 47.4899ZM15.4007 48.0105C15.1934 48.1534 14.9857 48.328 14.7767 48.4667C14.8462 48.5353 14.8462 48.5727 14.8462 48.6418C14.569 48.6074 14.463 48.7469 14.3244 49.1272C14.29 49.2327 14.1154 49.2666 13.9411 49.404C13.9068 49.4752 13.8729 49.6507 13.8025 49.8237L13.8373 49.858C13.7868 49.9043 13.728 49.9404 13.6639 49.9645C13.4549 50.1717 13.2107 50.3477 13.0021 50.555C12.9678 50.6606 12.9334 50.764 12.9334 50.8683C13.1776 50.6249 13.5939 50.1717 13.9072 49.8928L13.9433 49.9271C14.0823 49.7181 14.1866 49.5108 14.3269 49.3018C14.36 49.3362 14.36 49.3701 14.3956 49.407C14.29 49.6846 14.1866 49.9971 14.0823 50.276C14.0094 50.3104 13.9046 50.3816 13.9046 50.3456C13.766 50.4511 13.6613 50.588 13.521 50.6923L12.897 51.1086C12.5493 51.4219 12.2017 51.7 11.818 52.0142C11.5751 52.3974 11.3331 52.745 11.0528 53.1982C11.4717 53.0927 11.5756 53.2695 11.5412 53.618C12.0275 53.6866 12.0627 53.3047 12.2017 53.0257C12.236 52.9549 12.2712 52.8141 12.3403 52.7798C12.6536 52.5021 13.0012 52.2592 13.3489 51.9807C13.4188 51.9112 13.4188 51.7687 13.4188 51.6657C13.4188 51.6313 13.2429 51.6313 13.1386 51.5961C13.4519 51.2472 13.9042 50.6584 14.2162 50.2752C14.3909 50.1696 14.5647 50.0284 14.5647 49.9241C14.5364 49.6044 14.702 49.4795 14.92 49.3658C14.7578 50.1181 14.302 50.7614 13.8385 50.8936C13.9772 50.9631 14.1162 51.0344 14.2218 51C14.3248 50.9657 14.3939 50.788 14.4638 50.685L15.4016 49.328L15.7162 48.8044L15.5775 48.6645L15.5762 48.6688C15.4376 48.9121 15.2981 49.1211 15.1595 49.3658L15.0406 49.3057C15.0445 49.3035 15.0484 49.3014 15.0522 49.2971C14.9123 49.1915 14.8763 49.0894 14.8763 49.055L14.8776 49.0508C14.9145 48.9452 14.9836 48.8418 15.0535 48.7375C15.1226 48.7375 15.226 48.7031 15.226 48.7031C15.3677 48.4598 15.3672 48.2851 15.5059 48.0766C15.4715 48.0422 15.4368 48.0461 15.4007 48.0105ZM75.6991 52.9519V52.9862C75.7347 53.0206 75.7377 53.0205 75.7677 52.9888C75.7338 52.9888 75.7338 52.9871 75.6991 52.9519ZM75.6991 53.0214C75.5974 53.0557 75.4918 53.0557 75.3519 53.0909C75.5222 53.1557 75.6913 53.1931 75.6991 53.2587V53.0214ZM70.586 59.3615C70.5164 63.3309 70.9692 67.2294 71.4898 71.1644C67.5616 71.3031 63.5614 71.4412 59.5289 71.5816C61.0919 70.9207 62.3799 69.9812 63.5601 68.9006C63.736 68.7263 63.9094 68.5538 64.1184 68.4122C65.5797 67.5084 66.6557 66.2548 67.6307 64.8621C68.7431 63.2609 69.4736 61.4494 70.3787 59.7434C70.4401 59.6121 70.5093 59.4845 70.586 59.3615ZM75.454 59.6765C75.5099 59.7887 75.5567 59.9053 75.5939 60.025C75.7656 59.9906 75.8373 59.9906 75.9059 59.9555C75.9059 59.9211 75.9055 59.8872 75.9407 59.8503C75.8377 59.816 75.6986 59.7465 75.454 59.6765ZM75.5549 59.9928C75.5506 59.9928 75.5416 60.0014 75.524 60.0185L75.5253 60.0228C75.5583 60.0228 75.5939 60.0572 75.5939 60.0572L75.5596 60.0185C75.5596 60.0014 75.5592 59.9928 75.5549 59.9928ZM4.59215 60.1284C4.52306 60.1284 4.3132 60.234 4.27886 60.2683C4.41791 60.6159 4.59215 60.9996 4.7312 61.3485C4.76511 61.3142 4.97368 61.2099 5.00802 61.2099C4.86854 60.8623 4.73035 60.479 4.59215 60.1284ZM3.6158 61.5571C3.5128 61.7318 3.40808 61.9039 3.44413 62.0412C3.44413 62.1455 3.61666 62.2489 3.72223 62.3545C3.72309 62.3202 3.75571 62.2863 3.7909 62.2536C3.72223 62.0094 3.68704 61.8004 3.6158 61.5571ZM96.5609 61.5914C96.5609 61.6605 96.5952 61.7622 96.5609 61.8335V61.5914ZM5.42388 62.3571C5.38955 62.3571 5.14621 62.4614 5.11187 62.497C5.38912 63.0875 5.66679 63.7158 5.94446 64.3076C5.98008 64.3076 6.25904 64.1673 6.25904 64.1673C5.97922 63.5729 5.80712 62.912 5.42388 62.3571ZM4.72992 63.7493C4.72992 63.8866 4.55482 63.8523 4.55482 63.9913C4.34882 63.9913 4.17457 63.957 4.00076 63.957C3.96643 63.9913 4.10505 64.2012 4.14067 64.2368H4.86982C4.86982 64.0609 4.83635 63.9231 4.83635 63.7484L4.72992 63.7493ZM36.7157 65.1063C37.0994 65.6986 37.4839 66.2561 37.9002 66.811L37.8667 66.8453C37.7938 66.811 37.6891 66.7762 37.6204 66.7067L36.7865 65.4514C36.7178 65.3484 36.6784 65.2454 36.7157 65.1063ZM75.5253 66.9874C75.4913 67.4049 75.4544 67.7195 75.4544 68.0324C75.4544 68.1019 75.5248 68.2397 75.5609 68.2397C75.6295 68.2783 75.7677 68.2053 75.8377 68.174C75.872 68.1397 75.9063 68.0697 75.9063 68.0341C75.8021 67.9628 75.7003 67.9289 75.5948 67.8564C76.2553 67.5088 75.5939 67.335 75.5253 66.9874ZM14.9544 86.6934C15.3338 87.1123 15.717 87.5303 16.099 87.9835C15.89 87.8779 15.6466 87.8088 15.5436 87.6685C15.3003 87.3908 15.0926 87.0771 14.8492 86.7994L14.9544 86.6934ZM16.4135 87.9135C16.5196 88.0878 16.5878 88.2968 16.6908 88.5058C16.2045 88.4714 15.9599 88.2611 16.099 87.9835C16.2045 87.9491 16.311 87.9487 16.4135 87.9135ZM82.655 93.2446C82.3747 93.3103 82.1657 93.3481 81.9941 93.4167C81.9233 93.5566 81.8529 93.6601 81.7829 93.7987C81.8186 93.7987 81.8533 93.833 81.8894 93.8682C82.0984 93.6592 82.34 93.4867 82.655 93.2446ZM80.8761 94.2145C80.4933 94.4592 80.077 94.7021 79.6937 94.945C79.7281 94.9793 79.7281 95.0171 79.765 95.0514C80.2512 94.9471 80.6345 94.7021 81.0173 94.4248C80.9834 94.3553 80.9117 94.2802 80.8761 94.2145ZM63.8442 100.834C62.2451 101.286 61.7224 101.355 61.5481 101.111C62.3481 101.006 63.0807 100.937 63.8442 100.834ZM61.4765 101.146C61.5121 101.216 61.5121 101.285 61.546 101.353C61.3374 101.353 61.1984 101.425 61.0241 101.458C60.5392 101.564 60.016 101.634 59.5298 101.704C59.3551 101.738 59.1465 101.913 59.0779 101.598C59.0083 101.633 58.938 101.633 58.8693 101.67C59.041 102.19 59.4607 101.771 59.8083 101.98C59.0418 102.086 58.3152 102.156 57.5835 102.259V102.19C57.7947 102.155 58.0363 102.119 58.244 102.083V101.98C57.8977 101.946 57.55 101.91 57.1998 101.91C57.0981 101.91 56.9574 102.051 56.8531 102.085C56.714 102.12 56.5754 102.155 56.4012 102.155C55.8102 102.189 55.2209 102.189 54.663 102.224C54.6274 102.224 54.5574 102.19 54.5231 102.19V102.083C56.8526 101.771 59.147 101.46 61.4765 101.146ZM54.2098 102.049V102.151C53.5652 102.255 52.9155 102.324 52.2636 102.36V102.258C52.9245 102.189 53.5493 102.118 54.2098 102.049Z" fill="#809AAD"/>
</g>
<defs>
<clipPath id="clip0_3046_105">
<rect width="103" height="103" fill="white"/>
</clipPath>
</defs>
</svg>
