<svg viewBox="0 0 100 100" fill="none" xmlns="http://www.w3.org/2000/svg">
  <path
    d="M98.1092 59.881C97.5278 58.1203 96.0048 56.8937 94.0349 56.5992C93.1062 56.4606 92.0424 56.5197 90.7839 56.7793C88.59 57.2319 86.9624 57.4041 85.7746 57.4377C90.258 49.8675 93.9039 41.2348 96.0027 33.1086C99.3965 19.9691 97.5829 13.9832 95.4637 11.2754C89.8551 4.10905 81.6723 0.258924 71.8 0.140903C66.534 0.07663 61.9106 1.11642 59.4991 1.86396C57.2536 1.46802 54.839 1.24676 52.3055 1.20578C47.5571 1.13008 43.3612 2.16517 39.776 4.29268C37.7907 3.62173 34.6055 2.67555 30.9267 2.07156C22.2742 0.651058 15.3009 1.75804 10.2002 5.36137C4.02374 9.72433 1.16034 17.3045 1.68997 27.8917C1.85793 31.2532 3.73843 41.4802 6.69903 51.1797C8.40059 56.7544 10.215 61.3841 12.0919 64.9408C14.7536 69.9844 17.6015 72.9546 20.7988 74.0211C22.5911 74.6183 25.8471 75.0362 29.2719 72.1845C29.7059 72.7098 30.2848 73.2323 31.0536 73.7174C32.0296 74.333 33.2233 74.836 34.4151 75.1341C38.7111 76.2081 42.735 75.9394 46.1679 74.4342C46.189 75.0447 46.2053 75.6281 46.2192 76.1318C46.2421 76.949 46.2645 77.75 46.2945 78.4991C46.4978 83.5653 46.8425 87.5043 47.8637 90.2602C47.9197 90.4121 47.9951 90.643 48.0749 90.8877C48.5841 92.4478 49.4362 95.059 51.6034 97.1043C53.848 99.2226 56.5627 99.8725 59.049 99.8723C60.2959 99.8723 61.4858 99.7088 62.5292 99.4851C66.2492 98.6881 70.4737 97.4734 73.5297 93.1221C76.4189 89.0084 77.8235 82.8126 78.0777 73.0498C78.1106 72.7739 78.1411 72.5103 78.1704 72.259C78.1901 72.0895 78.2103 71.9162 78.2306 71.7433L78.9114 71.8031L79.0868 71.8149C82.8756 71.9876 87.5081 71.1841 90.3532 69.8626C92.6014 68.8192 99.8054 65.0161 98.1092 59.881Z"
    fill="black" />
  <path
    d="M91.6315 60.8798C80.3664 63.2035 79.592 59.3894 79.592 59.3894C91.4862 41.7405 96.4583 19.3378 92.1674 13.8548C80.4616 -1.10156 60.1983 5.97186 59.8602 6.15549L59.7513 6.17498C57.5257 5.71297 55.035 5.43774 52.2356 5.39205C47.1383 5.30852 43.2718 6.72835 40.3379 8.95328C40.3379 8.95328 4.19015 -5.93817 5.87133 27.6821C6.22897 34.8346 16.1228 81.8008 27.9238 67.6148C32.237 62.4275 36.4045 58.0415 36.4045 58.0415C38.4744 59.4165 40.9524 60.1179 43.5502 59.866L43.752 59.6946C43.6893 60.3387 43.718 60.9687 43.8328 61.7144C40.7927 65.1111 41.6861 65.7074 35.6088 66.9584C29.4594 68.2257 33.0719 70.482 35.4305 71.0717C38.2899 71.7867 44.9051 72.7997 49.3749 66.5425L49.1966 67.2565C50.3878 68.2105 51.2243 73.4623 51.0841 78.223C50.9439 82.9839 50.8503 86.2525 51.7888 88.8055C52.7274 91.3585 53.6628 97.1028 61.652 95.3909C68.3276 93.9603 71.787 90.2531 72.2682 84.0692C72.6098 79.6729 73.3826 80.3228 73.4314 76.3922L74.0513 74.5314C74.7662 68.572 74.1649 66.6494 78.2777 67.5436L79.2772 67.6314C82.3043 67.7691 86.2662 67.1445 88.5914 66.0637C93.5984 63.74 96.568 59.8604 91.6311 60.8798H91.6315Z"
    fill="#809AAD" />
  <path
    d="M42.4532 30.8808C41.4383 30.7395 40.5187 30.8703 40.0536 31.2223C39.7918 31.4205 39.7109 31.6501 39.6892 31.8082C39.6308 32.2267 39.9241 32.6894 40.1042 32.9281C40.6139 33.6038 41.3588 34.0682 42.096 34.1706C42.2028 34.1854 42.309 34.1925 42.4147 34.1925C43.6441 34.1925 44.7616 33.2354 44.8602 32.5288C44.9834 31.644 43.6988 31.0541 42.4532 30.8808Z"
    fill="white" />
  <path
    d="M76.0834 30.9088H76.0832C75.9865 30.2152 74.752 30.0174 73.5808 30.1803C72.4113 30.3433 71.277 30.8711 71.3718 31.5663C71.4479 32.1069 72.4236 33.0298 73.5792 33.0296C73.6766 33.0296 73.7752 33.0231 73.8744 33.0092C74.6457 32.9024 75.2116 32.4126 75.4803 32.1302C75.8899 31.7002 76.1266 31.2205 76.0834 30.9088Z"
    fill="white" />
  <path
    d="M95.3801 60.6157C94.9505 59.3168 93.5681 58.8987 91.271 59.3732C84.4509 60.7807 82.0085 59.8057 81.2063 59.2151C86.5077 51.1391 90.8686 41.3774 93.2212 32.2692C94.3358 27.9548 94.9514 23.9481 95.0016 20.6825C95.0571 17.0976 94.4469 14.4637 93.1876 12.8546C88.1109 6.36774 80.6604 2.88825 71.6413 2.79263C65.441 2.72298 60.2024 4.30988 59.1868 4.75598C57.0481 4.22411 54.7166 3.89759 52.1786 3.85594C47.5238 3.78069 43.5006 4.89506 40.1694 7.16634C38.7224 6.62797 34.9829 5.3443 30.4101 4.60773C22.5038 3.33458 16.2214 4.29913 11.738 7.47539C6.38829 11.2655 3.91859 18.0404 4.39717 27.6115C4.55819 30.8319 6.39277 40.7378 9.28843 50.2247C13.0998 62.7109 17.2426 69.7796 21.602 71.2335C22.1122 71.4037 22.7007 71.5229 23.3493 71.5229C24.9395 71.5229 26.889 70.806 28.9175 68.3674C32.2868 64.314 35.4326 60.9173 36.5922 59.6832C38.3059 60.6031 40.1882 61.1166 42.1139 61.1682C42.1173 61.2185 42.1224 61.2689 42.1269 61.3191C41.7406 61.7773 41.4237 62.1788 41.1536 62.5217C39.8195 64.2152 39.5419 64.5677 35.2474 65.4521C34.026 65.704 30.7812 66.3727 30.734 68.6469C30.6822 71.1316 34.5689 72.1752 35.0118 72.2859C36.555 72.6722 38.0416 72.8627 39.4594 72.8627C42.9078 72.8625 45.9421 71.7293 48.3672 69.5367C48.2924 78.3949 48.6619 87.1238 49.7255 89.7834C50.5964 91.9604 52.7246 97.2814 59.4468 97.281C60.4329 97.281 61.5188 97.1663 62.7131 96.9103C69.7285 95.4061 72.7749 92.3055 73.9536 85.4697C74.5842 81.8164 75.6665 73.0923 76.1753 68.4129C77.2496 68.7479 78.6327 68.9013 80.1278 68.9011C83.2461 68.9011 86.844 68.2387 89.1005 67.1913C91.6352 66.0142 96.2096 63.1252 95.3801 60.6157ZM78.6733 28.9942C78.65 30.3757 78.4598 31.6298 78.2583 32.939C78.0415 34.347 77.8171 35.8026 77.7607 37.5698C77.7049 39.2895 77.9197 41.0775 78.1275 42.8064C78.5472 46.2987 78.9778 49.8941 77.3105 53.4419C77.0514 52.9817 76.8013 52.4796 76.572 51.9236C76.3648 51.4212 75.9149 50.6144 75.2921 49.4975C72.8681 45.1507 67.1919 34.9713 70.0976 30.8175C70.9629 29.5809 73.1594 28.31 78.6733 28.9942ZM71.99 5.59019C80.0709 5.76868 86.4631 8.79176 90.9891 14.575C94.4603 19.011 90.6379 39.1955 79.5724 56.6086C79.4631 56.4697 79.3518 56.3295 79.2367 56.1857C79.1908 56.1282 79.144 56.0697 79.0968 56.0106C81.9561 51.2882 81.3969 46.616 80.8993 42.4734C80.6948 40.7734 80.5018 39.1677 80.5508 37.6596C80.6017 36.0606 80.8131 34.6898 81.0173 33.3641C81.2688 31.7301 81.5244 30.0398 81.4538 28.0469C81.5064 27.8379 81.5277 27.5909 81.5002 27.2977C81.3201 25.3866 79.1384 19.6676 74.6912 14.4906C72.2589 11.6594 68.7114 8.49077 63.8678 6.35363C65.9512 5.92186 68.8003 5.5192 71.99 5.59019ZM26.771 66.5826C24.5362 69.2695 22.9927 68.7546 22.4853 68.5856C19.1782 67.4824 15.3413 60.4932 11.9583 49.4097C9.03111 39.8196 7.32037 30.1762 7.1851 27.472C6.75758 18.9198 8.83068 12.9594 13.347 9.75653C20.697 4.54413 32.7813 7.66396 37.6369 9.24638C37.5671 9.31513 37.4945 9.37962 37.4253 9.4495C29.4575 17.4966 29.6465 31.2453 29.6659 32.0855C29.6653 32.4098 29.6924 32.8689 29.7298 33.5004C29.8668 35.8127 30.1219 40.1166 29.4404 44.9906C28.8069 49.5197 30.203 53.9528 33.2702 57.153C33.5877 57.4842 33.9192 57.7953 34.2616 58.088C32.8962 59.5501 29.9291 62.7833 26.771 66.5826ZM35.2857 55.2214C32.8135 52.6422 31.6909 49.0543 32.2051 45.3771C32.9248 40.2283 32.659 35.7442 32.5164 33.3352C32.4964 32.9981 32.4787 32.7027 32.4682 32.4696C33.6323 31.4377 39.0265 28.5472 42.8733 29.4286C44.6291 29.8308 45.6984 31.026 46.1432 33.0823C48.4449 43.7273 46.448 48.1641 44.8434 51.7294C44.5126 52.464 44.2002 53.1582 43.9333 53.8766L43.7266 54.4318C43.203 55.8357 42.7159 57.1409 42.414 58.3804C39.7862 58.3724 37.2296 57.25 35.2857 55.2214ZM35.689 69.5776C34.9218 69.3859 34.2316 69.0529 33.8267 68.7768C34.1648 68.6176 34.7668 68.4012 35.8106 68.1862C40.8627 67.146 41.6427 66.4121 43.3465 64.2488C43.7373 63.753 44.18 63.1906 44.7932 62.5058C44.7934 62.5054 44.7937 62.5051 44.7939 62.5049C45.7074 61.4824 46.125 61.6557 46.8827 61.9699C47.4967 62.2241 48.0947 62.9936 48.3372 63.8405C48.4519 64.2405 48.5809 64.9999 48.1592 65.5905C44.6 70.5738 39.4137 70.5097 35.689 69.5776ZM62.128 94.1808C55.9476 95.5051 53.7594 92.3516 52.3174 88.7467C51.3867 86.4192 50.9294 75.9243 51.2539 64.3348C51.2582 64.1805 51.2362 64.0316 51.1937 63.8916C51.1567 63.6213 51.0998 63.3478 51.021 63.0726C50.5382 61.3863 49.3622 59.9756 47.9513 59.3909C47.3908 59.1587 46.3618 58.7325 45.1253 59.0487C45.3891 57.9623 45.8465 56.7358 46.342 55.4073L46.5501 54.8483C46.7843 54.2184 47.0779 53.5658 47.3888 52.8751C49.0679 49.1446 51.3677 44.0352 48.8718 32.4922C47.9368 28.1689 44.8149 26.0577 40.0822 26.548C37.2448 26.8416 34.6492 27.9864 33.3546 28.6428C33.0762 28.7839 32.8216 28.92 32.5838 29.0528C32.945 24.6966 34.3104 16.5558 39.4173 11.4052C42.6326 8.16247 46.9149 6.56101 52.1325 6.64723C62.4128 6.81564 69.0052 12.0914 72.7256 16.4877C75.9315 20.2763 77.6675 24.0924 78.3604 26.1505C73.1502 25.6208 69.6067 26.6494 67.8102 29.2174C63.9023 34.8036 69.9482 45.6463 72.854 50.8571C73.3867 51.8123 73.8467 52.6375 73.9914 52.9882C74.9376 55.2814 76.1626 56.8124 77.057 57.9301C77.3311 58.2725 77.5972 58.6046 77.7994 58.8946C76.2215 59.3497 73.387 60.4007 73.6452 65.6547C73.4369 68.2913 71.9553 80.6344 71.2028 84.9954C70.2094 90.7567 68.0892 92.9028 62.128 94.1808ZM87.925 64.6593C86.3115 65.4084 83.6111 65.9703 81.0458 66.0908C78.2124 66.2236 76.7701 65.7734 76.4309 65.4966C76.2714 62.2225 77.4904 61.8803 78.7801 61.5182C78.9828 61.4611 79.1805 61.4058 79.3713 61.339C79.49 61.4356 79.6199 61.5314 79.7621 61.6252C82.0394 63.1284 86.1014 63.2905 91.8356 62.1069C91.8567 62.1025 91.8777 62.0984 91.8985 62.0942C91.1253 62.8173 89.8017 63.7879 87.925 64.6593Z"
    fill="white" />
</svg>