<svg  viewBox="0 0 98 100" fill="none" xmlns="http://www.w3.org/2000/svg">
<path d="M90.6315 60.8798C79.3664 63.2035 78.592 59.3894 78.592 59.3894C90.4862 41.7405 95.4583 19.3378 91.1674 13.8548C79.4616 -1.10156 59.1983 5.97186 58.8602 6.15549L58.7513 6.17498C56.5257 5.71297 54.035 5.43774 51.2356 5.39205C46.1383 5.30852 42.2718 6.72835 39.3379 8.95328C39.3379 8.95328 3.19015 -5.93817 4.87133 27.6821C5.22897 34.8346 15.1228 81.8008 26.9238 67.6148C31.237 62.4275 35.4045 58.0415 35.4045 58.0415C37.4744 59.4165 39.9524 60.1179 42.5502 59.866L42.752 59.6946C42.6893 60.3387 42.718 60.9687 42.8328 61.7144C39.7927 65.1111 40.6861 65.7074 34.6088 66.9584C28.4594 68.2257 32.0719 70.482 34.4305 71.0717C37.2899 71.7867 43.9051 72.7997 48.3749 66.5425L48.1966 67.2565C49.3878 68.2105 50.2243 73.4623 50.0841 78.223C49.9439 82.9839 49.8503 86.2525 50.7888 88.8055C51.7274 91.3585 52.6628 97.1028 60.652 95.3909C67.3276 93.9603 70.787 90.2531 71.2682 84.0692C71.6098 79.6729 72.3826 80.3228 72.4314 76.3922L73.0513 74.5314C73.7662 68.572 73.1649 66.6494 77.2777 67.5436L78.2772 67.6314C81.3043 67.7691 85.2662 67.1445 87.5914 66.0637C92.5984 63.74 95.568 59.8604 90.6311 60.8798H90.6315Z" fill="#809AAD"/>
<path d="M41.4532 30.8808C40.4383 30.7395 39.5187 30.8703 39.0536 31.2223C38.7918 31.4205 38.7109 31.6501 38.6892 31.8082C38.6308 32.2267 38.9241 32.6894 39.1042 32.9281C39.6139 33.6038 40.3588 34.0682 41.096 34.1706C41.2028 34.1854 41.309 34.1925 41.4147 34.1925C42.6441 34.1925 43.7616 33.2354 43.8602 32.5288C43.9834 31.644 42.6988 31.0541 41.4532 30.8808Z" fill="white"/>
<path d="M75.0834 30.9088H75.0832C74.9865 30.2152 73.752 30.0174 72.5808 30.1803C71.4113 30.3433 70.277 30.8711 70.3718 31.5663C70.4479 32.1069 71.4236 33.0298 72.5792 33.0296C72.6766 33.0296 72.7752 33.0231 72.8744 33.0092C73.6457 32.9024 74.2116 32.4126 74.4803 32.1302C74.8899 31.7002 75.1266 31.2205 75.0834 30.9088Z" fill="white"/>
<path d="M94.3801 60.6157C93.9505 59.3168 92.5681 58.8987 90.271 59.3732C83.4509 60.7807 81.0085 59.8057 80.2063 59.2151C85.5077 51.1391 89.8686 41.3774 92.2212 32.2692C93.3358 27.9548 93.9514 23.9481 94.0016 20.6825C94.0571 17.0976 93.4469 14.4637 92.1876 12.8546C87.1109 6.36774 79.6604 2.88825 70.6413 2.79263C64.441 2.72298 59.2024 4.30988 58.1868 4.75598C56.0481 4.22411 53.7166 3.89759 51.1786 3.85594C46.5238 3.78069 42.5006 4.89506 39.1694 7.16634C37.7224 6.62797 33.9829 5.3443 29.4101 4.60773C21.5038 3.33458 15.2214 4.29913 10.738 7.47539C5.38829 11.2655 2.91859 18.0404 3.39717 27.6115C3.55819 30.8319 5.39277 40.7378 8.28843 50.2247C12.0998 62.7109 16.2426 69.7796 20.602 71.2335C21.1122 71.4037 21.7007 71.5229 22.3493 71.5229C23.9395 71.5229 25.889 70.806 27.9175 68.3674C31.2868 64.314 34.4326 60.9173 35.5922 59.6832C37.3059 60.6031 39.1882 61.1166 41.1139 61.1682C41.1173 61.2185 41.1224 61.2689 41.1269 61.3191C40.7406 61.7773 40.4237 62.1788 40.1536 62.5217C38.8195 64.2152 38.5419 64.5677 34.2474 65.4521C33.026 65.704 29.7812 66.3727 29.734 68.6469C29.6822 71.1316 33.5689 72.1752 34.0118 72.2859C35.555 72.6722 37.0416 72.8627 38.4594 72.8627C41.9078 72.8625 44.9421 71.7293 47.3672 69.5367C47.2924 78.3949 47.6619 87.1238 48.7255 89.7834C49.5964 91.9604 51.7246 97.2814 58.4468 97.281C59.4329 97.281 60.5188 97.1663 61.7131 96.9103C68.7285 95.4061 71.7749 92.3055 72.9536 85.4697C73.5842 81.8164 74.6665 73.0923 75.1753 68.4129C76.2496 68.7479 77.6327 68.9013 79.1278 68.9011C82.2461 68.9011 85.844 68.2387 88.1005 67.1913C90.6352 66.0142 95.2096 63.1252 94.3801 60.6157ZM77.6733 28.9942C77.65 30.3757 77.4598 31.6298 77.2583 32.939C77.0415 34.347 76.8171 35.8026 76.7607 37.5698C76.7049 39.2895 76.9197 41.0775 77.1275 42.8064C77.5472 46.2987 77.9778 49.8941 76.3105 53.4419C76.0514 52.9817 75.8013 52.4796 75.572 51.9236C75.3648 51.4212 74.9149 50.6144 74.2921 49.4975C71.8681 45.1507 66.1919 34.9713 69.0976 30.8175C69.9629 29.5809 72.1594 28.31 77.6733 28.9942ZM70.99 5.59019C79.0709 5.76868 85.4631 8.79176 89.9891 14.575C93.4603 19.011 89.6379 39.1955 78.5724 56.6086C78.4631 56.4697 78.3518 56.3295 78.2367 56.1857C78.1908 56.1282 78.144 56.0697 78.0968 56.0106C80.9561 51.2882 80.3969 46.616 79.8993 42.4734C79.6948 40.7734 79.5018 39.1677 79.5508 37.6596C79.6017 36.0606 79.8131 34.6898 80.0173 33.3641C80.2688 31.7301 80.5244 30.0398 80.4538 28.0469C80.5064 27.8379 80.5277 27.5909 80.5002 27.2977C80.3201 25.3866 78.1384 19.6676 73.6912 14.4906C71.2589 11.6594 67.7114 8.49077 62.8678 6.35363C64.9512 5.92186 67.8003 5.5192 70.99 5.59019ZM25.771 66.5826C23.5362 69.2695 21.9927 68.7546 21.4853 68.5856C18.1782 67.4824 14.3413 60.4932 10.9583 49.4097C8.03111 39.8196 6.32037 30.1762 6.1851 27.472C5.75758 18.9198 7.83068 12.9594 12.347 9.75653C19.697 4.54413 31.7813 7.66396 36.6369 9.24638C36.5671 9.31513 36.4945 9.37962 36.4253 9.4495C28.4575 17.4966 28.6465 31.2453 28.6659 32.0855C28.6653 32.4098 28.6924 32.8689 28.7298 33.5004C28.8668 35.8127 29.1219 40.1166 28.4404 44.9906C27.8069 49.5197 29.203 53.9528 32.2702 57.153C32.5877 57.4842 32.9192 57.7953 33.2616 58.088C31.8962 59.5501 28.9291 62.7833 25.771 66.5826ZM34.2857 55.2214C31.8135 52.6422 30.6909 49.0543 31.2051 45.3771C31.9248 40.2283 31.659 35.7442 31.5164 33.3352C31.4964 32.9981 31.4787 32.7027 31.4682 32.4696C32.6323 31.4377 38.0265 28.5472 41.8733 29.4286C43.6291 29.8308 44.6984 31.026 45.1432 33.0823C47.4449 43.7273 45.448 48.1641 43.8434 51.7294C43.5126 52.464 43.2002 53.1582 42.9333 53.8766L42.7266 54.4318C42.203 55.8357 41.7159 57.1409 41.414 58.3804C38.7862 58.3724 36.2296 57.25 34.2857 55.2214ZM34.689 69.5776C33.9218 69.3859 33.2316 69.0529 32.8267 68.7768C33.1648 68.6176 33.7668 68.4012 34.8106 68.1862C39.8627 67.146 40.6427 66.4121 42.3465 64.2488C42.7373 63.753 43.18 63.1906 43.7932 62.5058C43.7934 62.5054 43.7937 62.5051 43.7939 62.5049C44.7074 61.4824 45.125 61.6557 45.8827 61.9699C46.4967 62.2241 47.0947 62.9936 47.3372 63.8405C47.4519 64.2405 47.5809 64.9999 47.1592 65.5905C43.6 70.5738 38.4137 70.5097 34.689 69.5776ZM61.128 94.1808C54.9476 95.5051 52.7594 92.3516 51.3174 88.7467C50.3867 86.4192 49.9294 75.9243 50.2539 64.3348C50.2582 64.1805 50.2362 64.0316 50.1937 63.8916C50.1567 63.6213 50.0998 63.3478 50.021 63.0726C49.5382 61.3863 48.3622 59.9756 46.9513 59.3909C46.3908 59.1587 45.3618 58.7325 44.1253 59.0487C44.3891 57.9623 44.8465 56.7358 45.342 55.4073L45.5501 54.8483C45.7843 54.2184 46.0779 53.5658 46.3888 52.8751C48.0679 49.1446 50.3677 44.0352 47.8718 32.4922C46.9368 28.1689 43.8149 26.0577 39.0822 26.548C36.2448 26.8416 33.6492 27.9864 32.3546 28.6428C32.0762 28.7839 31.8216 28.92 31.5838 29.0528C31.945 24.6966 33.3104 16.5558 38.4173 11.4052C41.6326 8.16247 45.9149 6.56101 51.1325 6.64723C61.4128 6.81564 68.0052 12.0914 71.7256 16.4877C74.9315 20.2763 76.6675 24.0924 77.3604 26.1505C72.1502 25.6208 68.6067 26.6494 66.8102 29.2174C62.9023 34.8036 68.9482 45.6463 71.854 50.8571C72.3867 51.8123 72.8467 52.6375 72.9914 52.9882C73.9376 55.2814 75.1626 56.8124 76.057 57.9301C76.3311 58.2725 76.5972 58.6046 76.7994 58.8946C75.2215 59.3497 72.387 60.4007 72.6452 65.6547C72.4369 68.2913 70.9553 80.6344 70.2028 84.9954C69.2094 90.7567 67.0892 92.9028 61.128 94.1808ZM86.925 64.6593C85.3115 65.4084 82.6111 65.9703 80.0458 66.0908C77.2124 66.2236 75.7701 65.7734 75.4309 65.4966C75.2714 62.2225 76.4904 61.8803 77.7801 61.5182C77.9828 61.4611 78.1805 61.4058 78.3713 61.339C78.49 61.4356 78.6199 61.5314 78.7621 61.6252C81.0394 63.1284 85.1014 63.2905 90.8356 62.1069C90.8567 62.1025 90.8777 62.0984 90.8985 62.0942C90.1253 62.8173 88.8017 63.7879 86.925 64.6593Z" fill="white"/>
</svg>
