<svg width="111" height="100" viewBox="0 0 111 100" fill="none" xmlns="http://www.w3.org/2000/svg">
<g clip-path="url(#clip0_494_11)">
<path d="M0.327148 49.8914C0.327148 58.2457 8.46152 66.0444 21.2854 70.4405C18.7245 83.3696 20.8267 93.7909 27.8474 97.8514C35.0635 102.025 45.8143 99.1362 56.0183 90.1905C65.9649 98.7749 76.0172 102.153 83.0318 98.0809C90.2414 93.8953 92.4338 82.7675 89.8022 69.4344C103.159 65.0057 110.631 58.3557 110.631 49.8914C110.631 41.7309 102.482 34.6714 89.8304 30.3035C92.6636 16.4196 90.2631 6.25138 82.9516 2.02311C75.9027 -2.05341 65.7334 1.49964 55.6407 10.3083C45.1406 0.958766 35.0718 -1.89558 27.768 2.34442C20.7257 6.43268 18.7163 17.0435 21.2854 30.2118C8.89419 34.5444 0.327148 41.764 0.327148 49.8914Z" fill="white"/>
<path d="M87.151 34.6408C86.1083 34.2821 85.0568 33.9498 83.9975 33.6443C84.1731 32.9283 84.3356 32.2092 84.4847 31.4873C86.8718 19.8664 85.3111 10.5047 79.9812 7.42295C74.8712 4.4673 66.5135 7.54904 58.0726 14.9156C57.2409 15.6431 56.4276 16.3916 55.6336 17.1603C55.1018 16.6492 54.5607 16.1479 54.0104 15.6569C45.1642 7.77947 36.2972 4.46034 30.9729 7.55121C25.8677 10.5151 24.3555 19.3164 26.5045 30.3295C26.7183 31.4201 26.9597 32.5051 27.2285 33.5834C25.9739 33.9408 24.7621 34.3216 23.6029 34.7269C13.2319 38.353 6.6084 44.0364 6.6084 49.9312C6.6084 56.0199 13.7183 62.1269 24.5211 65.8295C25.397 66.1283 26.2803 66.4052 27.17 66.6599C26.881 67.8216 26.6243 68.9912 26.4005 70.1673C24.3516 80.989 25.9518 89.5816 31.0436 92.5273C36.3028 95.5686 45.1295 92.4425 53.7247 84.9077C54.4041 84.3121 55.086 83.6803 55.7688 83.0182C56.6289 83.8504 57.5119 84.6584 58.4169 85.4412C66.7424 92.626 74.9648 95.5273 80.0523 92.5738C85.3067 89.5234 87.014 80.2925 84.7969 69.0616C84.6278 68.2038 84.4306 67.3277 84.2095 66.4356C84.8294 66.2521 85.4377 66.0625 86.0312 65.8651C97.2614 62.1338 104.568 56.1012 104.568 49.9312C104.568 44.0151 97.7309 38.2934 87.151 34.6408Z" fill="#53C1DE"/>
<path d="M84.7151 61.8818C84.1797 62.0597 83.6299 62.2314 83.0698 62.3979C81.8299 58.4618 80.1565 54.2762 78.1093 49.9523C80.0633 45.7305 81.6717 41.5988 82.8769 37.6879C83.8788 37.9792 84.8516 38.2857 85.7889 38.6097C94.8541 41.7388 100.383 46.3662 100.383 49.9314C100.383 53.7292 94.4115 58.6597 84.7155 61.8818H84.7151ZM80.6919 69.8771C81.6721 74.8431 81.8121 79.3331 81.1627 82.8431C80.5792 85.9971 79.406 88.0997 77.9554 88.9418C74.8682 90.734 68.266 88.4044 61.1465 82.2601C60.3302 81.5557 59.5077 80.8036 58.6832 80.0079C61.4435 76.9801 64.202 73.4601 66.8943 69.5514C71.6302 69.1301 76.1042 68.441 80.1617 67.5005C80.3611 68.3092 80.5388 69.1018 80.6919 69.8771ZM40.0048 88.6323C36.9888 89.7005 34.5865 89.731 33.1346 88.8914C30.0444 87.1044 28.7603 80.2044 30.5122 70.9501C30.7205 69.8564 30.9591 68.7688 31.2275 67.6884C35.2399 68.5784 39.6814 69.2188 44.4286 69.6049C47.1386 73.4297 49.977 76.9453 52.8374 80.024C52.2295 80.6138 51.6072 81.1884 50.971 81.7475C47.1703 85.0797 43.3617 87.4431 40.0053 88.6323H40.0048ZM25.8747 61.8584C21.098 60.221 17.1533 58.0931 14.4494 55.7714C12.0199 53.6844 10.793 51.6127 10.793 49.9314C10.793 46.3544 16.1111 41.7914 24.9808 38.6901C26.094 38.3025 27.2184 37.9478 28.3523 37.6262C29.5784 41.6249 31.1863 45.8058 33.1268 50.0336C31.1612 54.3244 29.5303 58.5718 28.293 62.6175C27.4808 62.3844 26.6745 62.1312 25.8747 61.8584ZM30.6115 29.5236C28.7703 20.0875 29.9928 12.9697 33.0696 11.1836C36.3471 9.28096 43.5936 11.994 51.2316 18.7953C51.7198 19.2301 52.2101 19.6853 52.7013 20.1562C49.8556 23.221 47.0432 26.7101 44.3566 30.5127C39.7495 30.941 35.3392 31.6288 31.2848 32.5501C31.035 31.5469 30.8105 30.5376 30.6115 29.5231V29.5236ZM72.8666 39.9875C71.909 38.3285 70.9158 36.6905 69.8878 35.0744C73.0136 35.4701 76.008 35.9962 78.8199 36.6401C77.9758 39.3536 76.9236 42.191 75.6846 45.0997C74.7793 43.377 73.8398 41.6726 72.8666 39.9875ZM55.635 23.1553C57.5651 25.2523 59.4982 27.594 61.3997 30.1344C57.5425 29.9517 53.679 29.9508 49.8218 30.1318C51.725 27.6149 53.6746 25.2766 55.635 23.1553ZM38.2928 40.0162C37.3318 41.6879 36.4099 43.3818 35.5277 45.0966C34.3091 42.1979 33.2664 39.3479 32.415 36.5957C35.21 35.9684 38.1905 35.4557 41.2959 35.0666C40.2564 36.6927 39.2551 38.343 38.2928 40.0162ZM41.3852 65.0958C38.1771 64.7366 35.1514 64.2501 32.3573 63.6401C33.2222 60.8392 34.2878 57.9279 35.5325 54.9671C36.4184 56.6831 37.3444 58.3781 38.3097 60.0505C39.2948 61.7565 40.3202 63.4388 41.3852 65.0958ZM55.7507 77.004C53.7673 74.8575 51.7891 72.4836 49.8569 69.9301C51.7323 70.004 53.6446 70.0414 55.5882 70.0414C57.585 70.0414 59.5589 69.9966 61.5016 69.9097C59.594 72.5097 57.6678 74.8871 55.7507 77.004ZM75.7245 54.8162C77.0337 57.8092 78.1375 60.7049 79.0141 63.4584C76.1736 64.1084 73.1072 64.6318 69.8761 65.0205C70.9115 63.3743 71.9142 61.7076 72.8835 60.0214C73.8689 58.3077 74.8161 56.5722 75.7245 54.8162ZM69.2583 57.9249C67.7744 60.5101 66.2071 63.0462 64.5588 65.5292C61.6524 65.7375 58.6489 65.8449 55.5882 65.8449C52.54 65.8449 49.5746 65.7497 46.719 65.564C45.0279 63.0868 43.431 60.5463 41.9315 57.9479C40.439 55.3634 39.0449 52.7229 37.7522 50.0323C39.0416 47.3408 40.4315 44.6989 41.9189 42.1123V42.1131C43.4058 39.5259 44.9902 36.9963 46.6687 34.5297C49.582 34.3088 52.569 34.1931 55.5886 34.1931C58.6216 34.1931 61.6125 34.3097 64.525 34.5323C66.1865 36.9951 67.7607 39.5159 69.2449 42.0901C70.7374 44.671 72.1458 47.2999 73.4679 49.9727C72.1595 52.6727 70.7555 55.3251 69.2588 57.9249H69.2583ZM77.8913 11.0588C81.1714 12.9562 82.4473 20.6071 80.3862 30.6405C80.2512 31.2942 80.1043 31.9453 79.9458 32.5936C75.8818 31.6531 71.4685 30.9531 66.8479 30.5184C64.1561 26.6744 61.3672 23.1792 58.5674 20.154C59.3011 19.4447 60.0522 18.7537 60.82 18.0818C68.0522 11.7697 74.8114 9.27748 77.8913 11.0588Z" fill="white"/>
<path d="M55.5882 41.1588C60.4195 41.1588 64.3356 45.0866 64.3356 49.9313C64.3356 54.7766 60.4195 58.7044 55.5882 58.7044C50.7574 58.7044 46.8408 54.7766 46.8408 49.9313C46.8408 45.0866 50.7574 41.1588 55.5882 41.1588Z" fill="#53C1DE"/>
</g>
<defs>
<clipPath id="clip0_494_11">
<rect width="110.989" height="100" fill="white"/>
</clipPath>
</defs>
</svg>
