<svg viewBox="0 0 105 100" fill="none" xmlns="http://www.w3.org/2000/svg">
  <g clip-path="url(#clip0_494_16)">
    <path
      d="M72.4973 69.5619C76.3584 69.1611 79.2876 65.8236 79.1544 61.8182C79.0215 57.8132 75.6926 54.6089 71.6983 54.6089H71.4322C67.3042 54.7425 64.1089 58.2136 64.2422 62.3522C64.3754 64.3549 65.174 66.0904 66.3724 67.292C61.8455 76.2372 54.922 82.7789 44.5367 88.2526C37.4799 91.9908 30.157 93.326 22.8342 92.3916C16.8425 91.5905 12.1824 88.9206 9.25277 84.5144C4.99238 77.9727 4.59307 70.8966 8.18808 63.8209C10.718 58.7476 14.7119 55.0093 17.2418 53.1402C16.7093 51.4047 15.9102 48.4676 15.5109 46.3317C-3.79528 60.3499 -1.79792 79.3078 4.06052 88.2526C8.45415 94.9283 17.3751 99.0669 27.2278 99.0669C29.8906 99.0669 32.5533 98.7997 35.2164 98.1326C52.2592 94.7947 65.1744 84.648 72.4973 69.5619ZM95.9311 53.007C85.8118 41.1248 70.8996 34.5831 53.8569 34.5831H51.7267C50.5283 32.18 47.9984 30.5776 45.2024 30.5776H44.936C40.8088 30.7112 37.6135 34.1823 37.7464 38.3213C37.8796 42.3263 41.2081 45.5306 45.2024 45.5306H45.4685C48.3977 45.397 50.9276 43.5279 51.9927 40.9912H54.3894C64.5087 40.9912 74.0949 43.9282 82.7498 49.6692C89.4068 54.075 94.2002 59.8159 96.8629 66.758C99.1263 72.3653 98.9931 77.8391 96.5964 82.5121C92.8686 89.5878 86.6108 93.4596 78.3557 93.4596C73.0298 93.4596 67.9704 91.8572 65.3073 90.6557C63.8429 91.9908 61.1797 94.1267 59.3156 95.4623C65.0412 98.1322 70.8996 99.6009 76.4916 99.6009C89.2736 99.6009 98.727 92.5248 102.322 85.4492C106.183 77.7055 105.917 64.3549 95.9311 53.007ZM28.2929 71.831C28.4261 75.8364 31.7547 79.0402 35.749 79.0402H36.0155C40.143 78.907 43.3383 75.4356 43.2051 71.297C43.0723 67.2916 39.7433 64.0877 35.749 64.0877H35.4829C35.2164 64.0877 34.8167 64.0877 34.5511 64.2209C29.0919 55.1425 26.8285 45.2634 27.6275 34.5827C28.1597 26.5722 30.8228 19.6297 35.4829 13.8888C39.344 8.94902 46.8001 6.54593 51.8599 6.41274C65.9731 6.14555 71.9643 23.7683 72.364 30.8444C74.0949 31.2448 77.0242 32.1796 79.0215 32.8471C77.4235 11.2193 64.1089 0.00463867 51.3274 0.00463867C39.344 0.00463867 28.2929 8.68264 23.8989 21.4993C17.7744 38.5881 21.7687 55.0093 29.2248 67.9595C28.5594 68.8939 28.1597 70.3626 28.2929 71.8314V71.831Z"
      fill="#764ABC" />
  </g>
  <defs>
    <clipPath id="clip0_494_16">
      <rect width="104.63" height="100" fill="white" />
    </clipPath>
  </defs>
</svg>