<svg viewBox="0 0 105 105" fill="none" xmlns="http://www.w3.org/2000/svg">
<path d="M14.9719 0C14.0663 0 13.3477 0.735 13.3477 1.62422V87.0056C15.8775 80.4956 20.1661 71.1802 27.0698 58.4325C52.0205 12.5803 55.2853 7.96688 68.2725 7.96688C75.0909 7.96688 81.9783 11.0447 86.4375 16.5112C80.1834 6.39516 69.2109 0.173906 57.3164 0.00328125L14.9719 0ZM70.6153 11.1267C65.4014 11.1792 60.7388 13.1775 58.8061 17.6892C54.5864 27.5494 65.9166 38.5383 70.8713 37.6687C77.1778 36.5564 69.7589 22.0828 69.7589 22.0828C79.3992 40.2675 77.1745 34.6959 59.7281 51.3909C42.2948 68.0892 24.4875 103.343 21.892 104.813C21.7739 104.898 21.6525 104.951 21.5344 105H89.9452C91.1428 104.984 91.927 103.737 91.3987 102.657L73.5061 67.2459C73.1123 66.4781 73.388 65.5364 74.1394 65.1098C84.9741 58.905 91.6744 47.355 91.658 34.86C91.658 28.6387 90.0337 22.7948 87.1627 17.7188C83.0939 13.5483 76.515 11.0873 70.6186 11.1234L70.6153 11.1267Z" fill="#809AAD"/>
</svg>
