<svg viewBox="0 0 134 100" fill="none" xmlns="http://www.w3.org/2000/svg">
  <g clip-path="url(#clip0_494_36)">
    <path
      d="M115.281 57.4479C110.597 57.4742 106.542 58.5938 103.14 60.2607C101.885 57.7867 100.629 55.625 100.42 54.0107C100.184 52.1357 99.8963 50.9896 100.184 48.7503C100.472 46.5104 101.78 43.3334 101.78 43.0729C101.753 42.8386 101.492 41.6927 98.7972 41.6667C96.1025 41.6406 93.7736 42.1875 93.5119 42.8906C93.2503 43.5938 92.727 45.2084 92.3869 46.875C91.9159 49.3229 86.997 57.9948 84.1974 62.5521C83.2816 60.7813 82.4967 59.2188 82.3394 57.9685C82.1042 56.0938 81.8161 54.9477 82.1042 52.7084C82.392 50.4685 83.7002 47.2917 83.7002 47.0313C83.6741 46.7969 83.4124 45.6511 80.7178 45.625C78.0225 45.599 75.6942 46.1459 75.4325 46.849C75.1709 47.5521 74.8831 49.2188 74.3074 50.8334C73.7577 52.4479 67.2166 66.9271 65.5159 70.7031C64.6525 72.6302 63.894 74.1667 63.3443 75.2084C62.7948 76.25 63.3181 75.2865 63.2658 75.3906C62.7948 76.2761 62.5332 76.7709 62.5332 76.7709V76.7972C62.1669 77.4482 61.7744 78.0729 61.591 78.0729C61.4601 78.0729 61.1985 76.3281 61.6433 73.9326C62.6114 68.9063 64.9662 61.068 64.9403 60.7815C64.9403 60.6513 65.3848 59.2709 63.4225 58.568C61.5125 57.8649 60.8325 59.0367 60.6752 59.0367C60.5182 59.0367 60.3874 59.4534 60.3874 59.4534C60.3874 59.4534 62.5067 50.6255 56.3319 50.6255C52.4596 50.6255 47.122 54.8182 44.4794 58.6464C42.8049 59.5578 39.2465 61.4847 35.4788 63.5422C34.0397 64.3235 32.5484 65.1568 31.1355 65.912L30.8479 65.599C23.3649 57.6563 9.52387 52.0313 10.0995 41.3542C10.3088 37.474 11.6694 27.2396 36.6829 14.8438C57.1697 4.68752 73.5748 7.47398 76.4265 13.6719C80.482 22.5261 67.6614 38.9844 46.3638 41.3542C38.2528 42.2656 33.9877 39.1406 32.9152 37.9688C31.7901 36.7448 31.6331 36.6927 31.2145 36.9271C30.5342 37.2917 30.9529 38.3854 31.2145 39.0365C31.8425 40.6771 34.4589 43.5938 38.9069 45.0521C42.8051 46.3281 52.3293 47.0313 63.8416 42.6042C76.7407 37.6302 86.8141 23.8281 83.8575 12.2917C80.8486 0.5469 61.2775 -3.30727 42.7792 3.22919C31.7637 7.13544 19.8327 13.2292 11.2507 21.224C1.04657 30.7031 -0.575629 38.9844 0.104648 42.4219C2.48588 54.6875 19.4664 62.6823 26.2692 68.5938C25.929 68.7758 25.615 68.9581 25.3272 69.1146C21.9258 70.781 8.97441 77.5261 5.73002 84.6612C2.06699 92.7341 6.30564 98.5417 9.1314 99.3229C17.8703 101.745 26.8186 97.3959 31.659 90.2344C36.473 83.0729 35.8977 73.7761 33.6737 69.5313L33.595 69.375L36.2637 67.8125C37.9908 66.7969 39.6915 65.8594 41.1827 65.0518C40.3457 67.3175 39.7436 69.9998 39.4299 73.906C39.0636 78.4896 40.9474 84.4268 43.4331 86.7706C44.532 87.786 45.8402 87.8123 46.6513 87.8123C49.5294 87.8123 50.8376 85.4422 52.2767 82.6039C54.0559 79.1404 55.6257 75.13 55.6257 75.13C55.6257 75.13 53.6634 85.9893 59.0271 85.9893C60.9895 85.9893 62.9518 83.4633 63.8414 82.1612V82.1873C63.8414 82.1873 63.8937 82.1091 63.9984 81.9268C64.1082 81.7653 64.2129 81.6004 64.3123 81.4323V81.3802C65.0973 80.0261 66.8503 76.9271 69.4668 71.7969C72.8417 65.1823 76.0864 56.9011 76.0864 56.9011C76.0864 56.9011 76.4003 58.9323 77.3684 62.2656C77.9438 64.2451 79.1997 66.4063 80.1678 68.5156C79.3828 69.6094 78.9119 70.2347 78.9119 70.2347L78.938 70.2607C78.3104 71.094 77.6036 71.9797 76.8713 72.8649C74.2025 76.0419 71.0105 79.662 70.5918 80.7037C70.0947 81.9274 70.1994 82.8388 71.1674 83.5683C71.8739 84.0891 73.1298 84.193 74.4642 84.0891C76.8713 83.9326 78.5458 83.3339 79.3831 82.969C80.6913 82.5003 82.1827 81.7972 83.6217 80.7555C86.2382 78.8287 87.8342 76.0943 87.6772 72.4485C87.5988 70.4433 86.9446 68.4641 86.1335 66.5891C86.369 66.2505 86.6048 65.9117 86.84 65.5474C90.974 59.5315 94.166 52.9172 94.166 52.9172C94.166 52.9172 94.48 54.9485 95.4481 58.2818C95.945 59.9745 96.9395 61.8237 97.8291 63.6466C93.9567 66.7977 91.5234 70.4435 90.6862 72.8393C89.1425 77.2664 90.346 79.2716 92.6223 79.7404C93.6425 79.9487 95.108 79.48 96.2066 79.0112C97.5672 78.5685 99.2155 77.813 100.733 76.6935C103.35 74.7664 105.862 72.0841 105.731 68.4643C105.652 66.7977 105.207 65.1571 104.606 63.5946C107.902 62.2404 112.167 61.4591 117.583 62.1102C129.226 63.4643 131.529 70.7039 131.084 73.7248C130.64 76.7459 128.206 78.4123 127.395 78.9331C126.584 79.4279 126.322 79.6104 126.401 79.9748C126.505 80.5219 126.872 80.4956 127.578 80.3917C128.546 80.2352 133.701 77.9177 133.91 72.3451C134.224 65.1826 127.395 57.3701 115.281 57.4479ZM25.4842 87.5781C21.638 91.7709 16.222 93.3594 13.9195 92.0052C11.4339 90.5729 12.4017 84.4011 17.1377 79.9479C20.0158 77.2396 23.7574 74.7396 26.2168 73.2031C26.7663 72.8646 27.6035 72.3701 28.5978 71.7709C28.7548 71.667 28.8594 71.6146 28.8594 71.6146C29.0426 71.5104 29.2519 71.3802 29.4612 71.25C31.2142 77.6042 29.5397 83.1771 25.4842 87.5781ZM53.6111 68.5417C52.2767 71.7969 49.4509 80.1563 47.7502 79.6875C46.2847 79.2969 45.3954 72.9688 47.4621 66.7188C48.5087 63.5675 50.7327 59.8177 52.0409 58.3591C54.1605 56.0154 56.4627 55.2341 57.0386 56.1977C57.7189 57.4479 54.4483 66.5104 53.6111 68.5417ZM76.819 79.5834C76.2434 79.8701 75.7201 80.0781 75.4846 79.9222C75.3014 79.818 75.7198 79.4274 75.7198 79.4274C75.7198 79.4274 78.6241 76.3284 79.7753 74.8961C80.4294 74.063 81.2143 73.0995 82.0516 72.0055V72.318C82.0519 76.0677 78.4412 78.5677 76.819 79.5834ZM94.7152 75.5209C94.2966 75.2084 94.3492 74.2448 95.7618 71.224C96.3115 70.0261 97.5672 68.0209 99.7388 66.1198C100 66.9011 100.158 67.656 100.131 68.3594C100.105 73.0469 96.7563 74.7917 94.7152 75.5209Z"
      fill="#CF649A" />
  </g>
  <defs>
    <clipPath id="clip0_494_36">
      <rect width="133.962" height="100" fill="white" />
    </clipPath>
  </defs>
</svg>