<svg viewBox="0 0 103 103" fill="none" xmlns="http://www.w3.org/2000/svg">
<g clip-path="url(#clip0_3046_114)">
<path d="M92.1463 0.00131663C92.3972 -0.0145339 92.6352 0.113732 92.7599 0.331972C92.8846 0.550211 92.8743 0.820393 92.7333 1.02847L67.3479 35.5115C67.1619 35.7214 66.8948 35.8416 66.6142 35.8416C66.3337 35.8416 66.0666 35.7214 65.8806 35.5115L56.9296 25.5334C56.711 25.3065 56.4012 25.191 56.0874 25.2195C55.7736 25.2481 55.4897 25.4175 55.3155 25.6801L49.8863 32.5767C49.7145 32.9651 49.771 33.4165 50.0331 33.7506L66.174 50.4785C66.3601 50.6885 66.6272 50.8087 66.9077 50.8087C67.1882 50.8087 67.4553 50.6885 67.6414 50.4785L99.3364 14.8217C99.5235 14.6205 99.8135 14.5522 100.071 14.6487C100.328 14.7452 100.502 14.9873 100.51 15.2619V101.983C100.522 102.181 100.449 102.375 100.309 102.515C100.168 102.655 99.9746 102.729 99.7766 102.717H3.22424C3.02618 102.729 2.83243 102.655 2.69212 102.515C2.5518 102.375 2.47841 102.181 2.49056 101.983V0.734997C2.47841 0.536939 2.5518 0.343186 2.69212 0.202875C2.83243 0.0625637 3.02618 -0.0108265 3.22424 0.00131663H92.1463ZM67.2012 58.549C62.8327 58.4722 58.6225 60.1839 55.5469 63.2872C52.4713 66.3905 50.7975 70.6158 50.9135 74.9835C50.9135 85.1082 58.2503 91.5646 67.7881 91.5646C72.2033 91.6745 76.5329 90.3344 80.114 87.7495C80.4459 87.4481 80.5082 86.9495 80.2607 86.5756L77.6194 82.6137C77.3225 82.2732 76.8172 82.2101 76.4455 82.467C74.1498 84.0348 71.4479 84.9015 68.6685 84.9615C63.5328 84.9615 60.3046 81.7333 59.7176 77.9182C59.7283 77.7607 59.8536 77.6354 60.0111 77.6247H82.1683C82.6406 77.5928 83.0167 77.2167 83.0487 76.7443V75.8639C83.0487 65.5924 76.5923 58.549 67.2012 58.549ZM45.3375 52.973C40.8806 49.33 35.2413 47.4502 29.49 47.6905C19.5119 47.6905 13.349 53.56 13.349 60.6033C13.349 76.5976 37.7072 71.4618 37.7072 78.9453C37.7072 81.2931 35.3594 83.6409 30.3704 83.6409C25.6321 83.68 21.0606 81.8934 17.6044 78.6519C17.398 78.4589 17.1185 78.3644 16.8374 78.3925C16.5564 78.4206 16.3011 78.5686 16.137 78.7986L12.3219 84.0811C12.0743 84.455 12.1366 84.9536 12.4686 85.255C16.4305 88.9234 22.0065 91.4179 29.7835 91.4179C41.2289 91.4179 46.8049 85.5485 47.0983 77.9182C47.0983 62.0707 22.7401 66.6195 22.7401 59.8696C22.7401 57.3751 24.9412 55.6143 28.7563 55.6143C32.9619 55.5567 37.0579 56.9565 40.3485 59.5762C40.5419 59.7347 40.7911 59.8084 41.0397 59.7808C41.2882 59.7532 41.5151 59.6265 41.6691 59.4294L45.4842 54.2937C45.6427 54.1002 45.7165 53.851 45.6889 53.6025C45.6613 53.3539 45.5346 53.127 45.3375 52.973ZM67.3479 65.0054C71.339 64.7822 74.7844 67.7725 75.1249 71.7553C75.1143 71.9127 74.9889 72.0381 74.8315 72.0487H59.8644C59.7069 72.0381 59.5815 71.9127 59.5709 71.7553C60.0615 67.8507 63.4132 64.9418 67.3479 65.0054Z" fill="#809AAD"/>
</g>
</svg>
