<svg viewBox="0 0 100 100" fill="none" xmlns="http://www.w3.org/2000/svg">
  <g clip-path="url(#clip0_503_294)">
    <path
      d="M49.7402 0.0656192C45.5558 0.0812442 41.3902 0.603119 37.337 1.64374C17.837 6.49374 2.3589 24.1531 0.374525 44.1844C-2.08485 63.1312 7.50265 82.875 23.8902 92.6562C39.9902 102.731 61.7808 102.328 77.537 91.7312C91.6995 82.5344 100.503 65.7844 99.9839 48.8719C99.7433 32.1437 90.3495 15.8812 75.9745 7.28749C68.1464 2.45312 58.937 0.0281192 49.7402 0.0624942V0.0656192ZM49.462 7.12812C70.0652 7.09374 90.2495 23.0281 92.3152 44.3187C96.2558 67.9031 76.6745 91.8781 52.7808 92.5781C30.0589 94.8406 8.0839 75.5687 7.4339 52.75C5.74328 34.2781 17.9339 15.9344 35.3464 9.82812C39.837 8.04062 44.6245 7.12812 49.4589 7.14374L49.462 7.12812ZM70.687 20.575C59.487 29.2625 48.762 38.525 37.8089 47.4781C42.8214 47.5406 47.8683 47.5406 52.8964 47.5062C58.7714 38.4906 64.812 29.5906 70.687 20.5719V20.575ZM47.087 52.4594C41.212 61.4937 35.1589 70.4094 29.2777 79.4437C40.512 70.7687 51.187 61.4437 62.2058 52.5406C57.1589 52.4781 52.1152 52.4625 47.0839 52.4625L47.087 52.4594Z"
      fill="#809AAD" />
  </g>
  <defs>
    <clipPath id="clip0_503_294">
      <rect fill="white" />
    </clipPath>
  </defs>
</svg>