<svg  viewBox="0 0 99 99" fill="none" xmlns="http://www.w3.org/2000/svg">
<g clip-path="url(#clip0_3046_117)">
<path d="M25.3894 49.7392C25.3894 51.8141 25.7813 53.7281 26.5651 55.4812C27.3488 57.2302 28.4089 58.7524 29.7454 60.0435C31.0819 61.3346 32.6288 62.3535 34.3778 63.0877C36.1804 63.7807 38.0697 64.1273 40.0497 64.1273C42.0338 64.1273 43.9024 63.7807 45.6556 63.0877C47.403 62.3825 48.9993 61.3491 50.3581 60.0435C51.771 58.7275 52.8943 57.1316 53.6563 55.3575C54.4184 53.5834 54.8025 51.67 54.7842 49.7392C54.8022 47.8085 54.418 45.8952 53.656 44.1211C52.8939 42.3471 51.7708 40.7511 50.3581 39.435C49.008 38.1356 47.4082 37.1238 45.6556 36.4609C43.8808 35.7172 41.974 35.3398 40.0497 35.3512C38.0697 35.3512 36.1804 35.7225 34.3819 36.4609C32.6288 37.1497 31.0819 38.1439 29.7454 39.4309C28.4008 40.7337 27.3209 42.2843 26.5651 43.9972C25.7696 45.8059 25.3688 47.7634 25.3894 49.7392ZM11.2118 49.7392C11.2118 45.8659 11.9254 42.273 13.3568 38.9482C14.7356 35.6541 16.7562 32.6674 19.3009 30.162C21.8984 27.6336 24.9813 25.6578 28.3636 24.354C31.9111 22.9268 35.8092 22.209 40.0497 22.209C44.2489 22.209 48.1223 22.9268 51.6698 24.354C55.0777 25.6477 58.1844 27.6257 60.7984 30.1661C63.4104 32.7083 65.4804 35.7532 66.8834 39.1172C68.2865 42.4812 68.9935 46.0945 68.9618 49.7392C68.9618 53.6126 68.2482 57.2302 66.8168 60.5962C65.4151 63.8756 63.3685 66.8397 60.7984 69.3124C58.1757 71.8579 55.0725 73.8561 51.6698 75.1905C48.1223 76.5724 44.2448 77.2654 40.0497 77.2654C35.8092 77.2654 31.9111 76.5724 28.3636 75.1905C24.9863 73.8447 21.9069 71.8473 19.3009 69.3124C16.7664 66.8247 14.7454 63.8632 13.3527 60.5962C11.9089 57.1601 11.1833 53.4663 11.2118 49.7392ZM41.8441 0.0330008C30.4591 -0.362999 19.0741 3.168 9.64844 10.6301L15.9308 14.1653C23.3888 8.6625 32.8144 6.31125 41.8441 6.70313V0.0288758V0.0330008ZM75.2153 14.949C67.3654 6.70313 57.1561 1.6005 46.1629 0.420751V7.095C55.4018 8.60251 63.9243 13.0017 70.5046 19.6597L75.2153 14.949ZM89.3517 47.1446C88.9598 36.9352 85.0328 26.7259 78.3586 18.0923L73.6478 22.803C79.1423 30.261 82.2856 38.5069 82.6774 47.1405L89.3517 47.1446ZM78.3586 80.9078C85.0328 72.27 88.9598 62.0648 89.3517 51.8554H82.6774C82.2856 60.4931 79.1423 68.739 73.6437 76.197L78.3586 80.9078ZM46.1629 98.5793C56.7642 97.3995 67.3654 92.2969 75.2153 84.051L70.5046 79.3402C63.8303 86.4064 55.1926 90.7253 46.1629 91.905V98.5793ZM9.64844 88.3699C18.7753 95.625 30.1921 99.3843 41.8441 98.9711V92.2969C32.8103 92.6888 23.7848 90.3334 15.9308 84.8347L9.64844 88.3699Z" fill="#809AAD"/>
</g>

</svg>
