<svg viewBox="0 0 100 100" fill="none" xmlns="http://www.w3.org/2000/svg">
  <path
    d="M93.3861 19.2063L52.318 92.6428C51.4699 94.1588 49.2917 94.1678 48.4308 92.6591L6.54861 19.2131C5.61111 17.5688 7.01673 15.5772 8.87986 15.91L49.9924 23.2588C50.2546 23.3057 50.5231 23.3052 50.7852 23.2575L91.0377 15.9206C92.8945 15.5822 94.3074 17.5585 93.3861 19.206V19.2063Z"
    fill="url(#paint0_linear_503_199)" />
  <path
    d="M69.5767 6.27158L39.1851 12.2266C38.9422 12.2741 38.7221 12.401 38.5592 12.5874C38.3963 12.7737 38.3 13.0089 38.2854 13.256L36.4161 44.8303C36.3723 45.5741 37.0551 46.1513 37.7807 45.9838L46.2423 44.0313C47.0342 43.8485 47.7495 44.546 47.5867 45.3419L45.0729 57.6522C44.9036 58.4803 45.6814 59.1891 46.4904 58.9435L51.7167 57.3553C52.527 57.1094 53.3054 57.82 53.1342 58.6491L49.1392 77.9856C48.8892 79.195 50.4979 79.8544 51.1689 78.8175L51.617 78.125L76.3817 28.7025C76.7964 27.875 76.0817 26.9316 75.1723 27.1069L66.4629 28.7878C65.6442 28.9456 64.9479 28.1835 65.1789 27.3825L70.8636 7.67626C71.0948 6.87376 70.3961 6.11095 69.5767 6.27158Z"
    fill="url(#paint1_linear_503_199)" />
  <defs>
    <linearGradient id="paint0_linear_503_199" x1="5.5259" y1="13.2852" x2="56.6358" y2="82.6965"
      gradientUnits="userSpaceOnUse">
      <stop stop-color="#41D1FF" />
      <stop offset="1" stop-color="#BD34FE" />
    </linearGradient>
    <linearGradient id="paint1_linear_503_199" x1="47.631" y1="7.88813" x2="56.8765" y2="71.3115"
      gradientUnits="userSpaceOnUse">
      <stop stop-color="#FFEA83" />
      <stop offset="0.0833" stop-color="#FFDD35" />
      <stop offset="1" stop-color="#FFA800" />
    </linearGradient>
  </defs>
</svg>