<svg viewBox="0 0 100 100" fill="none" xmlns="http://www.w3.org/2000/svg">
  <path d="M50.0002 0.0166626L94.1382 24.9837V74.9345L50.0002 99.9016L5.8623 74.9345V24.9837L50.0002 0.0166626Z"
    fill="white" />
  <path
    d="M86.2601 73.2023L51.466 92.9062V77.5828L73.1519 65.6406L86.2601 73.2023ZM88.6418 71.0537V29.8805L75.9168 37.2258V63.7085L88.6418 71.0537ZM13.6074 73.2023L48.4014 92.8895V77.5662L26.7155 65.6406L13.6074 73.2023ZM11.2256 71.0537V29.8805L23.9506 37.2258V63.7085L11.2256 71.0537ZM12.708 27.2156L48.4014 7.02875V21.8524L25.5329 34.4276L25.3497 34.5275L12.708 27.2156ZM87.1428 27.2156L51.466 7.02875V21.8524L74.3178 34.4442L74.501 34.5442L87.1428 27.2156Z"
    fill="#8ED6FB" />
  <path
    d="M48.4017 74.0851L27.0156 62.3094V39.008L48.4017 51.3499V74.0851ZM51.4664 74.0851L72.8524 62.3261V39.008L51.4664 51.3499V74.0851ZM28.448 36.3097L49.934 24.5007L71.4034 36.3097L49.934 48.7016L28.448 36.3097Z"
    fill="#1C78C0" />
</svg>