<svg viewBox="0 0 32 32" fill="none" xmlns="http://www.w3.org/2000/svg">
  <g clip-path="url(#clip0_501_242)">
    <path
      d="M29.2462 8.48185C27.8587 6.10459 25.9767 4.22251 23.5996 2.83519C21.2222 1.44779 18.6268 0.754272 15.8116 0.754272C12.9966 0.754272 10.4004 1.44801 8.02348 2.83519C5.64622 4.22244 3.76428 6.10459 2.37681 8.48185C0.989561 10.859 0.295898 13.455 0.295898 16.2695C0.295898 19.6504 1.2823 22.6906 3.25559 25.3909C5.22866 28.0914 7.77759 29.9601 10.9021 30.997C11.2659 31.0646 11.5351 31.0171 11.7102 30.8558C11.8853 30.6943 11.9727 30.4921 11.9727 30.25C11.9727 30.2096 11.9693 29.8461 11.9626 29.159C11.9556 28.472 11.9524 27.8727 11.9524 27.3613L11.4877 27.4417C11.1914 27.496 10.8177 27.519 10.3664 27.5125C9.91539 27.5062 9.44717 27.4589 8.9624 27.371C8.47741 27.2839 8.02631 27.0819 7.60875 26.7654C7.19141 26.4489 6.89514 26.0346 6.72001 25.5231L6.51798 25.0582C6.38333 24.7487 6.17133 24.4049 5.88171 24.028C5.59209 23.6508 5.29921 23.3951 5.00294 23.2604L4.86149 23.1592C4.76724 23.0919 4.67978 23.0107 4.5989 22.9165C4.51809 22.8223 4.45759 22.7281 4.41719 22.6337C4.37671 22.5392 4.41025 22.4617 4.51816 22.401C4.62607 22.3402 4.82108 22.3107 5.10405 22.3107L5.50795 22.371C5.77734 22.425 6.11055 22.5863 6.50801 22.8558C6.90526 23.1251 7.23181 23.4752 7.48775 23.906C7.79768 24.4584 8.17108 24.8793 8.60902 25.1689C9.0466 25.4585 9.48779 25.6031 9.93217 25.6031C10.3765 25.6031 10.7603 25.5694 11.0837 25.5024C11.4067 25.435 11.7098 25.3338 11.9928 25.1992C12.114 24.2964 12.444 23.6029 12.9826 23.1181C12.215 23.0374 11.5248 22.9159 10.9118 22.7544C10.2992 22.5926 9.66611 22.3301 9.01299 21.9661C8.35952 21.6026 7.81743 21.1513 7.38657 20.6128C6.95564 20.074 6.60198 19.3667 6.32608 18.4915C6.05005 17.6159 5.91199 16.6058 5.91199 15.4611C5.91199 13.8311 6.44411 12.4441 7.50813 11.2992C7.0097 10.0737 7.05675 8.70001 7.64944 7.1781C8.04004 7.05674 8.61928 7.14781 9.38689 7.45074C10.1546 7.7538 10.7168 8.01342 11.0738 8.22867C11.4309 8.44386 11.7169 8.6262 11.9325 8.77409C13.1853 8.42404 14.4782 8.24898 15.8114 8.24898C17.1447 8.24898 18.4378 8.42404 19.6907 8.77409L20.4584 8.28946C20.9834 7.96608 21.6033 7.66974 22.3167 7.40035C23.0305 7.13111 23.5764 7.05696 23.9537 7.17831C24.5595 8.70029 24.6135 10.074 24.1149 11.2994C25.1789 12.4443 25.7112 13.8317 25.7112 15.4613C25.7112 16.606 25.5726 17.6193 25.297 18.5016C25.0211 19.384 24.6644 20.0906 24.2268 20.6229C23.7887 21.1551 23.2432 21.6029 22.59 21.9663C21.9368 22.3301 21.3035 22.5926 20.6908 22.7543C20.0779 22.9161 19.3878 23.0377 18.6202 23.1185C19.3203 23.7243 19.6704 24.6806 19.6704 25.987V30.2494C19.6704 30.4915 19.7546 30.6937 19.9232 30.8552C20.0915 31.0165 20.3573 31.064 20.721 30.9964C23.846 29.9596 26.395 28.0909 28.368 25.3904C30.3408 22.6901 31.3275 19.6499 31.3275 16.2689C31.3268 13.4547 30.6328 10.859 29.2462 8.48185Z"
      fill="#EAD7A6" />
  </g>
  <defs>
    <clipPath id="clip0_501_242">
      <rect width="31.0318" height="31.0318" fill="white" transform="translate(0.294922 0.374512)" />
    </clipPath>
  </defs>
</svg>