<svg viewBox="0 0 27 27" fill="none" xmlns="http://www.w3.org/2000/svg">
  <path
    d="M13.5296 0.564087C8.28047 0.563322 3.53643 3.69219 1.47039 8.5176L1.30688 8.57181L1.37027 8.762C-1.34998 15.4711 1.8836 23.1152 8.59274 25.8354C10.1597 26.4708 11.8348 26.7969 13.5257 26.796C20.7694 26.7971 26.6425 20.9257 26.6436 13.682C26.6447 6.43829 20.7734 0.565125 13.5296 0.564087ZM23.8176 20.2929L23.1441 19.6198V18.052C23.1448 17.9844 23.1299 17.9175 23.1003 17.8566L21.3953 14.4513V12.8056C21.3953 12.6595 21.3223 12.523 21.2007 12.4419L19.8891 11.5675C19.7863 11.4989 19.6593 11.4769 19.5394 11.5072L17.9331 11.9085L15.2351 10.7508L14.864 8.15036L15.8927 7.12207H18.101L18.8442 8.23911C18.9113 8.33955 19.0171 8.40781 19.1363 8.42754L21.7595 8.86474C21.8297 8.87654 21.9018 8.8708 21.9693 8.84812L24.3853 8.0428C26.4116 11.9314 26.1949 16.6084 23.8176 20.2929ZM22.0143 4.87224L21.3035 5.34616L19.3216 4.94963L18.0358 4.52161C17.9571 4.49488 17.8724 4.4915 17.7919 4.51199L16.1664 4.91815L15.4537 4.68075L15.9819 3.62448H17.4605C17.5283 3.62453 17.5952 3.60885 17.6559 3.57857L19.1686 2.82222C20.2104 3.36598 21.1687 4.05632 22.0143 4.87224ZM8.73707 2.41475L9.78634 3.11427C9.83793 3.14859 9.89619 3.17154 9.95729 3.18159L12.0759 3.53485L11.8692 4.15349L10.7652 4.52205C10.6664 4.55494 10.5825 4.62205 10.5287 4.71135L9.27307 6.80378L7.25627 8.01395L4.28332 8.43847C4.06784 8.46891 3.90761 8.65324 3.90733 8.87086V10.1825C3.90733 10.2984 3.95346 10.4096 4.03543 10.4916L4.78173 11.2379V11.989L2.96299 10.7762L2.30325 8.79697C3.55845 5.92895 5.85904 3.64677 8.73707 2.41475ZM7.49236 16.7492L5.51622 16.3535L4.78173 14.8885V13.861L6.41073 12.232L7.01363 13.4383C7.08768 13.5865 7.23922 13.6801 7.40492 13.68H10.2179L11.4022 15.654C11.4812 15.7855 11.6234 15.866 11.7769 15.866H12.9923L12.6863 17.3993L11.031 19.0545C10.9489 19.1364 10.9027 19.2476 10.9025 19.3636V20.4566L9.3286 21.6371C9.21853 21.7196 9.15372 21.8492 9.15372 21.9868V23.566L8.60984 23.3859L7.84212 21.4657V17.1776C7.84217 16.9699 7.69593 16.7907 7.49236 16.7492ZM6.17814 23.4701C2.05596 20.3775 0.312689 15.034 1.81796 10.1055L2.18127 11.195C2.21188 11.2872 2.27232 11.3666 2.35309 11.4206L4.53253 12.8734L4.03543 13.3709C3.95346 13.4529 3.90733 13.5641 3.90733 13.68V14.9916C3.90728 15.0595 3.92296 15.1264 3.95324 15.1871L4.82764 16.9359C4.88819 17.0566 5.00115 17.1427 5.13368 17.1689L6.96991 17.5357V21.5496C6.96985 21.6051 6.9804 21.6602 7.00095 21.7118L7.87535 23.8978C7.92322 24.0172 8.02126 24.1095 8.14335 24.1501L9.45495 24.5873C9.49877 24.6021 9.54468 24.6098 9.59091 24.61C9.83236 24.61 10.0281 24.4142 10.0281 24.1728V22.2054L11.602 21.025C11.7121 20.9424 11.7769 20.8128 11.7769 20.6752V19.5446L13.3976 17.9239C13.4585 17.8629 13.5001 17.7851 13.517 17.7005L13.9542 15.5145C14.0015 15.2777 13.8479 15.0474 13.6111 15.0001C13.583 14.9945 13.5544 14.9916 13.5257 14.9916H12.0244L10.84 13.0177C10.761 12.8861 10.6188 12.8057 10.4653 12.8056H7.67511L6.924 11.2986C6.8611 11.1728 6.74153 11.0849 6.60266 11.0625C6.46385 11.0385 6.32214 11.0843 6.22361 11.1849L5.65613 11.7502V11.0569C5.65613 10.9409 5.61 10.8297 5.52803 10.7478L4.78173 10.0015V9.24991L7.467 8.86649C7.52466 8.85813 7.58013 8.83834 7.63008 8.80834L9.81607 7.49674C9.87739 7.45991 9.92876 7.40854 9.96559 7.34722L11.1941 5.29982L12.3523 4.91334C12.483 4.87044 12.5857 4.76786 12.6286 4.63703L13.0658 3.32543C13.1415 3.09618 13.0171 2.84889 12.7878 2.77314C12.7667 2.76615 12.745 2.76079 12.723 2.75707L10.1925 2.33518L9.74787 2.03876C12.4991 1.14327 15.4789 1.2541 18.1561 2.35135L17.3573 2.75008H15.7117C15.5452 2.74915 15.3926 2.84293 15.3182 2.99185L14.4438 4.74064C14.3361 4.95673 14.4239 5.21927 14.64 5.32698C14.6584 5.33616 14.6774 5.34403 14.697 5.35054L16.0085 5.78774C16.0872 5.81446 16.172 5.81785 16.2525 5.79735L17.878 5.3912L19.0689 5.78774C19.086 5.79386 19.1035 5.79856 19.1214 5.80173L21.3074 6.23892C21.4211 6.2621 21.5393 6.23881 21.6357 6.17422L22.6308 5.51055C23.1205 6.05601 23.5606 6.64404 23.9459 7.26765L21.7949 7.98466L19.4659 7.59642L18.6964 6.44222C18.6158 6.32128 18.4802 6.24838 18.3349 6.24767H15.7117C15.5957 6.24767 15.4846 6.29379 15.4026 6.37577L14.091 7.68736C13.9936 7.78469 13.9478 7.92225 13.9673 8.05854L14.4045 11.1189C14.4265 11.2703 14.526 11.3991 14.6668 11.4586L17.7272 12.7702C17.8148 12.8082 17.9127 12.816 18.0052 12.7925L19.5665 12.4021L20.5209 13.0395V14.5544C20.5201 14.6221 20.5351 14.689 20.5646 14.7499L22.2697 18.1552V19.8008C22.2697 19.9168 22.3158 20.0279 22.3978 20.1099L23.3124 21.025C19.2561 26.4316 11.5848 27.5264 6.17814 23.4701Z"
    fill="#EAD7A6" />
</svg>