<?xml version="1.0" standalone="no"?>
<!DOCTYPE svg PUBLIC "-//W3C//DTD SVG 20010904//EN"
 "http://www.w3.org/TR/2001/REC-SVG-20010904/DTD/svg10.dtd">
<svg version="1.0" xmlns="http://www.w3.org/2000/svg"
 width="745.000000pt" height="745.000000pt" viewBox="0 0 745.000000 745.000000"
 preserveAspectRatio="xMidYMid meet">
<metadata>
Created by potrace 1.11, written by Peter Selinger 2001-2013
</metadata>
<g transform="translate(0.000000,745.000000) scale(0.100000,-0.100000)"
fill="#000000" stroke="none">
<path d="M3700 7247 c-36 -44 -112 -138 -170 -207 -58 -70 -121 -146 -140
-170 -37 -46 -239 -291 -268 -325 -9 -11 -51 -61 -92 -111 -192 -234 -376
-457 -395 -478 -5 -6 -28 -34 -50 -61 -22 -28 -48 -59 -57 -70 -9 -11 -25 -30
-35 -41 -10 -12 -43 -52 -73 -89 -30 -37 -95 -115 -143 -174 -121 -145 -108
-129 -240 -291 -65 -80 -129 -156 -141 -170 -19 -22 -328 -396 -366 -444 -8
-10 -32 -39 -54 -65 -21 -25 -45 -55 -55 -66 -24 -30 -261 -317 -280 -340 -9
-11 -42 -51 -75 -90 -32 -38 -65 -79 -75 -90 -9 -11 -69 -84 -133 -162 l-118
-142 47 -58 c26 -32 52 -63 58 -69 5 -6 30 -35 55 -64 25 -30 59 -70 76 -90
24 -27 310 -369 419 -499 11 -13 38 -45 60 -71 22 -26 49 -58 60 -71 11 -13
56 -67 100 -119 44 -52 87 -103 95 -113 8 -10 23 -28 33 -40 59 -69 122 -144
377 -447 155 -184 299 -355 320 -380 21 -25 54 -65 74 -90 20 -25 47 -56 60
-70 12 -14 69 -81 127 -150 57 -69 108 -130 114 -136 5 -6 28 -33 50 -60 22
-26 56 -67 75 -89 19 -23 55 -65 80 -95 25 -29 50 -58 55 -64 6 -6 30 -36 55
-66 25 -30 47 -57 50 -60 3 -3 25 -30 50 -60 25 -30 47 -57 50 -60 3 -3 41
-48 85 -100 44 -52 82 -97 85 -100 3 -3 50 -59 105 -125 55 -66 107 -129 117
-139 10 -11 18 -23 18 -28 0 -29 40 7 123 110 600 744 979 1212 992 1226 6 6
44 53 84 105 76 97 98 125 116 145 6 6 57 70 115 141 217 270 397 493 460 571
36 44 80 99 98 122 19 22 41 50 50 61 23 26 30 35 167 206 66 83 122 152 125
155 3 3 85 104 182 225 98 121 187 231 198 245 11 14 81 100 155 192 l136 167
-20 23 c-11 13 -90 109 -177 213 -86 105 -174 210 -195 235 -20 25 -63 77 -95
115 -32 39 -61 72 -64 75 -3 3 -32 39 -65 80 -33 41 -63 77 -66 80 -3 3 -88
104 -188 225 -100 121 -199 240 -220 265 -21 25 -188 225 -371 445 -183 220
-349 420 -370 445 -21 25 -89 106 -150 180 -62 74 -122 146 -133 160 -19 22
-67 79 -128 155 -34 41 -101 121 -118 140 -9 11 -84 101 -166 200 -82 99 -157
189 -167 200 -9 11 -64 77 -123 148 -59 70 -107 127 -108 126 -1 0 -31 -37
-67 -82z"/>
</g>
</svg>
